<?xml version="1.0" encoding="UTF-8"?><svg id="Footer" xmlns="http://www.w3.org/2000/svg" viewBox="0 0 301.55 101.75"><defs><style>.cls-1{fill:#fff;}</style></defs><rect class="cls-1" x="109.1" y="14" width=".47" height="58.1"/><g><path class="cls-1" d="M74.41,63.79c-10.74,0-19.48-8.77-19.48-19.55s8.74-19.55,19.48-19.55c2.96,0,5.8,.65,8.45,1.93l-.37,.76c-2.53-1.22-5.25-1.84-8.08-1.84-10.28,0-18.64,8.39-18.64,18.7s8.36,18.7,18.64,18.7c7.26,0,13.91-4.27,16.94-10.89l.77,.35c-3.17,6.91-10.12,11.38-17.71,11.38Z"/><g><path class="cls-1" d="M79.92,30.48s.01-.04-.02-.04c0,.02,0,.04,.02,.04Z"/><path class="cls-1" d="M80.3,27.65s-.04-.06-.06-.02c0,0,0,0,0,.01,.01,0,.05,0,.06,0Z"/><path class="cls-1" d="M79.03,26.48s.09,.06,.13,.05c-.03-.02-.09-.06-.13-.05Z"/><path class="cls-1" d="M75.18,28.1s0,.04,0,.05c.06,0,.05-.04,0-.05Z"/><path class="cls-1" d="M76.16,29.81s.03,.03,.06,.03c0-.02-.04-.03-.06-.03Z"/><path class="cls-1" d="M75.55,29.19s-.07-.03-.1-.04c-.05-.02-.06,0-.11-.01,0-.04-.07-.09-.1-.1,.03,.06-.04,.13,0,.2,.02,.04,.04,.18,.1,.17,.02,0,.05-.08,.06-.1,.01,0,.05,.04,.06,.01,.05-.07,.13,.02,.14-.08-.01,0-.06-.04-.07-.05Z"/><path class="cls-1" d="M75.19,29.63c-.01,.06,.04,.06,.06,.11,.01,.05-.03,.08-.02,.13,.03,0,.1,.02,.11-.01,.03-.06,.05,.02,.09,.02-.02-.2-.07-.22-.24-.24Z"/><path class="cls-1" d="M79.97,27.51s0,0,0-.01c0,0,0,0-.01,0,0,0,.01,0,.02,.01Z"/><path class="cls-1" d="M75.86,25.38s.02,0,.03,0c-.07-.02-.09-.02-.05,0-.04-.01-.08-.04-.12-.03,.05,.02,.11,.06,.17,.06-.01,0-.03-.01-.04-.02,.02,0,.02,0,0,0Z"/><path class="cls-1" d="M75.82,25.38s.04,.04,.05,.03c-.01,0-.02,0-.03-.01,.01,0,.02,0,.03,0-.02,0-.04-.02-.05-.03Z"/><path class="cls-1" d="M76.52,62.63s.05,0,.07-.01c-.02-.04-.06-.04-.07,.01Z"/><path class="cls-1" d="M75.85,25.35s.08,.06,.05,.02c.02,0,.03,0,.04-.02-.03,0-.06,0-.09,0Z"/><path class="cls-1" d="M77.22,62.83s.12,0,.12-.01c0,0-.12,0-.12,.01Z"/><path class="cls-1" d="M76.66,62.65s.09-.02,.1-.06c-.04,0-.1,0-.1,.06Z"/><path class="cls-1" d="M78.29,29.04c.05,.01,.11-.06,.08-.12-.05,.02-.08,.07-.08,.12Z"/><path class="cls-1" d="M76.95,25.7s-.08-.07-.09-.07c0,0,.05,.08,.09,.07Z"/><path class="cls-1" d="M78.2,28.75s.01,.03,.03,.02c0-.02-.01-.03-.03-.02Z"/><path class="cls-1" d="M78.18,28.7s.02,.02,.03,.02c-.01-.02,.02-.03-.03-.02Z"/><path class="cls-1" d="M74.07,26.43s.02-.02,.02-.03c-.02,0-.02,0-.02,.03Z"/><path class="cls-1" d="M85.74,28.04s0,0,.01,0c0,0,0,0,0,0,0,0-.01,0-.02-.01Z"/><path class="cls-1" d="M84.65,27.57s.03,.02,.04,.01c0,0-.03-.02-.04-.01Z"/><path class="cls-1" d="M85.75,28.05s0,0,0,0c-.01,0-.02-.01-.03-.02,.08,.07,.17,.15,.25,.2,.14,.09,.27,.19,.41,.27,.03,.02,.07,.04,.1,.06,.03,.02,.26,.17,.14,.07,0,0,0,0,.01,0-.29-.2-.58-.4-.88-.6Z"/><path class="cls-1" d="M90.61,32.87c.11,.13,.18,.3,.31,.42,.03,.03,.08,.02,.11,.04,.05,.03,.09,.08,.13,.12,.06,.06,.11,.12,.18,.18,.08,.06,.13,.14,.17,.09,0,0,.09,.08,.16,.13-.13-.2-.26-.39-.39-.58-.02-.02-.05-.03-.05-.01-.02-.02-.12-.03-.15-.09-.07-.13-.19-.3-.34-.36,.03,.04,.14,.18,.13,.23,0,0-.24-.28-.25-.29,.02,.03,.03,.14-.02,.12Z"/><path class="cls-1" d="M86.97,28.89s0,0,0,.01c-.02,0-.06,0-.03,0,.02,.03,.05,.04,.08,.03-.01,0-.02-.02-.03-.02,0,0-.02-.01-.03-.01Z"/><path class="cls-1" d="M86.93,28.92s.02,.01,.03,.02c0-.01-.02-.04-.03-.02Z"/><path class="cls-1" d="M87.15,29.35s0-.04-.02-.06c.05,0-.09-.13-.12-.15-.02-.01-.15-.11-.17-.09,.13,.1,.18,.19,.31,.29Z"/><path class="cls-1" d="M65.08,28.25s.23-.14,.27-.09c-.07,.05-.14,.09-.21,.14-.06,.05-.02,.09-.07,.12,0,0,.08-.04,.09-.04-.1,.07,.16-.1,.11-.07,.06,.06,.08-.07,.08-.07,.02-.05,.12-.08,.16-.1-.03-.01-.03-.03,0-.04-.02,.01-.04,.01-.07,0,.04-.03,.34-.28,.51-.39-.31,.18-.61,.36-.9,.55Z"/><path class="cls-1" d="M87.34,29.37s-.2-.18-.22-.2c.05,.08,.15,.14,.22,.2Z"/><path class="cls-1" d="M65.32,36.66c-.17-.01-.02,.22,0,.26,.01,.06,.07,0,.09-.02,.05-.06,0-.1,.04-.18-.08,.01-.16,.11-.12-.06Z"/><path class="cls-1" d="M75.31,28.2s-.02,.02-.03,.03c.03,0,.04,0,.03-.03Z"/><path class="cls-1" d="M73.99,26.67s-.03,0-.02-.02c-.03,.01-.02,.06,0,.07,0-.01,0-.03,.01-.04Z"/><path class="cls-1" d="M75.32,28.31s.07,0,.11,0c0-.05-.1-.04-.11,0Z"/><path class="cls-1" d="M76.93,54.72c.14-.03,.18,.05,.31,.1,0-.02,.01-.03,.02-.05-.08-.03-.17-.07-.2-.12-.09-.12-.1-.06-.13,.07Z"/><path class="cls-1" d="M75.03,28.08s0-.03-.01-.03c-.02,.03-.01,.04,.01,.03Z"/><path class="cls-1" d="M74.17,26.49s-.03,.02-.04,.03c.02,0,.04,0,.06,0,0-.02,0-.03-.02-.03Z"/><path class="cls-1" d="M87.97,30.03s.09,.08,.12,.1c-.04-.03-.08-.07-.12-.1Z"/><path class="cls-1" d="M75.15,25.13s.04,0,.07,0c.03,0,.07,0,.1,0-.06,0-.11,0-.17,0Z"/><path class="cls-1" d="M74.68,25.81s-.03,0-.03,.01c.01,0,.03,0,.03-.01Z"/><path class="cls-1" d="M78.05,29.04s-.04-.03-.06-.03c.02,.03,.03,.03,.06,.03Z"/><path class="cls-1" d="M71.68,46.5c0-.11-.06-.1-.17-.1,0,.08,.12,.09,.17,.1Z"/><path class="cls-1" d="M71.84,46.8c.06,.07,.18,.06,.26,.08,0-.05-.1-.2-.15-.2-.09-.01-.12-.08-.2-.13,0,.05-.01,.11-.02,.16,.06,0,.07,.05,.1,.1Z"/><path class="cls-1" d="M70.06,40.75s.06,.13,.06,.08c-.07,0,.04-.07-.06-.08Z"/><path class="cls-1" d="M64.48,33.69c.05-.07,.09-.14,.08-.19-.02,.04-.05,.11-.08,.19Z"/><path class="cls-1" d="M64,34.84c.05,0,.12-.07,.13-.1-.06,.02-.11,.05-.13,.1Z"/><path class="cls-1" d="M64.58,30.92s-.03-.02-.03-.04c-.03,.03-.06,.06-.08,.09,.02,0,.04,.02,.05,.03-.01,.02-.03,.04-.04,.06,.04,0,.08-.12,.1-.14Z"/><g><path class="cls-1" d="M69.98,33.74s.01,.05,0,.08c-.01,.02-.03,.05-.05,.07-.01,.02-.02,.04-.03,.06,0,0,0,.03,0,.05,0,.02,0,.04,0,.07-.02,.08-.25,.13-.25,.13-.02,0-.04-.01-.06-.03s-.02-.04-.02-.06v-.03c0-.09,0-.15,.02-.2,0,0,0-.01,0-.02-.01,0-.02-.02-.03-.03-.01-.02-.02-.04-.01-.06-.02,0-.04-.01-.06-.03-.02-.02-.02-.04-.02-.06,0-.04,0-.07,.02-.1-.03-.01-.05-.03-.07-.06-.01-.01-.02-.03-.05-.04-.03-.02-.07-.06-.08-.1v-.02s0-.08-.03-.1c0-.01,.01-.02,.01-.03,0-.03,0-.07-.03-.08,.02-.03,.05-.07,.08-.08h.01s.04-.07,.06-.1c.05-.05,.09-.06,.13-.05,.02-.06,.07-.1,.13-.1,.03,0,.06,.02,.07,.04,.01,.02,.01,.03,.01,.05,0,0,0,0,0,0,.02,.03,.03,.06,.02,.09-.02,.04-.02,.09-.03,.13v.05s.01,.08,0,.12c.03,.04,.04,.08,.05,.11,.01,.04,.01,.08,.01,.13,0,.14,.02,.18,.1,.18,.03,0,.05,.02,.07,.04Zm-.35-.32s-.02-.04-.02-.05c-.03-.02-.04-.06-.03-.09,0-.01,0-.02,0-.03,0,0-.01-.01-.01-.01-.01-.02-.02-.05-.01-.07,.01-.03,.01-.06,.02-.08h0s-.03-.02-.04-.02c-.02,.02-.04,.04-.05,.07l-.03,.04s.04,.01,.06,.03,.02,.05,.01,.07c-.01,.03-.03,.05-.04,.07,.03,.02,.05,.05,.07,.06,0,0,0,0,.03,0,0,0,.01,0,.02,0,.02,0,.03,0,.04,.01Z"/><path class="cls-1" d="M69.46,31.74s.01,.06-.01,.08c0,.01-.03,.03-.05,.06-.01,.01-.04,.04-.06,.05,0,.07-.02,.1-.07,.14-.01,0-.02,.01-.03,.01,0,.01-.01,.03-.02,.04-.03,.05-.08,.15-.18,.15-.01,0-.03,0-.05,0,.01-.02,.01-.04,0-.06,0-.03-.04-.06-.07-.07,0,0,0,0,0,0,.01-.02,.01-.02,.02-.05v-.04s0-.03,0-.04c0-.02,.01-.04,.03-.06,.03-.03,.05-.06,.08-.08,.01-.01,.02-.04,.05-.06,0,0,.01,0,.02,0h.02c.07-.02,.14-.08,.17-.15,0,0,.01,0,.02,0h0s.04,.01,.06,.03v.02s.05,.02,.06,.05Zm-.05,.02s0-.01,0-.02h-.05s.01,.02,.01,.02h.05Z"/><path class="cls-1" d="M69.42,33.91c.03,.1,.06,.2,0,.28-.03,.04-.09,.06-.16,.06-.03,0-.05,0-.07-.03-.01-.02-.02-.04-.02-.06v-.03c.01-.12,.01-.18-.04-.27l-.02-.02s-.04-.07-.05-.12c.04,0,.07,0,.08,0,.04,0,.08-.03,.08-.07,0-.03,.01-.05,.02-.07,.03,0,.05,.02,.07,.04,0,0,.01,.01,.01,.02,.02,0,.04,.01,.05,.03,.02,.02,.03,.05,.02,.08-.01,.03,.01,.1,.03,.15Z"/><path class="cls-1" d="M69.32,31.59h0s0,.04-.01,.05c-.08,.01-.16,.09-.21,.15-.01,0-.02,0-.03-.01-.02-.01-.03-.03-.03-.06,0-.03,0-.06,0-.1,0-.08,.12-.14,.18-.14,.06,0,.1,.04,.1,.1Z"/><path class="cls-1" d="M69.27,33.25s.05,.06,.04,.1v.02s-.01-.02-.01-.02c0-.01,0-.03,0-.04,0,0-.01-.01-.01-.01-.01-.01-.02-.03-.02-.05-.02-.02-.03-.06-.03-.09,0-.01,0-.02,.01-.03,.03,.02,.04,.05,.03,.08,0,.01-.01,.02-.01,.03Z"/><path class="cls-1" d="M69.3,33.31s0,.02,0,.04c0,0,0,.02,0,.02v.04s-.03,.04-.04,.06l-.02,.05-.02,.06s-.04,0-.06,0c-.05,0-.09,.02-.11,.06-.01,.03-.01,.06-.01,.08-.04-.01-.09-.04-.11-.08-.01-.02-.03-.07,.02-.13,.04-.06,.04-.06,0-.11-.02-.03-.04-.06-.06-.1-.01-.02,0-.05,0-.07,.01-.02,.03-.04,.06-.04,.03,0,.06-.01,.09-.01,0-.02,.02-.04,.03-.05,.03-.02,.07-.04,.15,0,0,0,.01,0,.02,.01,0,.01-.01,.02-.01,.03,0,.03,0,.06,.03,.09,0,.02,0,.03,.02,.05,0,0,0,.01,.01,.01Z"/><path class="cls-1" d="M69.23,33.59s-.01,.05-.02,.07c0,.04-.04,.07-.08,.07,0,0-.04,0-.08,0,0-.02,0-.05,.01-.08,.02-.04,.06-.06,.11-.06,.02,0,.04,0,.06,0Z"/><path class="cls-1" d="M69.31,31.64c-.02,.07-.1,.13-.17,.15h-.02s-.01,0-.02,0c.05-.06,.13-.14,.21-.15Z"/><path class="cls-1" d="M69.03,30.08s0,.05-.01,.06c-.02,.03-.05,.05-.08,.06,0,0-.01,0-.02,0-.03,.04-.07,.05-.1,.05-.01,.02-.04,.07-.12,.06,.01,0-.01,.02-.02,.03-.04,.04-.1,.11-.2,.07-.02,0-.12,.09-.17,.13-.05,.04-.1,.07-.12,.09-.07,.03-.12,.01-.14-.01-.01,0-.02,.01-.03,.02-.07,.06-.16,.14-.26,.09-.01,0-.07,.01-.09,.02-.03,0-.06,.01-.09,.01-.03,0-.07,0-.09-.04-.03-.03-.03-.07-.03-.1-.03-.02-.08-.05-.08-.13,0-.07,.03-.1,.06-.12,.05-.03,.1,0,.13,.03,.03-.01,.07-.03,.1-.05,.09-.05,.17-.09,.24-.08-.01-.06,.02-.13,.05-.18h0c0-.05,.02-.14,.09-.16,.03-.01,.07-.01,.11,.04,.03,0,.05,.02,.06,.04,0,0,0,0,0,.01,.01,0,.02,.01,.03,.02,.02,.03,.02,.06,0,.09,0,0-.01,.02-.03,.04-.01,.01-.02,.03-.04,.06,.06,0,.15-.01,.18-.03,.03-.02,.07-.04,.1-.06,.14-.09,.33-.21,.5-.11,.02,.01,.03,.03,.04,.05Zm-.82,.33s.02-.01,.03-.02c-.07,0-.11,0-.16-.03,0,.01-.01,.02-.02,.03-.04,.04-.1,.06-.16,.04-.02,0-.1,.04-.14,.06-.04,.02-.08,.05-.12,.06,0,0,0,.02,0,.02,.06-.01,.13-.03,.19,0,.01,0,.06-.04,.08-.06,.02-.02,.04-.03,.05-.04,.06-.04,.12-.04,.17,0,.02-.01,.05-.04,.08-.06Z"/><path class="cls-1" d="M69,32.21s0,.04,0,.06c0,0-.01,0-.02,0-.02-.01-.04-.03-.05-.06,0-.02,0-.04,.01-.06,.03,.01,.06,.03,.07,.07Z"/><path class="cls-1" d="M69,32.27s-.01,.02-.02,.03-.02,.02-.03,.04c-.02,.02-.04,.03-.07,.03h-.03s-.06-.02-.08-.04c-.02-.02-.03-.05-.02-.08,.04-.09,.09-.12,.18-.1h0s-.02,.04-.01,.06c0,.03,.03,.05,.05,.06,.01,0,.02,0,.02,0Z"/><path class="cls-1" d="M68.75,31.14s.05,.04,.05,.08c0,.03-.02,.06-.05,.08-.07,.03-.13,0-.16-.01-.05,.01-.09,.03-.14,.04-.04,.01-.08,.02-.11,.04-.04,.03-.08,.05-.13,.06-.03,.01-.06,.03-.09,.04-.03,.02-.05,.04-.08,.05-.06,.05-.13,.1-.24,.1,0,0-.02,0-.03,0-.03,0-.05-.02-.06-.04,0,0,0-.01,0-.01h-.01s-.02-.07,0-.1c.06-.1,.19-.17,.31-.23,.03-.01,.05-.02,.07-.04,.03-.01,.04-.03,.07-.05,.02-.02,.04-.04,.06-.06,.03-.02,.15-.07,.22,0,0,0,0,0,0,0,.03-.01,.06-.03,.1-.03,.07,0,.13,.03,.18,.05h.03Zm-.21,.07c.07-.04,.1,.04,.18,.01-.06-.03-.12-.06-.18-.06-.05,0-.12,.05-.16,.04,.04-.08-.09-.04-.11-.03-.05,.04-.08,.09-.14,.12-.1,.05-.29,.13-.35,.23,.03,0,.04,0,.02,.03,.12,.01,.18-.07,.29-.14,.07-.04,.15-.06,.21-.1,.07-.05,.16-.06,.23-.1Z"/><path class="cls-1" d="M68.72,31.22c-.08,.03-.11-.06-.18-.01-.07,.04-.16,.05-.23,.1-.06,.04-.15,.06-.21,.1-.11,.07-.16,.15-.29,.14,.01-.03,0-.04-.02-.03,.06-.1,.25-.18,.35-.23,.06-.03,.09-.08,.14-.12,.02-.01,.15-.05,.11,.03,.04,.02,.12-.04,.16-.04,.06,0,.12,.03,.18,.06Z"/><path class="cls-1" d="M67.88,29.93s.01,.07-.01,.09c-.03,.04-.16,.09-.26,.09-.03,0-.06,0-.08-.02-.01,0-.02-.01-.03-.02-.02,0-.03-.01-.04-.02s-.03-.01-.03-.01c-.03,0-.06-.02-.07-.05-.01-.03,0-.06,.01-.09,.09-.11,.29-.08,.35-.06,.03,0,.05,.02,.06,.05h.03s.06,.02,.08,.05Z"/></g><path class="cls-1" d="M76.15,32.95s0-.13-.03-.12c0,0-.12,.22-.05,.22,0-.03,.05-.02,.06-.02,0-.04-.04-.05,0-.08Z"/><path class="cls-1" d="M75.7,35.23c.06,0,.11-.05,.16-.09-.07,0-.11,.03-.16,.09Z"/><path class="cls-1" d="M75.97,33.4s.05-.12,0-.14c-.05-.03-.09,.06-.11,.11-.06,.16,.11,.02,.11,.03Z"/><path class="cls-1" d="M71.68,34.33c-.03-.07-.05-.12-.13-.07-.05,.03-.04,.08-.09,.1,.01,.15,.04,.02,.09,.03-.01,.03-.02,.05-.01,.08,.08-.03,.24,.04,.15-.14Z"/><path class="cls-1" d="M88.58,31.05s-.05-.04-.08-.06c.03,.02,.05,.05,.08,.06Z"/><path class="cls-1" d="M75.25,33.93s.14-.22,.02-.14c-.06,.04-.17,.11-.19,.19-.02,0-.03,.01-.05,.03-.02,.05,.2-.06,.22-.07Z"/><path class="cls-1" d="M77.12,33.1c-.01-.06-.1-.09-.15-.1,.03,.09,.07,.14,.15,.1Z"/><path class="cls-1" d="M77.66,55.37c0,.06,.05,.11,.11,.13,0-.08-.02-.14-.11-.13Z"/><path class="cls-1" d="M75.45,33.85c-.07,.02-.09,.02-.1,.08,.04,0,.07-.04,.1-.05,0-.01,0-.02,0-.03Z"/><path class="cls-1" d="M73.35,35.48s.07,0,.11,.01c-.02-.04-.11-.09-.11-.01Z"/><path class="cls-1" d="M73.72,36.3s-.18,.05-.18,.14c.05,0,.11,.01,.08,.07-.02,.04-.1,.01-.14,.02-.1,.01-.3,.09-.38,.15-.12,.1-.25,.17-.41,.17,0-.12,.1-.11,.11-.23-.11,0-.13,.17-.21,.24-.09,.07,.05,.15,.12,.15,0,.07-.06,0-.06,.05,.18,.09,.37-.1,.55-.16,.09-.03,.18-.1,.25-.12,.06-.01,.11-.09,.16-.13,.04-.03,.07-.05,.11-.07-.04-.06-.08-.09,0-.11,0,.04,0,.07,0,.11,.05-.03,0-.08,.03-.11,.01-.01,.13-.02,.15-.03,.08-.01,.03,.02,.09,.02,.05,0,.11-.02,.16-.03,.07-.01,.32-.03,.27-.14,.05-.03,.12-.21,.13-.28-.05,0-.09,.07-.13,.1-.06,.05-.12,.04-.2,.05,0-.06-.22-.02-.22,0,.1,0,.14,.08,.26,.06,0,.06-.13,.09-.17,.07-.11-.04-.25-.02-.38,0h0s0,0,0,0Z"/><path class="cls-1" d="M71.35,34.82c-.08-.01-.08,.09-.14,.15-.02,.02-.1,.05-.13,.07-.06,.03-.13,.04-.19,.07-.11,.06-.24,.14-.33,.23,.08,0,.25-.03,.29,.02,.09,.1,.11,.01,.21,0,.08-.02,.51-.29,.54-.18-.06,0-.1,.08-.16,.08,.01-.08-.08,.1-.06,.07,.04,0,0,0,.02,.02,.15-.05,.24-.05,.25,.12,.06,0,.13,.03,.17,.01,.06-.02,.16-.05,.22-.06,.17-.02,.24-.14,.22,.09,.12-.01,.22-.02,.24,.13-.06,0-.15-.1-.15,0-.08,0-.23-.11-.29,0-.01,.02-.1,.02-.12,.02-.03,0-.06,0-.09,0,0,.04,0,.05-.04,.05,.03-.08-.12,.03-.13,.06-.05,.11-.19,.21-.22,.33,.1,0,.13-.14,.23-.17-.02,.18-.16,.29-.2,.46-.09,0-.03,.31-.04,.38,.03,0,.03,.05,.02,.07,0,.08,0,.1,.08,.13,.04,.02,.07,0,.1-.03,.02-.02,.04-.03,.06-.03,0-.03,0-.06,.01-.08,.04-.04,.09-.1,.11-.15,0-.02,.06-.22,0-.2,0-.09-.03-.26,.07-.29,.02,0,.04-.2,.06-.22,.03-.03,.07-.01,.1-.02,.04,0,.05-.07,.07-.1,.03-.04,.1,0,.1-.07,0-.03,.04-.07,.08-.08,.07-.02,.05,.04,.09,.07,.04,.02,.09,0,.14,.04,.02,.01,.01,.05,.05,.05,0,.07-.02,.04,0,.1,.07,.13-.07,.26-.12,.39,.07,.05,.16-.12,.26-.08,.08,.03,.06,.23,.11,.3,.06-.07,.14-.06,.15-.16,.01-.07,0-.11,0-.18,.01-.06,.06-.14,.12-.18,.04-.03,.12-.09,.11,0,.02,0,.18-.01,.15,.05,.11,.03,.13-.07,.08-.07,0-.05,.11-.02,.14-.08,0-.01-.06-.04-.07-.04-.06-.05-.04-.13-.04-.2-.12,0-.13-.06-.22-.12-.03-.02-.15,.02-.19,.02-.06,0-.1-.05-.18-.04-.02,0-.08,0-.08-.03-.05,0-.09,0-.14,0-.03,0-.05,0-.07,0-.06,0-.1-.08-.16-.1-.07-.02-.08,0-.09-.08,0-.07-.05-.08-.04-.15,.01-.06,.05-.04-.03-.08-.05-.03-.06-.07-.02-.11,0-.03-.07-.11-.08-.04-.1-.01-.1-.02-.17-.07-.08-.07-.09-.14-.11-.25-.05,0-.08,.06-.11,0-.02-.03-.1-.03-.11,.01-.08-.02-.09-.03-.14,0,0,.02,0,.03,0,.05,0,.05-.02,.06-.06,.03,.02-.02,.02-.04,0-.07-.05,.06-.08,.14-.17,.12Zm1.7,.92c-.05,.06-.17,.01-.25-.01-.03,0-.05-.03-.06-.06,.11,0,.2,.05,.3,.08Z"/><path class="cls-1" d="M74.99,32.5c.06,0,.06-.05,.06-.09-.02,.02-.04,.03-.06,.05,0,.02,0,.03,0,.04Z"/><path class="cls-1" d="M73.73,35.79c0,.05,0,.11,0,.16,0-.06,.01-.14,0-.16Z"/><path class="cls-1" d="M73.61,36.08s-.04,.12,.03,.08c.06-.03,.02-.07,.02-.11-.02,0-.04,.01-.05,.03Z"/><path class="cls-1" d="M93.44,51.49c.23-.61,.45-1.22,.63-1.84,.07-.25,.14-.5,.2-.75,.08-.31,.13-.62,.2-.93,0,.02-.01,.04-.02,.07,.03-.15,.05-.3,.07-.45,0,0,0,0,0,0,0-.03,0-.06-.01-.09,0-.04,.03-.06,.04-.1-.04,.03,0-.14-.05-.11,.01-.11,.05-.21,.06-.33,0-.07,0-.16,.02-.21,.04-.08,.03-.16,.03-.24,0-.15,.03-.3,.05-.45,0-.1,.03-.19,0-.29-.02-.08,.02-.16,0-.23-.02,.02-.05,.03-.07,.05,0-.05,0-.09,0-.14,0,0-.05,.06-.05,.02-.03,.02,.01,.07-.02,.09,0-.02,0-.05,0-.07-.08,.05-.11,.21-.19,.27,0-.11-.07-.17-.04-.29,.02-.08-.01-.12-.04-.17-.06-.13-.09-.13-.21-.07,0-.02,0-.05,.02-.07-.13,.07-.21,.31-.28,.42,0-.05,.01-.1,.02-.15-.05,.02,0,.1-.06,.13,0-.05-.03-.07-.07-.09,0,.05,.07,.11,.03,.17-.02,.03-.1,.07-.09,.1-.07,.03-.09,.07-.15,.11,0,0-.1,.12-.1,.12-.09,.04-.08,.14-.18,.16-.04,0-.11,.02-.14,0-.05-.04-.2,.06-.25,.11-.1,.1-.15,.29-.31,.32-.07,.01-.06-.04-.12-.05-.06-.01-.1-.08-.13-.12-.06-.09-.16-.19-.26-.24-.06-.03-.06-.09-.11-.15-.05-.07-.1-.04-.18-.07,.04-.01,.07-.02,.11-.03-.04-.02-.08,0-.12,0-.01-.07-.09-.11-.08-.16,0-.09-.04-.06-.09-.11,0-.02,.01-.03,.03-.04,.03-.03-.04-.08-.05-.1-.03-.04-.01-.11-.03-.16,0-.02-.02-.03-.04-.04-.06-.02-.04-.04-.05-.1-.04,.01-.04-.11-.04-.13,0,.02-.17-.21-.11-.21-.06,0-.03-.09-.11-.07,0-.03-.06-.08-.1-.07,0-.05-.02-.1-.02-.16-.06,.02-.14-.03-.19-.09-.04-.05-.03-.16-.07-.18-.04-.18-.04-.37-.2-.51,.05-.01,.11-.25,.12-.31,.02-.08-.03-.19-.04-.27,0-.04,.04-.13,.02-.17,0,0,0,0,0,0,0-.2-.04-.5-.14-.68-.04-.07-.03-.11-.04-.2,0-.09-.07-.13-.05-.21,0-.06-.06-.09-.09-.15-.04-.07-.06-.11-.09-.19,.05-.01,0-.13-.02-.16,.03,0,.07-.13,.07-.16,0-.11-.01-.29,.04-.39-.05-.1,.03-.13,.04-.23,.02-.13,.02-.29,.03-.43-.04-.14,.03-.33,.07-.46-.02-.06-.02-.17,.03-.21,.02-.01,.04-.02,.06-.01-.01-.05,0-.1,.02-.14,.12-.31,.26-.63,.14-.94-.04-.09-.09-.13-.13-.23-.02,0-.05-.17-.05-.19-.02-.14-.1-.52,.04-.59,.1-.05,.14-.33,.1-.42-.03-.06-.04-.16-.05-.23-.01-.06,0-.23-.03-.27,.08-.03,.15,.13,.25,.14,.06,0,.03-.04,.11-.06,.09-.02,.06-.03,.09-.11,.05,.11,.15,.04,.17-.04,.02-.08,0-.12,.04-.2,.02-.03,.05-.14,.07-.16,.11-.1,0-.21,.19-.26,.03,0,.08-.1,.13-.13,.06-.03,.1-.07,.15-.08-.02-.03-.01-.06,.01-.08,.03,.02,.07,.04,.1,.06,0,0,0-.08,0-.09,.04,.07,.11-.15,.12-.16,.04-.05,.11,.06,.17,.05,.06,.11,.07,.23,.13,.34,.03,.06,.09,.13,.14,.2,.04,.07,.07,.18,.08,.26,.04,.08,.11,.14,.14,.2,.08-.03,.17,.25,.25,.1,.03,.05,.1,.04,.14,.07,.05,.04,.1,.1,.14,.15,0-.02-.02-.04-.02-.06-.28-.63-.59-1.23-.93-1.83,.01,.04,.01,.07,0,.08-.09-.15-.19-.31-.27-.47-.03-.06-.43-.42-.44-.37-.05-.07-.16-.11-.23-.16-.06-.05-.12-.1-.17-.15-.06-.05-.11-.12-.17-.17-.07-.07-.17-.14-.23-.22-.02,.01-.07-.03-.09-.04-.08-.03-.02,.02-.05,.05,.03,.04,.04,.09,.07,.14,.02,.04-.04,.09,0,.13-.03,.02,.09,.23-.04,.16-.02-.01-.11-.06-.11-.01-.02-.03-.09-.03-.1,.02,0,.06,0,.14,.03,.19,.04,.06,.09,.13,.13,.19,.06,.08,.04,.14,.04,.24,0,.04-.02,.09-.02,.11,0,.06,.02,.13,.02,.21,0,.1,.03,.22,.05,.3,.03,.15,.15,.16,.17,.31,0,.08,0,.15,.03,.23,.03,.1,.03,.09,0,.19-.02,.06,0,.15,0,.21,.02,.1,0,.07-.05,.12-.03,.03-.09,.04-.1,.06,0,0-.07-.01-.09,0,.01,.07-.04,.2-.12,.22-.12,.03-.18-.27-.34-.21,0,0-.07,.12-.1,.1-.04-.04-.12-.03-.17,.02-.04-.1-.06-.21-.12-.29-.02-.03-.04-.06-.06-.1-.02,0-.04-.01-.06-.02-.03-.05,0-.07-.02-.13-.04,.01-.01,.04,0,.06-.1,.03-.17-.73-.31-.78-.16-.05-.14-.3-.27-.37-.11-.06-.22-.22-.03-.28-.03-.05,0-.16,.09-.14,.1,.02,.05,.02,.12,0,.04-.02,.11-.06,.15-.06,.1,.01,.11-.02,.2-.03,.04,0,.05,0,.1-.02,.06-.01,.07,.05,.14,0,.16-.1-.25-.62-.35-.7-.1-.09-.27-.14-.35-.25-.02-.02-.07-.11-.1-.12-.03-.02-.04,.03-.07-.02,.14-.06,.28-.12,.42-.19-.12,.06-.25,.12-.38,.17-.08,.03-.03-.03-.09-.01-.05,.02-.02-.07-.06-.08-.01,0,.01,.09,.02,.1-.1,.04-.16-.21-.29-.08-.02-.04-.04-.07-.07-.11,.15,0-.21-.15,0-.16-.08-.11,.14,0,.13,0,0,0,.04-.13,.05-.13,.05,.06,.06-.02,0-.07-.07-.08-.16-.14-.23-.22,.05-.04,.08,.01,.13,.04,.06,.04,.09-.06,.13-.08-.03-.04-.08-.09-.06-.15,.04-.11,.04-.06-.05-.17-.04-.05-.16-.17-.1-.24,.05-.05,.02-.11,.14-.12-.07-.08-.13-.18-.2-.27-.03-.04-.05-.09-.09-.13-.03-.02,0-.04,0-.07-.01-.05-.05-.07-.02-.11,.03,.03,.04-.01,.07-.02,.02,0,.04,0,.05,.02-.01,0-.02-.02-.03-.03-.1-.13,.06-.05,.06-.05-.06-.06-.06-.14-.13-.19-.11-.08-.25-.19-.33-.29-.06-.07-.15-.09-.22-.16-.09-.1-.21-.15-.29-.26,.07-.03,.02-.05-.02-.1,.03-.02,.06,.05,.08,.03-.05-.04-.12-.12-.19-.11,.03,.03,.04,.08,.06,.12-.05-.05-.07-.12-.12-.16,.06-.04-.05-.15-.09-.23,.06,.05,.11,.1,.16,.15,0,0,.07,.09,.06,.09,.1,0,.26,.14,.35,.23-.02,0-.05,0-.07-.02,.08,.07,.15,.15,.22,.23,0,0,0,0,0,0,0,.02,.03,.04,.07,.06,.05,.04,.09,.07,.05,.04,.04,0,.3,.33,.3,.21,.04,.03,.07,.06,.12,.06,0,0-.08-.07-.03-.06-.03-.03-.06-.07-.06-.12,.06,.06,.1-.03,.17,.04,.01-.11-.03-.21-.07-.31-.22-.2-.44-.39-.67-.58-.21-.17-.42-.33-.63-.49,0,0-.04-.03-.05-.03,.06,.04,0,.08,.09,.11,0,.01,.1,.09,.11,.1,.17,.13,.33,.28,.49,.42,0,0-.07-.08-.07-.09,.05,.04,.11,.09,.14,.15,0-.01-.02-.02-.03-.02,.04,.03,.04,.05,.01,.09,0,.02,.05,.08,.06,.09,.03,.04,.08,.07,.12,.11,.04,.04,0,.09,.03,.11,0,0-.02,0-.04,0,.03,.03,.05,.05,.06,.07,.02,.04,.04,.07,.07,.1-.03,.03-.06-.07-.09-.04,.07,.09-.09-.05-.1-.05-.04,0-.11-.08-.1-.13,.01,0,.05,.06,.07,.04-.04-.04-.15-.09-.13-.16,.02,.02,.05,.04,.09,.06-.1-.09-.22-.22-.25-.24-.13-.07-.27-.15-.38-.23-.03-.02-.18-.17-.22-.14-.05-.04-.11-.13-.19-.13,.05,.04,.06,.11,.06,.15,0,.04,.05,.07,.06,.1,.01,.04,.02,.08,.04,.12,.07,.12-.09,0-.1,0,.04,.04-.22-.02-.22-.1,0-.02-.19-.22-.21-.21,.02,.02,.08,.08,0,.04,.02,.02,.04,.04,.06,.06-.08,.05-.3-.34-.36-.39-.01,0,.05,.13,.06,.15-.02-.02-.06,0-.09-.03-.02-.01-.02-.04-.05-.06-.04,.06-.05,0-.09-.03,.05-.03-.1-.07-.11-.07-.05-.04,.07-.07,.09-.07,0,0-.05-.1-.06-.07,0,.02,.02,.03,.04,.04-.03,.02-.07-.04-.1-.02,.02,.02,.03,.03,.04,.06-.04-.03-.09-.05-.07,.02-.06-.04-.19-.09-.12-.18-.08-.01-.1,0-.16-.05,.03-.02,.05,.06,.02-.03,.04,.03,.09,.03,0-.03,.04-.02,.09,.09,.04-.02,.01,0,.06,.06,.08,.05-.04-.03-.07-.06-.12-.07-.03,.02-.05,.01-.07-.02-.03-.04-.02-.06,.03-.03-.07-.05-.13-.09-.2-.13,.02-.02,.05-.03,.08-.01-.03-.02-.05-.03-.08-.05,.03,0,.06,.02,.09,.02-.05-.04-.1-.06-.15-.11-.04-.04-.05-.07-.09-.11,.02-.02,.09,.06,.14,.03-.04-.03-.12-.17-.17-.15,.03,.04,.08,.07,.09,.12-.01,0-.27-.2-.28-.23-.04-.1-.21-.19-.3-.3-.05-.06-.38-.18-.37-.26,0-.03-.04-.06-.11-.1,0,0,0,0-.02,0,0,0,.01,0,.02,0-.13-.07-.33-.15-.37-.19,.02,0,.13,.04,.14,.04-.04-.02-.25-.17-.19-.08-.18-.09-.35-.22-.54-.31,0,0,.05,.01,.07,.02,0,0-.02,0-.03-.01-.03-.01-.06-.03-.09-.04,0,0,0,0,0,0-.86-.37-1.75-.69-2.65-.93-.21-.06-.42-.1-.63-.15,0,0,0,0,0,0,.07,.03,.14,.04,.21,.06-.05,0,.02,.01,.03,.01,0,.01-.25-.04-.27-.05-.1,0-.18-.02-.28-.05,0,0,0,0,0,0-.02,0-.04,0-.06-.01,.02,0,.04,0,.06,0,0,0,0,0,0,0,0,0,.01,0,.03,0-.02-.01-.24-.05-.24-.06,.01,.04-.04,.02,.05,.04-.04,0-.08,0-.12-.02,0,0-.2-.04-.08-.03-.13-.03,0,0,.03,0-.03,0-.06-.02-.09-.03,.08,0,.04-.01,0-.02-.01,0-.03,0-.04,0-.04,0-.07,0-.11-.01,.04,0-.13-.02-.16-.02,.06,.02,.07,.02,.02,.01,.04,.02,.17,.02,.2,.06-.03,0-.06,0-.09,0,0,0,0,0,0,0-.03,0-.24-.06-.32-.07,.06,.02,.14,.04,.22,.05-.05,.03-.2-.04-.24-.05,0,0,.02,0,.03,0,0,0,0,0-.01,0-.02,0-.1-.03-.16-.04,.02,0,.03,0,.04,0-.07-.01-.16-.01-.22-.05,.05,0,.49,.12,.53,.08-.15-.03-.31-.06-.46-.09-.68-.1-1.36-.18-2.04-.21-.41-.02-.82-.02-1.23-.02-1.6,.04-3.18,.26-4.72,.67-.55,.15-1.09,.33-1.62,.53-.45,.17-.88,.36-1.32,.55,.07-.03,.13-.06,.2-.09-.57,.26-1.14,.55-1.68,.86,.02,0,.04-.01,.04,0,.04,.08,.28-.08,.37-.12,.12-.05,.23-.11,.35-.15,.05-.02,.08,0,.14-.03,.02,0,.16-.07,.07,0,.03-.01,.27-.08,.29-.07-.02,0-.16,.11-.16,.11,.02-.01,.1-.05,.12-.04-.03,.02-.08,.03-.1,.07,.01,0,.07-.01,.08,0-.04,.07-.06,.06-.06,.13,0-.02,.11,0,.11,0-.1,.08,.15,.12,.04,.2,.02,0,.03,0,.04-.02,0,.01-.02,.02-.03,.03,.02,0,.22-.03,.12,.04,0,0,0,.04-.02,.05,.03,0,.08,.03,.1,.04-.05,.06-.05,.13-.1,.18,.06,.01-.06,.18-.09,.2,.06,.01,.19-.22,.23-.18,0,.02-.01,.03-.03,.03,.1,.02,.22-.18,.3-.16-.04,.03-.06,.08-.1,.11,.12-.01,.24-.1,.37-.12-.04,.03,.13-.05,.14-.05,.07-.04,.06,0,.12,0-.26,.2-.6,.21-.86,.41,.08-.01,.15-.07,.22-.11,.03-.02,.23-.11,.16-.04,.13,.03,.23-.17,.37-.14,.13,.03,.33-.22,.46-.27-.17,.13-.12,.4-.26,.53,.03,0,.32-.25,.34-.21-.38,.27-.74,.64-1.07,.97,.09,.01,.12,.03,.21,.04-.01,.01-.05,.07,0,.08-.08,.09-.07-.02-.16,0-.03,0-.05,.13-.11,.15-.05,.02-.08,.09-.13,.1-.09,.02-.08,.15,.02,.14,.11-.02,.21-.24,.34-.13-.08,.1-.25,.08-.33,.18,.1,.01,.34-.24,.41-.07,.04-.05-.05-.09,0-.14,.08-.07,.09,.02,.17,0,.08-.01,.23-.16,.24-.24-.11,.02-.13-.03-.2-.1,.02,0,.2-.04,.21-.03-.03-.03-.03-.04-.05-.06-.05-.05-.1,0-.15,0-.13,0-.26,.04-.38,.04,.27-.27,.55-.54,.84-.79-.02,.02-.04,.03-.05,.05,.1,.01,.2-.16,.29-.08,0,0-.06,0,0,.01-.02,.02,.05,.05,.03,.09-.03,.07,.12,.07,.05,.15,.03,0,.06,0,.03,.03,.05-.02,.06,0,.05,.03,0,.03,.03,.02,.03,.04,.02,.05,.07,.04,.1,0,.03-.04,.17,.13,0,.18-.06,.02-.16,.04-.16,.13,0,.06,.11,.04,.15,.04,.05,0,.12,0,.17-.02,.07-.01,.17-.08,.24-.07-.02,.03,.01,.09,.02,.11,.01,.05-.05,.11-.06,.15,.03-.03,.07-.06,.1-.08-.05,.07-.11,.16-.09,.25,.05-.07,.08-.08,.13-.16,.04-.07,.05-.11,.11-.16,.11-.11,.32-.13,.46-.23-.08-.06-.05,.05-.15,.04-.06,0-.1,.06-.15,0-.03,.04-.08,.09-.15,.06,.06-.06,.2-.21,.28-.18,.05,.02,.15-.02,.21-.02,.02-.03,.03,.11,.01,.14-.07,.13,.06,.04,.09,.05-.02,.04-.04,.07-.07,.09,.04,.02,.14-.02,.18-.03-.07,.08,.11,.09,.14,.16,.04-.02,.07-.04,.12-.05,.01-.01,.03-.02,.05-.02,.05-.02,.05,.03,.1,.03,.07,0,.12,.03,.2-.01,.04-.02,.03-.09,.06-.13,.06-.07,.14-.05,.14,.05,.05,0,.06-.04,.1-.06,0,0-.05,.09-.07,.1,.03,0,.06-.02,.08-.05-.05,.1-.16,.16-.09,.28,.03,.06,.08,.08,.14,.06,0-.02-.05-.04-.04-.09,0-.03,0-.06,0-.07,.03-.03,.1-.07,.11-.11,0,0,.15-.09,.18-.11,.07-.05,.19-.03,.21-.15-.05,0-.09,.04-.13,.04,.06,0,.08-.18,.16-.18,0,0,.06,.03,.08-.03,.03-.11,.07-.05,.13-.1,.04-.03-.05-.01-.04-.01-.04,0-.08,.03-.11,.05-.04,0-.12,.04-.08-.05-.04-.02-.03-.06-.08-.08-.01,.02-.05,.11-.08,.1,.03-.04,.02-.05-.04-.02,.03-.03,.05-.06,.08-.1-.08,0,0-.08-.06-.08,.01-.03,.03-.04,.06-.05,.08-.02,.02,0,.04-.06,.02-.05,.05-.1,.09-.13,.02-.02,.12-.03,.12-.04-.06-.09,.12-.15,.16-.25,.04-.09,.07-.19,.09-.28,.04-.11,.44-.28,.44-.11,.02,0,.04-.01,.05-.03,.04,.02,.08,.03,.13,.03-.12,.17-.25,.28-.46,.28-.08,0-.14,0-.15,.08,0,.06-.14,.12-.13,.15,0,.03,.06,.11,.08,.14,.01,.02,0,.04,.04,.05,.07,0,.04,.04,.07,.07,.06,.05,.13,.06,.05,.13,0,0-.06,.02-.05,0-.04,0-.14,.07-.02,.06-.08,.08-.19,.08-.11,.21,.02,.02,.1,.02,.13,.02-.03,.08,.01,.23-.04,.34,.16,.03,.18-.26,.3-.32,.22-.1-.09,.36-.07,.41,.02,.06,0,.06,.05,.09,.04,.02,.01,.09,.05,.13,.07,.06,.1-.04,.16-.05,.07-.02,.08-.14,.13-.2,.06-.06,.08-.18,.15-.21,.02,0,.12-.05,.09-.11-.04-.06-.02-.13-.04-.23,.05,0,.4-.01,.38,.1-.03,0-.04,0-.03,.03,.03,.06,.08,.02,.13,0-.01,.08-.04,.11-.09,.18,.02,0,.04,0,.06,.01,0,.07-.09,.1-.11,.18,0,0,.01,0,.01,0-.03,.09,.1,.1,.12,.15,.02,.05,.03,.1-.02,.15-.03,.03-.14,.08-.18,.09-.02,0-.12,.04-.13,.05-.02,.02-.1,.11-.13,.1-.09-.02-.12-.16-.21-.11,.04,.04,.04,.08,.08,.1,.01,0,.04,.05,.04,.06,0,.02-.14,.05-.16,.04-.11-.07-.11-.08-.24-.07-.01,.05,.04,.07,0,.13-.02,.04-.06,.13-.11,.14,0-.01-.12-.11-.16-.1,0,0-.19-.04-.21-.06,0,.03-.09,.09,0,.07-.02,.05-.15,.05-.19,.07,.18,0,.37-.01,.55,.04-.02,.02-.04,.04-.06,.05-.06,.04-.02,.07-.05,.13-.04,.06-.14,.05-.18,.11-.01-.12-.22-.05-.27-.02-.05,.04-.02,.12-.09,.17-.09,.06-.07-.02-.11,.1,.13,0-.05,.2-.15,.15-.06-.03-.09-.01-.08,.03,.01,.07-.07,0-.09,.04,.03,0,.04,.02,.04,.04-.03,0-.06,0-.09,0-.04,0,0,.07-.06,.05-.04,0-.06,.1-.1,.12-.02,.01-.04,.01-.06,0-.03,0-.03,.05-.04,.06-.02,.01-.22,.18-.14,.16-.01,.04-.06,.02-.08,.03-.05,.01-.03,.09-.08,.11-.11,.05-.1,.18-.19,.24,.09,0-.06,.26,.13,.22,.14-.03,.19,0,.21,.1,.04,.15,.03,.29,.04,.43,.07-.04,.17-.06,.25-.07,.05,0,.22,.08,.29,.12,.16,.1,.33,.08,.31,.33,.04,0,.12-.03,.14,.02,.02,.04,.1,.08,.14,.08,.09,0,.19,.05,.26,.12,.09,.08,.59-.07,.57,.16,0,.06-.02,.1-.04,.15-.02,.06,.01,.07,.03,.13,.02,.06-.02,.17-.03,.24,0,.13,.05,.17,.13,.26,.04,.05,.09,.1,.14,.16,.02,.02,.04,.05,.04,.08,.01,.07,.06,.04,.13,.04,.07,0,.08,.02,.1-.03,.02-.05,.12-.1,.12-.01,.04,0,0-.05,.03-.05-.01-.07,0-.08,.02-.14,.01-.03,.04-.08,.06-.11-.08-.07-.04-.22-.05-.34,0-.07-.03-.14-.1-.16,0-.16,0-.19,.13-.27,.08-.05,.26-.12,.3-.22,0-.03,.03-.06,.06-.08,.04-.03,.04-.1,.08-.11,.1-.03,.09-.04,.05-.14-.03,0-.02,.07-.02,.09-.12,0,.02-.24,.03-.27-.07,0-.17-.2-.19-.26-.02-.05-.02-.13-.08-.16-.05-.02-.1-.1-.14-.11-.09-.01-.04-.11,0-.14,.04-.04,.16-.03,.15-.11-.02-.07,.09-.06,.09-.16-.07,0-.05,0-.05-.06,0-.04-.01-.07-.02-.11,0-.11,.01-.03-.05-.1,.04,0,.1-.16,.09-.19,.12,0-.15-.13,0-.17,.14-.04,.26,.01,.41,0,.06,0,.13-.02,.19-.03,.04-.01,.08-.06,.13-.06,.05,0,.23,.06,.22,.11,0,.06,.06,.02,.09,.06,0,.02,.02,.04,.02,.07,.02,0,.04,0,.05,.01,.03,.08,.21,.05,.29,.05,0,.04-.04,.02-.05,.05-.03,.07,.1,.03,.14,.06,0,0,.07-.07,.07-.01,0,.04-.06,.1-.07,.14,.09,0,.02,.05,0,.06-.04,.03,.04,.27,.05,.28,.11,.08,.3,.04,.33,.22,.08-.1,.11-.04,.18,.07,.03-.02,.06-.05,.08-.06,.06-.03,.02-.03,.06-.1,.02-.02,.05-.03,.08-.03-.01-.03,0-.05,0-.08,.06-.09,.07-.08,.05-.18,0,0,.03-.11,.04-.11,.06-.07,0-.11,.11-.14,0,.14,.13,.3,.16,.42,.02,0,.18-.04,.13,.08,.16-.01,0,.13,0,.14,.01,.05,.05,0,.07,0,.06,0,.14,.08,.06,.09,.01,.05,.07,0,.06,.07,.05,0,.13,.02,.15,.08,.02,.05-.05,.1-.05,.11,0,0,.17,.05,.2,.06,.15,.11-.09,.11-.16,.1,.01,.05,.03,.04,.07,.04,0,.04-.02,.07,0,.1,.02,0,.05-.02,.07-.02,0,.09,.21,.17,.31,.2,.07,.02,.02,.13,.11,.16,.04,.01,.07,.01,.11,0,0,0,.03,.06,.05,.06-.02-.08,.11-.06,.13-.02,.04,.07,.23,.17,.19,0,.07,0,.03,.16,.15,.09,.04,.13-.21,.13-.24,.2,0,.03-.1,.06-.13,.09-.08,.07-.11,.05-.21,.07,.06,.19,.1,.07,.2,0,.03-.02,.08-.04,.11-.05,.04-.02,.03-.08,.09-.08,0-.03,.09-.03,.1-.04,.05-.03,.01-.07,.11-.05,.06,.01,.12,.07,.18,.07,.06,0,.05,.1,.11,.1-.05-.19,.24,.11,.09,.08,.03,.05,.06,.1,.09,.15-.05,0-.04,.05-.04,.08-.04,0-.03,0-.06,.04-.04,.05-.26,.12-.26,.13,0,.04-.1,.02-.12,.01,0,.04-.03,.09-.05,.12-.07,.09-.01,.15-.13,.22,0-.01-.05-.07-.02,.07-.03,.04-.06,.06-.1,.05-.07-.01-.03,.02-.08,.05-.05,.03-.07-.04-.12-.02-.02,0-.02,.06-.04,.06-.07,0-.09,0-.14-.04-.07-.04-.11,.04-.22,0-.02,0-.22,.03-.24,.05-.04,.03-.08,.03-.12,0-.06,0-.09,.03-.15,.04-.08,.02-.17,0-.26,0-.07,0-.19,.05-.2,.1,0,0-.04,.12-.05,.14-.06,.07-.13,.09-.2,.15-.03,.02-.01,.06-.03,.08,0,0-.09,.03-.09,.03,0,.04-.06,.07-.09,.1-.05,.08-.08,.1-.17,.1,0,.04,.04,.03,.07,.04,.04,.03-.02,.13-.04,.16-.03,.06-.11,.12-.11,.21,.07-.07,.11-.1,.15-.19,.03-.08,0-.1,.09-.12,.06-.01,.09-.03,.07-.09,.05-.08,.18-.09,.22-.17,.02-.05,.14-.12,.21-.15,.1-.05,.21-.11,.32-.14,.07,.07,.18,0,.26,.05,.03,.02,.07,.05,.1,.07-.02,.04-.02,.04-.06,.02,0,.04,.03,.19,.03,.19-.04,0-.1-.02-.11,.04,0,.03,.02,.11-.04,.1-.09-.02-.06,.06-.15-.02-.11-.09,0,.08,0,.1-.08,0,.01,.09,.08,.04,.09-.08,.16-.08,.22,0-.07,0-.04,.09-.02,.13-.06,0-.06,.03-.08,.07,.06,0,.11-.01,.16-.03,0,.06,0,.05-.03,.1,0,.01,.01,.1,.01,.14,.06,0,.05,.05,.08,.05,.06,0,.09,.02,.17,0,0,.06-.02,.1-.06,.09,.04,.06,.06,.03,.13,.02,.01,0,.15,.05,.17,.06,.07,.13,.24-.27,.24,0,.05,0,.08,0,.1,.04-.05,0-.07,.03-.08,.08,0,.05-.15,.1-.19,.13-.06,.04-.12,.05-.18,.09-.06,.03-.01,.06-.04,.11-.02-.02-.06-.07-.1-.07-.04,0,0,.06-.07,.04,.01,.08,0,.11,.03,.19-.11-.02-.12,.05-.2,.12,0,0-.01-.07-.01-.07-.1,0-.04,.07-.17,0-.08-.04-.1-.02-.16-.07-.07-.07,.1-.24,.17-.25-.01,0,.25-.28,.27-.18,.03,.14,.18-.08,.23-.1-.01-.07-.36,.05-.39,.06-.02-.04,.07-.1,.03-.17,.15-.01-.03-.07-.07-.08,0,.06,.02,.13-.04,.17-.06,.04-.06,.1-.13,.13,0-.04,0-.03-.04-.03,0-.03,.02-.06,.03-.09-.03,0-.13,.07-.09,.1,0,0,.11,.05,.04,.05,0,.05-.26,0-.29,0,.03,.06,.06,.12,.08,.18-.17,.01-.09,.21-.28,.07,.04,.07-.05-.02,0,.07-.09,0-.06,.01-.09-.08-.05,0-.06,.16-.06,.19-.03,0-.07,0-.1-.01,.01,.11-.03,.02-.08,.02-.04,.04-.07,.02-.12,.01-.01,.05-.09,.14,0,.14-.03,.08-.06,.05-.08,.12-.07,.06,0,.08-.02,.15-.2,.08,.03,.13,.12,.2-.07,0-.09,.06-.16,.05-.07,0-.01-.04-.06-.06-.08-.02-.07,.06-.11,.06,.02,.02,.03,.04,.04,.07-.03,0-.04,.03-.1,0-.07-.04-.2,.07-.28,.08-.07,0-.28,.14-.28,.24-.1,0,0,.06,.02,.07,.05,.05,.01,.15-.02,.2-.04,.06-.08,.08-.11,.15-.07,.14-.19,.06-.31,.03,0,.06-.02,.13,.05,.16,.05,0,.05,.03,.02,.08-.04,.1,.04,.05,.01,.11,0,.01-.04,.06-.05,.06,.03,.13-.04,.1-.14,.15,0-.04,0-.07,0-.11-.06,0-.14,.08-.15,0-.02-.11-.06-.2,.06-.28,0,0-.07-.09,0-.07,.05-.08,.1-.09,.12-.18-.08,0-.06,.04-.14,.06-.07,.02-.14,.04-.13,.12,.02,.11-.09,.21-.07,.33-.02,0-.04,0-.06,.02,.06,.06,.2,.11,.09,.15,.02,0,.11,.1,.12,.13-.03,0-.17,0-.17,.04,.04,.02,.06,.04,.07,.09,.05,.04,.13,.05,.19,.06-.02,.09,0,.07,.03,.14-.05,0-.17,.06-.17,.09,0,.04,.11,.03,.14,.04,.09,.03-.03,.07,.1,.07,0,.07-.12,.06-.14,.06-.06,0-.01-.03-.05-.04-.03-.02-.11,.03-.15,.02,0,.04,.09,.08,.11,.12-.02,0-.03,0-.04,.01-.02,.05-.06,.03-.11,.03,.04,.07,.1,.09,.02,.14-.07,.05-.08,.05-.13,.13-.07,.11-.16,.1-.26,.17-.05,.03-.11,.03-.15,.06-.04,.03-.01,.13-.07,.13-.08,0-.05,.05-.11,.1-.03,.02-.06,.04-.09,.04-.09,0-.05,.03-.11,.08-.02,.02-.05,.04-.08,.05,0,.02,0,.05,0,.07-.03,.02-.07,.04-.1,.05,.03,.03,.03,.06,0,.07-.02,.03-.09,.21-.08,.24,0,.08-.06,.1-.06,.16,0,.04,.03,.06,.07,.06-.02,.04,0,.06,.02,.07,.02,.04-.01,.27,.07,.27,0,.04,.03,.09,.03,.14,0,.07,.09,.09,.07,.17-.02,.03,.11,.29,.14,.33,.04,.05,.05,.18,.02,.22-.06,.09,.01,.17-.08,.25,0,.08-.03,.21-.11,.1-.09-.11-.23-.16-.23-.31-.09,0-.04-.15-.16-.16-.2-.02-.01-.29,0-.36-.06,0-.12,.09-.17,.08-.05,0-.03-.17-.01-.2,.03-.04,.03-.21,0-.27-.04-.07-.14-.05-.17-.15-.06-.18-.3,0-.42,0-.06,0-.13-.11-.17-.13-.08-.04-.22,0-.19-.13-.04,0-.09-.01-.13-.02-.01,.02-.03,.04-.06,.05-.07,0-.04-.06-.09-.07-.01,0-.18,.21-.2,.09-.02-.17-.05-.02-.11,0-.06,.02-.16-.07-.25-.05-.05,.01-.08,.02-.1,.08-.07,0-.14,0-.21,.01,.06,.03,.07,.06,.14,.05,.02,0,.15,.07,.18,.11-.04,.01-.08,.03-.11,.07,.02,.02,.1,.03,.11,.07,.01,.07-.01,.09-.08,.09,0-.12-.03-.06-.13-.09,0-.07,0-.05-.07-.08-.06-.02-.1-.07-.14-.02-.05,.06-.07,.08-.03,.16-.06-.01-.07,.01-.12,.02-.06,.01-.12-.04-.18-.04,0-.08,.07-.07,.07-.13-.06,.03-.19,.06-.24,0-.04-.06-.04-.06-.13-.03-.02,.01-.1-.02-.13-.03-.07-.02-.06-.05-.14-.02-.05,.02-.07,.01-.11-.02,0,.06-.12,.11-.17,.13-.04,.01-.12-.04-.17-.06,0,.09,0,.09-.07,.14-.04,.03-.02,.08-.05,.11,0,0-.07,.02-.09,.03-.04,.04-.08,0-.13,0-.07,.01-.09,.11-.11,.13-.09,.06-.19,.03-.25,.13-.03,.05-.05,.1-.08,.15-.03,.04-.05-.01-.09,.05,.08,0-.03,.23,.05,.23,0,.05,.02,.08,.03,.13,.02,0,.04,.02,.05,.03,.02,.05-.02,.05-.04,.1,.09,0,.05,.07,.03,.12-.05,.1-.1,.08-.16,.15-.02,.03-.04,.05-.07,.07,0,.03,.02,.09,.01,.11-.04,.07,.01,.17,0,.26-.02,.03-.02,.06,0,.09,.05,.05,.03,.09,.03,.16,.05,0,.02,.11,.02,.14-.01,.05-.04,.11-.05,.16,0,.12-.01,.15-.04,.26,.03,0,.05-.02,.07-.04-.01,.04,.09,.12,.09,.18-.02,0,.11,.23,.11,.22,.07,0,.05,.06,.1,.11,.02,.01,.1,.04,.1,.05,.02,.12,.1,.36,.23,.35,.06,0,.18,.02,.23,.08,.04,.04,.04,.12,.11,.12,.08,0,.16,0,.23,0,0-.06,.06-.04,.12-.05,.13,0,.03,0,.11-.06,.03-.03,.08-.05,.12-.06,.09-.03-.05,.03,.1,0,.11-.03,.05-.01,.11,.04,.04,.03,.13-.02,.16-.06,.03-.04,.17-.12,.17-.16,0-.07,0-.14,.06-.18,.05-.03,.07-.17,.09-.23,.02-.09,.03-.17,.12-.21,.03-.01,.11,.01,.13-.02,.01-.03,.22-.12,.25-.13,.16-.06,.4-.1,.48,.07,.03,.06,0,.15-.03,.19-.01,.02-.09,.22-.1,.22-.04,.02-.04,.24-.05,.3-.03,.13-.06,.2-.03,.33-.06,0-.07-.04-.14-.06,.02-.04,.02-.08,.02-.12-.04,0-.07,.1-.08,.13-.02,.06,.05,.04,.05,.11,0,.05,.02,.07,.02,.12-.01,.1-.1,.14-.03,.25-.07,0-.03,.13-.07,.17-.04,.04-.05,.03-.05,.09-.05,0-.09,.07-.09,.12,.05,0,.08-.03,.13-.03,.05,0,.06,.03,.1,.03,.12-.03,.26-.02,.38,0,.08-.09,.2-.04,.29-.08,.1-.04,.14,0,.25,0,.12,0,.18,.02,.29,.06,.08,.03,.03,.1,.07,.14,.05,.06,.26,0,.25,.14,0,.05,.04,.09,.04,.14-.11,0-.15,.35-.14,.44,0,.04,.01,.08,.02,.11-.05,0-.06,.08-.06,.11,0,.12,.06,.2-.02,.32,.09,0,.11,.25,.15,.24,0,.08,.21,.22,.28,.26,.03,.02,.06,.08,.07,.11-.03,.11,.18,.15,.18,.08,.03,.01,.19,.05,.2,.08,0,.01,.21-.1,.22-.11,.1-.06,.21-.02,.27-.12,.03-.06,.16-.01,.2,0,0,.09,.01,.18,0,.27-.03-.05-.09-.08-.14-.11,0,.04-.06,.06-.08,.07-.05,.02-.02,.04-.05,.08-.05,.03-.04,.05-.09,.05-.05,0-.1,.04-.1,.1,.08,0,.13,.06,.15,.14-.06,.02-.17,.15-.25,.07-.02-.03-.02-.11-.06-.12-.07-.02-.11,.01-.17-.05-.1-.09-.17-.06-.29-.1-.06-.02-.1,.04-.15,.03-.09-.01-.06-.14-.15-.17,0,.05,0,.09,0,.14-.04,.02-.04-.05-.06-.06-.09-.06,.04-.13-.02-.19-.12-.11-.23-.1-.32-.25-.1-.16-.11,.23-.23,.07-.08-.1-.17-.08-.14-.24,.11-.03-.02-.11,.04-.14-.03,0-.05-.08-.07-.11-.06-.08-.21-.17-.23-.28-.02-.09-.08-.15-.18-.21-.04-.02-.1-.03-.07-.1,0-.02,.01-.12,.04-.13-.08,0-.2,.09-.25,.06-.06-.04-.17-.03-.24-.05-.08-.02-.15,.01-.24,0-.09-.02-.02-.04-.09-.07-.03-.02-.07-.02-.11-.05-.05-.04-.14-.07-.2-.06-.11,0-.09-.06-.15-.1-.08-.06-.17-.1-.24-.17-.05-.05-.11-.06-.15-.11,0-.02,0-.04,0-.06,0-.02-.08-.07-.09-.09-.06-.06-.15-.06-.22-.12-.05-.05-.44-.1-.44-.03-.05,0-.33,0-.33,.07-.09-.01-.19,0-.25-.08-.12,.03-.24-.02-.36-.01,.01-.04-.19-.17-.23-.18-.05,0-.09,0-.13,0-.05,0-.17-.04-.24-.06-.09-.03-.15-.09-.23-.12-.1-.04-.24-.22-.33-.22-.04,0-.06-.02-.09-.02-.02,0-.18-.02-.19-.06-.01-.03-.03-.05-.06-.06-.05-.04-.03-.07-.08-.11-.04-.04-.15-.08-.16-.14-.01-.06-.17-.12-.23-.19-.11-.13-.18-.23-.09-.39-.08,0,.03-.14,.04-.2,.02-.09-.03-.21-.05-.29-.03-.1-.08-.18-.13-.26-.04-.05-.04-.15-.08-.19-.05-.05-.08-.12-.13-.18-.03-.03,.02-.07-.01-.09-.04-.03-.09-.07-.12-.11-.07-.08-.06-.2-.14-.28-.08-.08-.15-.16-.24-.21,0-.06,.09-.18,.11-.23-.07,0-.27-.23-.31-.33,.04,0,.03-.11,0-.12-.15-.01-.08-.12-.16-.21-.08-.09-.09-.1-.07-.21-.1,0-.09-.12-.12-.2-.05-.12-.1-.24-.11-.37,0-.09,.03-.12-.02-.19-.05-.07-.09-.18-.16-.05-.07-.05-.13-.09-.21-.11-.03,.16-.04,.23,.03,.38,.02,.03,.01,.11,0,.13,.02,0,.04,.08,.04,.1,0,.05,.07,.11,.1,.15,.04,.03,.04,.06,0,.1-.04,.1,0,.04,.05,.09,.09,.12-.01,.29,.12,.39,0,.07,.05,.07,.06,.13,0,.04-.02,.08-.02,.13,0,.03,.06,.05,.08,.09,.01,.05,.05,.12,.05,.15,0,.08,.03,.18,.07,.24,.04,.05,.01,.1,0,.15-.01,.05,.11,.14,.02,.18-.03,.02,.21,.27,.22,.3,.01,.03,.05,.14,0,.16-.03,.02-.06,.08-.09,.07-.06,0-.07-.17-.08-.24-.07-.04-.13-.13-.17-.19-.03-.04-.06-.15-.11-.16-.13-.03-.03-.29-.07-.29,.01-.11-.04-.19-.06-.29-.03-.15-.3-.13-.28-.26-.08,0-.21-.2-.23-.27,.06,0,.12,0,.18,.02,0-.01,.08-.22,.07-.22,0-.11,.02-.3-.06-.39-.12-.13-.23-.21-.25-.41-.01-.16-.14-.35-.11-.49,.02-.08,.03-.17,0-.24-.03-.07-.1-.26-.2-.21,.04-.16-.24-.25-.34-.26,.03-.13,.05-.14,.02-.26-.02-.08,0-.11-.06-.18,0-.05-.02-.1-.02-.15,0-.08-.05-.12,0-.2-.02-.05,0-.11-.02-.15-.03-.08,.06-.2,.12-.28,0,0-.08-.06-.09-.01,.03,0-.02,.07-.09,.04,.04-.11,.02-.15,0-.26,0-.04,.05-.35,.02-.36,.02-.05-.02-.1,0-.15,.02-.06,.07-.04,.09-.1,.02-.06,.03-.13,.07-.18,.04-.05,.02-.13,.05-.16,.09-.12,.05-.28,.12-.43,.07-.17,.17-.36,.28-.5,.06-.08,.11-.22,.14-.31,.01-.03,.03-.13,.08-.13,.02-.04,0-.08,.04-.15,.03,.04,.05,.03,.06-.04,.04-.05,.04-.07-.01-.06,.02-.03,.03-.05,.05-.08-.05,0,0-.09,0-.11,.02-.1-.01-.15,.03-.24,.03-.08,.05-.07,.09-.02,.01,.01,.07,.03,.1,.04-.27,.55-.52,1.11-.75,1.68,.2-.48,.41-.95,.65-1.4,.02-.05,.11-.27,.16-.27,.02,0,.12,0,.12-.01,.04,.06-.04,.07-.05,.11,0,.03,0,.07-.02,.11,0,0,.26-.24,.09-.21,.05-.04,.01-.11,.07-.16,.05-.04,.02-.13,.05-.18-.07,0-.05-.12-.02-.21-.04,.05-.08,.08-.12,.09,0,0,.05-.08,.07-.11-.03,0-.02-.01,0-.04,0,0-.15,0-.11-.07,.01-.02,.03-.1,0-.12-.04,.02-.2,.06-.24,.04,.01-.03,.04-.07,.05-.1-.06-.02-.09-.02-.19,0,.05-.08,.08-.16,.16-.18,0,0,0-.07,.01-.09,.03-.04,.1-.06,.02-.07,.02-.02,.04-.04,.06-.06-.1-.02,0-.16,.02-.18-.03,0-.1,.1-.09-.02,0-.04,.06-.12,.08-.04,0-.03,.01-.06,.02-.08,.02-.04,.06-.06,.08-.1-.1-.02-.1,.09-.17,.1,.02-.04,0-.12,.02-.17,0-.02,.03-.04,.05-.03,.02-.03,0-.06,.03-.09,.05-.06,0-.09,.07-.15,.05-.06,.14-.11,.21-.14-.06-.07-.12,.1-.2,.05,.02-.03,.05-.13,.07-.13,.08,0,.11-.1,.12-.18-.03,.04-.05,.09-.08,.13,0-.03-.04-.01-.05,0,.02-.04,.04-.12,.08-.14,0,0,.08-.05,.08-.05,.01-.06-.14,.06-.16,.06,.06-.08,.12-.13,.15-.21,0,0,0,0,0,0h0s0-.03,0-.05c0-.09,0-.1,.07-.18-.06-.01,.13-.3,.16-.34-.12,.02,.06-.06,0-.08-.11-.03,.02-.14,.05-.19-.03,0-.17,.19-.18,.19-.01-.01,.02-.05,.03-.06-.06-.01-.11,.05-.17,.04,.01,.08,.12,.03,.05,.14-.03,.04-.03,.09-.06,.12-.07,.02-.03-.02-.06-.06-.02,.02-.04,.04-.06,.05,.02-.08,0-.1,.06-.17,.04-.05,.08-.18,.01-.18,.07-.12,.09-.2,.2-.31-.05-.01-.06,.02-.1,.04-.03-.05,.03-.07-.04-.07,.02-.07,.1-.1,.14-.15-.05-.01-.07,.06-.13,.02-.06-.03,0-.1-.07-.09,.05-.05-.05-.06-.12-.04,.02-.02-.03-.06,0-.09,.02-.04,0-.07,.05-.13-.03,0-.05,.03-.09,0,.04-.05,.15-.11,.07-.14,.01-.01,.07,0,.06-.04,0-.03,.06-.07,.07-.07-.03-.01-.1,.03-.13,.02,.04-.04-.04-.02-.06,0-.02,.02-.11,.09-.05,.1-.05,.04-.2,.21-.24,.12-.03,.02-.08,.05,0-.02-.03-.01-.15,.13-.1,.05-.06,.03-.29,.2-.35,.14,.06-.05,.1-.06,.16-.1-.02,0,.03-.01-.02,0,.04-.04,.44-.43,.5-.37,0,0,.02,.07,.06,0,.04-.06,.09-.07,.14-.11-.04-.02-.08,.03-.12,.02,.02-.02,.03-.03,.05-.05-.1-.05-.48,.35-.53,.27-.03,.03-.47,.28-.39,.32-.11,.1-.26,.15-.37,.23-.07,.05-.15,.1-.23,.14-.09,.04-.15,.13-.25,.15,.03-.03-.03,.02-.04,.02-.06,.04-.14,.07-.19,.13-.04,.05-.04,.02-.09,.05-.04,.03-.11,.11-.07,.02-.06,.03-.1,.03-.14,.07-.03-.03,.04-.07,.05-.08-.03-.03-.21,.15-.24,.17,.05-.07-.02-.02-.05,0,.05-.05,.12-.08,.17-.12,.04-.04,.25-.14,.17-.07,.03,.03,.58-.36,.64-.41,.15-.13,.33-.24,.47-.38-.05,.02-.1,.06-.15,.04,.02-.02,.05-.04,.07-.06-.01,0-.06,.03-.07,.04,.04-.04-.05,.05-.07,.05,.03-.04,.17-.16,.08-.14,.02-.02,.04-.04,.06-.06-.08,.02-.14,.08-.22,.1,.17-.14,.36-.34,.55-.51,0,0-.01,0,0,0-.05,.04-.16,.18-.24,.15,.07-.08,.14-.16,.23-.21,.03-.02,.16-.1,.12-.11,.02-.03,.06-.11,.06-.11,.01-.06,.13-.12,.18-.15,.05-.03,.1-.06,.16-.09,.01,0,.15-.08,.11-.05,.07-.05,.21-.15,.23-.15-.02,.02-.05,.04-.07,.07,.02,.03,.24-.06,.28-.08,.1-.07,.31-.19,.35-.29-.04,.03-.09,.02-.13,.03,.04-.03,.07-.06,.1-.09,0,0-.13,.03-.14,.01,.02-.03,.04-.06,.07-.09-.56,.39-1.11,.8-1.63,1.25-1.24,1.07-2.36,2.29-3.28,3.65-.46,.69-.91,1.39-1.29,2.13-.38,.76-.72,1.54-1.01,2.33-.29,.81-.48,1.64-.69,2.48-.05,.21-.07,.43-.11,.64-.07,.42-.15,.83-.2,1.25-.2,1.72-.13,3.46,.13,5.16,.13,.87,.33,1.73,.6,2.57,.15,.48,.3,.96,.49,1.42,.19,.49,.41,.98,.65,1.45,.8,1.6,1.81,3.09,3.01,4.42,1.14,1.26,2.47,2.39,3.91,3.3,.87,.55,1.77,1.03,2.71,1.44,.77,.34,1.56,.6,2.37,.84,1.04,.31,2.12,.5,3.2,.62,1.73,.19,3.49,.13,5.2-.15,.89-.15,1.78-.36,2.65-.63,.75-.24,1.48-.53,2.2-.86,1.53-.69,2.97-1.59,4.27-2.67,1.5-1.25,2.82-2.72,3.89-4.35,.35-.54,.64-1.1,.95-1.67,.29-.55,.56-1.1,.78-1.69Zm-1.31-16.55s.02,.02,.02,.03c.05-.07,.03-.08,.05-.15,.04,.06,.24,.38,.2,.43-.05-.07-.36-.14-.32-.3,.03,.03,.05,0,.06,0Zm-1.01,.12c-.04-.06-.13-.17-.11-.24,.02,.03,.21,.19,.11,.24Zm.17-.85c.14,.13,.21,.26,.31,.42,.04,.05,.13,.19,.08,.25,0-.01-.12-.12-.15-.16-.03-.05-.07-.11-.1-.16,0-.02-.1-.1-.1-.12,0-.01-.08-.22-.04-.23Zm-.03-.04c-.12,0-.21-.19-.27-.28-.02-.03-.03-.21-.06-.22,.14,.08,.26,.37,.33,.5Zm-18.78-5.78s-.02,0,0-.02c0,.01,0,0,0,.02Zm.58,2.14c-.03,.07-.08,.04-.13,.04,.02-.12,.16-.06,.2-.12,.02-.03,.15-.11,.19-.13-.01,.1-.14,.18-.26,.2Zm.18,2.92c-.15-.06,.18-.17,.17,.04-.06,0-.11-.02-.17-.04Zm.24-3.27c-.09,.05-.13,0-.25,0-.03-.08-.11-.02-.04-.1,.04-.05,0-.05,0-.11-.09,.01-.16,.04-.18,.14-.01,.07-.05,.11-.07,.17-.02,.1-.25,.09-.13-.08-.04,0-.16,.06-.17,.02,.02-.09,.04-.11,.16-.17,.08-.04,0-.13,.05-.2,.04-.06,.01-.15,.07-.19,.05-.04,.04,.01,.09,0-.04,.09-.09,.03-.04,.13,.17-.14,.37,.17,.35,.33,.06,0,.1-.11,.18-.06,.02,.01-.03,.11-.03,.13Zm3.77,4.03c-.08-.03-.08,.03-.1-.08,.09,0,.18,.04,.27,.06,.04,0,.09,0,.13,0,0,.03,.03,.05,.05,.06,.07,.04,.15,.06,.21,.1,.03,.14-.33-.01-.4-.03-.04,0-.03-.02-.04-.05-.03,0-.09-.05-.12-.06Zm.51,1.1s.03-.03,.03-.05c-.08,0-.26,.15-.33,0-.03-.07-.09,0-.09-.09,0-.02,.05-.09,.08-.1,0,.05,0,.09-.02,.14,.04,0,.07,0,.08,.04,0,0,.11-.03,.1-.04,.06,.03,.02,.05,.11,.04,.02,0,.14-.04,.15,0-.09,0,.02,.07,.05,.08-.04,.08-.12,.07-.15,0Zm-13.31-3.99s.12-.22,.13-.11c0,.08-.07,.08-.08,.14-.02,.09-.1,.12-.17,.17,0,0,.11-.19,.13-.21Zm-.16,.07s0,.12-.02,.17c-.02,.04-.09,.1,0,.06-.03,.03-.04,.06-.02,.09,.04-.06,.05-.16,.15-.17-.02,.04,0,.16-.08,.15-.04,.05-.04,.1-.08,.03-.02,.03-.06,.13-.12,.12,.03-.04,.04-.07,.08-.1-.06-.01-.01-.04,.01-.08,0,0-.07,.05-.05,.05-.01,.02-.03,.02-.05,.02,.05-.14,.07-.23,.18-.36Zm-.12,.73c-.09-.02,.02-.02-.05-.04,.03-.03,.06-.07,.08-.1-.14,.02,.07-.06-.05-.09,.03-.03,.06-.06,.09-.1,0,.02,.02,.03,.04,.04-.05,.06,0,.06-.01,.11-.03,.07-.08,.14,.01,.15-.04,.04-.08,.08-.11,.13,.03,0,.03-.03,.06-.02-.05,.05-.06,.14-.14,.12,.02-.04,.04-.08,.06-.12-.08,.02,0-.05,.01-.08Zm-.25,1.57s.15,.03,.17,.05c.05,.03-.01,.12,.04,.16-.01,.02-.06,.07-.02,.09,.04,.03,.11,.06,.12,.11,.01,.04,0,.06,.04,.09-.05,.05,.02,.13,0,.19-.03,.08-.11,.02-.11,0-.03,0-.18-.02-.18-.07,0-.04-.02-.01-.02-.06,0-.05,.02-.06,.04-.12-.09,.01-.03,0-.09-.03,.01-.02,.03-.04,.05-.06-.08-.03-.03-.07-.15-.04,.01-.01,.06-.09,.08-.12-.05-.04-.08,0-.12-.01-.02,0,0-.05,0-.06-.03,0-.05,.04-.09,.04,.05-.08,.02-.28,.15-.27-.02,.04,.11,.1,.09,.12Zm-.19-1.14s.09-.05,.05,0c.04,0,.09-.02,.14-.02-.08,.1-.18,.27-.32,.26,.01-.02,.03-.04,.05-.06-.03,0,.06-.15,.08-.18Zm.01,.22s-.05,.15-.06,.17c.04,.01-.06,.13-.08,.17-.02-.02-.02-.04,0-.07-.09-.06,.04-.3,.14-.28Zm-.91-1.86s-.07,.05-.11,.08c0,0,0,0,0,0-.02,.02-.03,.04-.06,.03,0,0,0,0,.01-.01-.02,.01-.04,.02-.05,0,.03-.03,.04-.04,.04-.08-.02,.02-.04,.03-.06,.03,.04-.05,.15-.22,.16-.12,.04-.04,.08-.08,.12-.12,0,.02,0,.04-.02,.05,0,0,.02,0,.03,0,0,0,0,.02,0,.02,.02-.02,.04-.03,.06-.05,.01,.05-.08,.07,0,.06,0,0-.03,0-.02,.02-.04,.05-.05,.08-.09,.11,0-.01-.02-.02-.02-.03Zm23.6-1.56s.01,.01,.02,.02c0,0-.06-.03-.02-.02Zm-.12-.1s-.02,.01,0,0h0Zm-.47,.81c.02,.07,.08,.11,.13,.16-.06,.02,.01,.03-.01,.07-.06-.07-.11-.12-.17-.18,.02,.01-.08-.18,.06-.06Zm-2.26-3.09s-.04-.04-.04-.04c.09,.04,.17,.09,.25,.14-.03,0-.05-.01,.03,.02-.02,.02-.12-.07-.05,0-.09-.05-.18-.11-.28-.15,.02-.02,.07,.04,.09,.04Zm-1.71,1.59c.07,.05,.14,.08,.22,.09-.05-.04-.14-.06-.18-.11,.01,0,.03,0,.04,0-.04-.04,.07,0,.09,0,.04,.02,.08,.03,.11,.06,.04,.05,.14,.14,.2,.14-.03-.03-.02-.04-.07-.09,.02-.03,.05,0,.07,0-.05-.05-.11-.09-.16-.14,.03-.02,.17,.05,.17,.06,0-.01-.09-.13-.05-.14,.03-.01,.15,.1,.2,.1-.04-.03-.08-.06-.12-.09,.04,0,.08,.02,.11,.03-.01-.02,0-.03,.02-.03-.02-.01-.03-.02-.02-.04,0,0,.08,.01,.07,0-.02-.04-.06-.06-.09-.08,.07-.05,.13,.05,.2,.04,0,0,0-.06,0-.05-.01,.01,.17,.16,.21,.19,.07-.1,.27,.09,.33,.14-.03,0-.05,0-.08,0,.02,.01,.03,.03,.05,.05-.05,.02,.03,.07,.06,.1-.04,0-.01,.04,0,.05-.02,0-.04,.03-.05,.05,0,0,.02,.07,.01,.08-.02,0-.05-.01-.07-.02,.01,.02,.03,.03,.04,.05-.05,.03-.11,0-.16,0,.07,.06,.1,.06,.14,.14-.02,0-.04-.02-.06-.03,0,.06-.11,.09-.15,.05-.06,.04-.03-.01-.05-.04-.03-.04-.17-.04-.22-.04,0,0-.06,.06-.1,.06-.1-.02-.08-.06-.01-.07,0-.02-.01-.04-.02-.07-.03,0-.06,0-.08-.02,.02,0-.05-.03-.02,0-.03,0-.07-.04-.09-.05-.04,.02-.07,.02-.11,.01,.03,.02-.06,.02-.1-.02,.02-.01,.08-.05,.05-.08,.03,0,.07,.03,.09,0-.04-.04-.07-.03-.13-.08,.12,.02,0,0,.03,0-.02-.03-.05-.04-.08-.04-.01,.04-.01,.06-.06,.05,.04,.08-.04,.07-.09,.03,.01,0,.01,0,0-.01,.15,0-.06-.13-.09-.16,.13,0-.03-.01,.01-.06Zm.93,21.2c.06-.09,.28-.13,.17,.02,.07,0,.21,0,.24,0,0,.04,.02,.22-.01,.25-.04,.03-.08,.1-.11,.14-.04,.05-.12,.1-.18,.11-.05,0-.1,0-.15,0,.01,.04,0,.05-.04,.04-.05,0-.12-.05-.15-.1-.09-.17,.05-.21,.08-.35,.02,0,.21-.12,.15-.11Zm-2.94-22.73s.01-.07,.1-.03c.01,0,.12,.05,.09,.08,0,0-.04,0-.07,0,.06,.02,.14,0,.18,.06,.02,.03,.1,.04,.13,.06-.13,.03-.29-.06-.4-.12-.07-.04-.14-.07-.25-.07,.04,.03,.05,.05,.05,.09,0,.02-.15-.04-.15-.04-.04-.03-.02-.06-.03-.06,.04,0,.08,0,.12,0-.03-.02-.14-.09-.05-.09,.04,0,.1,0,.13,.02,.05,.02,.11,.02,.15,.05-.03,0,0,.03,0,.04Zm-.58-.62s.07,.03,.1,.05c-.06-.01,0,.02,0,.03-.02,0-.04,0-.06,0-.05-.02-.18-.06-.18-.11,.04,.02,.18,.11,.13,.03Zm-.29-.09s-.19-.07-.23-.09c.02,0,.04,.01,.07,.02,.05,.02,.11,.04,.16,.06Zm-.51-.92s.06,.02,.09,.03c0,0,0,0,.03,.02-.07-.01-.15-.03-.22-.04,.01,0,.03,0,.04,0-.02,0-.05-.01-.07-.02,0,0,.04,0,.04,0-.07-.03,.07,0,.09,.01Zm-1.82,.05s-.04-.01-.05-.01c.02,0,.03,0,.05,.01Zm-2.98,1.09s.21-.14,.21,.03c.06-.02,.06,0,.1,.01,0-.03,.06-.08,.08-.1-.07,0-.08,0-.11,.01-.02-.08,.02-.08,.05-.16-.03,.02-.18,.1-.14,.05-.02,0-.11,.06-.12,.04-.04-.08,.15-.15,.2-.16,.05-.01,.16,0,.22,.02,0-.01,0-.03,0-.04-.04,0-.09,0-.13-.01,.05-.04,.06,0,.07-.07-.01,0-.02,.01-.03,.02-.03-.02,.03-.07-.01-.09-.03,.07-.01,.16-.13,.16,0,0,0,0,0,0,0,0,0,0,0,0,0,0,0,0,0,0-.02,0-.05,0-.05,0-.02,.03-.15,.13-.06,0-.04,0-.18,.21-.21,.14,0,.01,0,.02,0,.03-.02,.02-.03-.03-.04-.04,.02,.01-.11,.05-.14,.04,0,0,.05-.1,.06-.11-.07,0,.15-.12,.15-.11-.06,0-.13,.02-.19,.03,.02-.06,.09-.02,.12-.07-.09,0-.1-.05-.04-.11,.04-.04,.09,.06,.12-.02-.04,.02-.05,.02-.01-.03-.04,0-.05,.02-.09,.01,.02-.02,.06-.04,.08-.06,.03-.02,.07-.03,.1-.02,.01-.02,.03-.04,.04-.07-.05,.04-.06,.02-.11,.03,.02-.02,.01-.07,.06-.06,.03,0,.03,.01,.02,.02,.03,0,.06-.03,.07-.06-.02,0-.04,0-.06,0,.03-.03,.11,0,.1,0,.09,0,.04,.06,.01,.11-.06,.1,.14,.07,.16,.03-.04,.07,0,.04,.02,0,.01,0-.04,.12-.05,.13,.03,.02,.09-.1,.12-.11,.01,0,.14-.02,.14-.02,.04,0,0,.11,.03,.13,.05,.04,.06-.01,.09,0,0-.04-.08,0-.08-.05,0-.05,0-.08,.06-.09,.03,0,.21,0,.22-.05-.03,0-.06,0-.09,0,0-.03,.11-.05,.13-.05,0-.02-.04-.01-.05-.02,.02-.02,.04-.03,.07-.04-.08,.02-.14,.08-.22,.08-.05,0-.2,.08-.16,0,0,0-.21,.15-.11,.02-.01,0-.1,.07-.07,.01-.04,0-.12,.01-.15,.03-.04-.03,.16-.09,.17-.11-.06,.02-.12,.04-.18,.06,.04-.05,.12-.04,.15-.08-.03,0-.06,0-.09,.01-.02-.03,.05-.02,.05-.04-.02,0-.04,0-.06,0,.01-.01,.11-.06,.1-.02,.05,0,.09-.06,.13-.08,0,.02-.01,.05,0,.07,.04-.07,.05,0,.04,.03,0,0,.08-.16,.04-.02,.01,0,.05-.07,.04-.08-.06,.03-.05,0-.09,0,.01-.02,.13-.1,.14-.09,0-.01,.05,.11,.05,.11,.02-.04,.01-.06,.03,.01,.01-.03,0-.08,.03-.11,.01,0,.06,.07,.07,.08,0,0,.01,0,.02-.01,0-.01-.08-.06-.02-.07-.01,.06,.04-.02,.04-.03,0,0,.06,.02,.07,.05,0-.05,.01-.15,.13-.05,0-.04,0-.04,.04-.05,0-.06,.06-.05,.1-.05,.09-.01-.01,.12,0,.13,0,0,.06-.11,.07-.12,.04,.02,.23,.07,.22,.12,0,.04-.04,.11-.09,.1,.02,.05-.05,.02-.03,.06,.03,0,.06-.02,.09-.05,.04,.07-.06,.1-.1,.11-.02,.04-.05,.14-.1,.08-.02,.05,0,.1-.08,.06,0,.03,.02,.02,.03,.05-.05,.01-.04,.04-.08,.03,0,.08-.08,.07-.15,.05,0,.04-.03,.02-.04-.02-.01,.02-.04,.03-.07,.02,.02,.05,.12,.01,.11,.07-.02,0-.11-.03-.11,0,.02,0,.08,.01,.07,.05-.02,0-.09,0-.13,0,.01,0,.03,.01,.03,.01-.02,.02-.03,.05-.05,.07,.06,0,.13-.09,.18-.05,.03,.03,.05,0,.06,.05,0,0-.09,.04-.08,.04,0,.01,.01,.03,.02,.04-.01,0-.08,0-.08,.02,.04,0-.04,0,.04,0-.03,.1-.16,0-.17,.09,0,.11-.15,.02-.18,.09,.07,0,.08,.06,.14,.07,.06,.01-.09,.17-.11,.08-.04,.05-.08,.1-.15,.11,0-.03,.04-.1,0-.12-.06,.03-.05-.01-.06-.06-.01,0,0,.06-.03,.08-.04,.03-.11,.02-.16,.02,0-.02,.02-.07,.02-.08-.03,.04-.05,.06-.09,.04,0,.02-.02,.12-.07,.12,.02-.07-.13,0-.09-.09-.02,.02-.03,.04-.04,.06-.02-.02-.03-.04-.02-.07-.01,0-.18,.16-.11,.03-.02,0-.07,.05-.08,.04,.02-.05,.03-.15,.11-.15,.07-.07,.22,0,.16-.12Zm.75,.92c.02,.06-.08,.04-.1,.08-.06,0-.06,.03-.11,.06-.06,.04-.09,0-.15,0-.05,.01-.11,.08-.13-.02-.02-.11,.09-.27,.2-.28,.07,0,.06,.04,.15,0,.02-.01,.07-.01,.07,0,.05,0,.05,.1,.07,.15Zm-1.08-.97c-.11,.13-.2,.05-.31,.06,.03-.07,.22-.06,.28-.08-.02,.02-.01,.03,.03,.02Zm-.29-.14s.08-.1,.12-.11c-.02,.05,.06,.06,.03,.11,.08-.02,0,.09-.01,.11-.02,.04-.06,0-.09,.04-.03,0-.06,.02-.09,.03,0,0,.05-.14,.07-.13-.02,0-.07,0-.03-.04Zm-.6-.13c.05,.08-.19,.1-.22,.1,0,0,.02-.02,0-.02,.02-.01,.2-.12,.22-.08Zm-.1,.56c-.06,.1-.18,.16-.3,.17,.03-.02,.06-.04,.09-.06,.02,0,.05-.02,.06-.03-.03,0-.07,0-.1,.01,.05-.04,.11-.03,.16-.07-.03,.01-.07,.01-.11,0,.05-.07,.14-.08,.21-.1-.03,.03-.04,.05-.08,.08,.02,0,.04,0,.06,0Zm-.12-.43s-.03,.02,.02,.02c-.08,.06-.15,.07-.22,.14-.06,.06-.18,.08-.26,.09,0,0,0-.05,0-.05,.06-.04,.11-.09,.18-.13,.05-.03,.25-.09,.3-.07Zm-.88,.7s-.1,.01-.09,.01c-.05,.03-.09,.05-.15,.08-.07,.03-.11,.04-.18,.04,.05-.05,.05-.1,.13-.12,.06-.02,.12-.04,.19-.04,0,.02,.21-.09,.23-.11-.02,0-.2,.1-.14,.02-.1,0-.15,.03-.22,.04,.05-.04,.1-.08,.15-.11,0-.02-.24,.15-.27,.15,.03-.02,.05-.04,.08-.06-.05,0-.06,.05-.11,.05,.09-.07,0-.04-.05-.02-.01-.08,.16-.08,.2-.11-.03,0-.06,0-.09,.01,.04-.07,.11-.03,.17-.07-.11-.01,.11-.08,.11-.08,.03,0,.05-.03,.08-.02,0,.01,0,.02-.01,.03,.02,0,.07-.01,.07,0-.02,.01-.03,.02-.02,.04,.06,0,.06,.04,.02,.09,.05,.01,.14,.05,.18,.01,.02-.02,.02-.03,0-.03,.08-.06,.22-.29,.35-.28-.07,.08-.09,.12-.13,.2,.03,0,.06-.02,.09-.03-.05,.05-.1,.08-.15,.13,.04,0,.06-.04,.09-.04-.02,.03-.05,.05-.07,.08,.02-.01,.19-.15,.2-.15,.04,.09-.23,.26-.28,.27-.03,0-.07,0-.08-.01-.02-.01-.13,.04-.16,.04,.09-.08-.1-.01-.15,0Zm-.28,.58c.07-.09,.13-.16,.21-.24,0,0,.02,0,.03,0-.02,.07-.03,.3-.16,.3,.03-.02-.05-.04-.08-.06Zm-.2-.75c.08-.06,.23-.15,.34-.17-.04,.03-.08,.06-.12,.08-.06,.03-.14,.11-.21,.08Zm-.04-.22c.1-.06,.26-.11,.37-.15,.07-.02,.37-.17,.44-.11-.02,0-.02,.01,0,.02,.08,0,.12-.07,.21-.08-.05,.04-.26,.25-.28,.17-.08,.06-.22,.17-.32,.16,.06-.06,.13-.09,.2-.14-.03,0-.2,.1-.11,.03-.08,.03-.15,.13-.24,.13,0,0,0-.01,0-.02-.07,.04-.13,.08-.21,.11,.04-.03,.08-.07,.13-.1-.04,0-.09,.05-.12,.07,.05-.07-.04,0-.08,0,.09-.07-.06,0-.08,0,.03-.02,.15-.1,.1-.11Zm-1.54,1.2s-.04,0-.07,0c.08-.11,.13-.22,.25-.29,.09-.05,.25-.15,.3-.21,.05-.05,.14-.09,.19-.13,.04,0,.09-.08,.13-.1,.12-.05,.26-.07,.39-.1-.08,.06,.02,.11,0,.13,.04,.01,.07-.01,.14,0,.04,.01,.01,.03,.04,.04,0,0-.05,.11-.05,.11-.05,.04-.14,.05-.18,.04-.16-.01-.47,.17-.6,.25-.03,.02-.12,.12-.16,.11-.03,.02-.23,.08-.16,0-.07,0-.19,.09-.24,.12Zm1.91,.59c.04-.17-.17-.04-.06-.04-.03,.04-.05,.03-.09,.02-.08-.01-.01-.05-.07-.06-.05,0-.06,.09-.05,.11,.04,.05,.1-.01,.17-.01-.04,.06,.02,.06-.06,.1-.06,.03-.11,.02-.16,.03-.04,.01-.04,.04-.08,.04,0-.02,0-.04-.02-.04-.02,0-.1,0-.07-.05-.03,.01-.06,.02-.09,.03,.08-.12,0-.02-.04-.09-.02-.03,.09-.1,.11-.12-.13,0-.25,.1-.38,.13-.05,.01-.22,.05-.25,.08-.06,.07-.26,.03-.34,.03-.06,0-.09,.04-.16,.04-.05,0-.01-.05-.09-.04,.01-.05,.06-.1,.09-.14-.05-.02-.06-.02-.11-.04-.09-.04-.01-.06-.04-.11-.03-.05,.07-.1,.09-.13,.02-.02,.09-.05,.07-.03,.06-.02,.07,.01,.13,0,.04,0,.2-.02,.23-.05-.03,.05,.12,.06,.15,.04,.05-.04,.15-.06,.18-.11-.05,0-.08,.03-.13,.03,.05-.05-.02-.04,.03-.07-.1,0-.2,.06-.27,0-.04-.03-.17,.06-.17-.03-.02,.02-.04,.03-.07,.03,0,0-.02-.06,.02-.08,.05-.03,.13-.03,.19-.05,.03,0,.16-.05,.21-.04-.03,.03,.05-.01,.06-.02-.02,0-.24,0-.23-.01-.05,0-.09,.06-.17,.05,.03-.04,.09-.02,.12-.05-.05-.01,0-.03,.02-.04,0-.02-.1,.03-.11,.03,.03-.02-.03-.02-.04-.02,.03-.04,.23-.18,.28-.16,.04,.02,.12-.08,.15-.1,.06-.04,.14-.07,.2-.08,.04,0,.1,0,.14-.02,.1-.04,.16-.08,.26-.08-.1,.09-.3,.21-.22,.34,.11-.04,.2-.26,.32-.26-.02,.07,0,.09-.05,.15,.05,.02,.12-.04,.16-.07,.08-.06,.05,0,.11-.02-.07,.07-.04,.13-.12,.18-.07,.05-.11,.09-.16,.16,.07-.03,.2-.17,.27-.16-.02,.05,.1,.04,.16,.04-.02,.03-.11,.17-.07,.2-.05,.07-.06,.16-.09,.25,.09,0,.06,.03,.13-.06,.05,.03-.06,.12,.03,.15,.03,.01,.16-.01,.16,.02,0,.04-.11,.18-.15,.17Zm.6,.22s-.19,.08-.21,.05c0,0-.11,.06-.16,.05,.01-.03,.02-.08-.02-.08,0-.03,.02-.05,.04-.07-.05,0-.06,.07-.11,.04,0-.02,0-.03,.02-.05-.02,0-.04,.01-.05,.02,.01-.04,.19-.22,.25-.22-.04,.06,.17-.15,.09,0,.02,0,.04-.02,.05-.02,.02,0,.13,.07,.1,.12,0,0,.02,0,.02,.01-.03,.05-.12,.15-.02,.15Zm.48-1.22s-.1,0-.14,.05c.03,0,0,.06-.01,.07,.03,0,.05-.01,.08-.03-.02,.04-.03,.08-.05,.12,.04-.02,.08-.04,.12-.06-.04,.07-.08,.25-.19,.27-.14,.02-.25,.13-.39,.15-.01-.06,.03-.1,.02-.15,0-.03-.04-.03-.04-.05,0-.01,0-.08,0-.09-.04-.03-.06,.05-.09,.04,0-.03-.01-.04-.05-.03,.06-.13,.02-.15,.15-.21-.01,.03-.02,.06-.03,.09,.15,0,.16,.01,.26-.12-.06-.02,0-.02-.09-.02,.06-.08,.11-.12,.21-.16,0,.01,0,.02-.01,.04,.04,.01,.06,.03,.09,0-.03,0,.15-.07,.18-.1,.02,0,.03,0,.05,0-.05,.07-.16,.05-.2,.11,.06,0,.27-.04,.13,.09Zm-.02,.09s0,.01-.02,0c-.01-.01,.02,0,.02,0Zm-.06-.45c.06-.06,.14-.09,.19-.15-.1,.02-.19,.05-.29,.07,0,0,.09-.08,.08-.09,.02,0,.2-.08,.14-.09,.05-.06,.06-.14,.15-.14-.04,.08-.03,.14-.09,.19,.08,0,.09-.07,.11-.14,0,0,.11-.05,.11-.06-.1-.01,.03-.06,.06-.07-.03,.04-.05,.07-.08,.11,.07,0,.07-.09,.13-.09-.01,.03,0,.04-.03,.07,.1,.01-.14,.21-.07,.21-.05,.06-.07,.09-.11,.14,.03,.06-.3,.04-.33,.04Zm.53,.11c.01-.07-.07,0-.07-.04,0-.03-.02-.05-.06-.03,.04-.06,.16-.18,.23-.2,.04-.01,.1,0,.07,.05,.05,.03-.09,.23-.16,.23Zm.05-.69s0-.15,.01-.17c-.01,0-.05,.01-.03-.02-.02,0-.04,.02-.06,.03,.08-.07-.09,.01-.1,.01-.01,0-.03,0-.04,0,.01-.01,.11-.04,.07-.04,.02-.01,.04-.03,.05-.04-.02,0-.03,0-.05,.01,.02-.02,.04-.03,.06-.05-.04,0-.11,.07,0-.02-.01,0-.03,.01-.04,.01,.04-.03,.08-.09,.13-.09,.02,.03-.03,.02,.02,.03,0,0-.05,.06-.05,.07,.03,.01,.07-.05,.1-.06,.03,.02-.02,.06-.03,.07,.02,0,.12-.05,.06,.01,.06-.01,0,.05,0,.06,.02,0,.05,0,.07,.01-.05,.06-.09,.21-.19,.18Zm.28,.73c.04-.09-.05,0-.09,0,0-.04,.09-.27,.15-.26,.07-.15-.04-.11-.03-.19,0,.08-.18-.01-.18-.01,.03-.05-.01-.09,.05-.13,0,0,.07-.05,.07-.01,.03,0,.08,.02,.13,.02,0,.02,0,.05-.01,.07,.04-.01,.13-.02,.17-.02-.02,.05,.03,.06,.07,.09,.06,.05-.11,.06-.12,.07,.06,0,0,.04-.01,.05,.03-.02,.06-.03,.09-.04,0,.02-.01,.03-.03,.04,0,0,.05-.03,.05-.03,0,.02-.01,.04-.02,.06,.05,0,.11,0,.16,.03,0-.04,.22-.02,.27-.06,.05-.04,.24-.05,.27,0,0,.01,.12,.04,.15,.05,.06,.03,0,.1-.04,.12-.04,.02,0,.04-.03,.07-.03,.03-.13,.04-.17,.04,0,0-.04-.03-.05-.03,0,.05-.07,.02-.06-.04-.04,0-.05,.07-.12,.07-.06,0-.14,.04-.14-.02-.04,0-.1,.11-.09,0-.04,.01-.05,.05-.09,.05-.04,0-.02-.01-.07,0-.08,.02-.03-.05-.04-.09-.02,0-.06,.06-.07,.07-.05,0-.1,.03-.15,.04Zm.75,5.12s-.06,.13-.06,.05c.04-.06,.04-.14,.04-.21,.09,.02,.06,.1,.02,.16Zm.13-3.94s0,0,0,.02c-.01,0-.02,0,0-.02Zm.1,.06s-.02-.04-.04-.04c0,0,0,.01-.01,.02-.02-.01-.02-.03-.02-.05,.04,0,.21-.05,.2-.03-.02,.06-.08,.09-.13,.11Zm2.71,.69s-.04,.03-.06,0c-.02-.02-.07-.07-.08,0,.04,0,.04,.03,.01,.04-.07,.03-.03,.05,0,.1-.11,0,0,.03,.02,.08-.05-.03-.07-.02-.06,.02-.02,.01-.06-.03-.07-.05-.05,0,.12,.17,.07,.21-.02,.02-.13,.04-.15-.05-.02,.01-.03,.03-.05,.04-.02-.07,.01-.02,.03-.07,0-.04-.03-.04-.07-.01-.06,.01-.07-.02-.03-.08-.13,.07-.03,.02-.07-.02,0,0-.07,.04-.08,0,.04,0,.05-.02,.05-.06-.05,0-.07,.05-.15,.02-.06-.03-.16-.11-.14-.17-.06,.02-.04,0-.09,0,0,.02,.04,.09,.06,.12-.06,0-.05-.08-.11-.08,0,.05,.09,.13,.1,.18-.05,0-.09-.01-.12-.03,0,.04,.05,.15,.11,.11,.05-.03,.02,.03,.06,.05,.05,.03,.05,.13,.13,.14,.03,0,.08,0,.1,.04,.02,.05,.05,.05,.03,.01,.04,0,.02,.06,.08,.04-.02-.02-.02-.03-.02-.05,.04-.01,.24,.23,.04,.16,.01,.04,.03,.07,.06,.1-.03,0-.06,0-.09,0,0,.05,.15,.11,.16,.16-.09,0-.11-.13-.18-.07-.01-.06-.13-.07-.17-.03-.06,.06-.16-.14-.15,.02-.07,0-.16-.1-.23-.05-.07,.06,.25,.19,.25,.23,.06,0,.1,0,.16,.02,0,.03,.06,.09,.1,.09,.15,0,.16,.17,.02,.13-.1-.03-.22,0-.32-.04-.06-.02-.08,.02-.15,0-.07-.02-.08,0-.14-.03,0,.05-.1,.12-.15,.07-.02-.04-.04-.04-.07,.01-.05-.01-.09-.04-.14-.04,.02-.08,.22-.09,.03-.15,0,.08-.05,.08-.07,0-.02,0-.04,.02-.05,.03-.02-.11-.06-.12-.11-.21,0,0-.04-.07-.04-.07,.01,0-.12,.02-.09,.04-.04-.03-.04-.11-.1-.12,.05,.15-.1-.01-.11-.04,0,0-.04,.04-.04,.04-.04,.04,.06,.05,.07,.07,0,.07-.06,.07-.1,.03-.05-.05-.04-.02-.09,.02-.04,.03-.07,.07-.1,.1-.04,.04-.12,0-.14,0-.14-.01-.14-.07-.09-.21-.04,0,.01-.17,.1-.17,.11,0,.16,.02,.24-.04,.04-.03,.17,.02,.21-.02,.08-.02,.18-.02,.24-.05-.02-.05-.1-.18-.14-.2-.09-.04-.08-.09-.02-.13,0,0,.08-.11,.09-.12,.04-.05,.04-.03,.1-.05,0-.02-.05-.09-.06-.14,.04-.04,.08-.01,.08-.08-.05,0-.06-.01-.04-.07-.06,0-.04-.1-.03-.13-.01,0-.12-.05-.13-.06-.06-.05,.05-.14,0-.17-.06,0-.15,.14-.22,.16,0-.07-.04-.06-.05-.12,.06,0,0-.12,.09-.06,0-.02-.2-.18-.04-.15,0-.07-.03,0-.07-.05,0,.05-.02,.07-.07,.07-.01-.03,0-.05,.02-.06-.02-.06-.04,.02-.04-.05-.09-.05-.07,.08-.11,.08,0-.03-.06-.26-.07-.14-.05-.01-.05-.05-.06-.09-.04,.02-.08,.02-.08,.08,.02,0,.05-.02,.07-.03,.02,.13-.08,.13-.17,.07-.06-.05-.22,0-.13,.08,.08,.07-.07,.13-.05,.01-.07,0-.09-.12-.17-.13,0,.01,.1,.12,.1,.15,0,.04-.09,0-.11,0-.06,0-.06-.03-.12-.02-.05,0-.08-.01-.13-.02-.03,0-.05,0-.06-.04-.06-.03-.02,.03-.06,.04-.11,.04-.05-.11-.12-.11,.02-.08-.23,.05-.11-.04-.04,0-.13-.04-.08-.11,.02-.03,.09,.02,.09-.04-.06,0-.11-.01-.17,0-.03-.07,.02-.08-.04-.13-.05-.04,.17-.25,.21-.29,.06-.06,.1-.16,.18-.2,.05-.02,.48-.11,.46-.02-.21,0-.32,.15-.37,.34,0,.04-.03,.08-.02,.12,0,.03,.06,.04,.04,.08-.02,.06-.12,.03-.14,.09,.09,0,.11-.04,.21,0,0-.09,.02-.1,.06-.18-.04,0-.1-.03-.07-.08,.03-.06,.09,0,.12,.01,0-.03,0-.05,.02-.07-.17,0-.1-.17,.01-.15,.03-.1,.16-.17,.27-.2,.18-.05,.06,.16,.04,.21,0,.02,.02,.16,.03,.16-.01,.02-.02,.04-.03,.06-.01,.07-.04,0-.05,.06,.03,0,.12,.04,.1-.04-.02-.05,.06-.13,.13-.11,0,.03-.02,.02-.02,.05,.03-.02,.06-.04,.09-.05,0,.04-.05,.15,0,.17,0,0,0-.15,.05-.07-.04-.2,.12,0,.15-.06,0-.02-.15-.06-.14-.12,.07-.06,.14-.05,.22,0,.07,.03,.11,.06,.19,.03,.04-.01,.07-.04,.09,0,.02,.04,.08,.08,0,.08,.01,.02,.03,.03,.05,0,0,.1,.04,.08-.03,.15,0,0,.04,.08,.06,.09,0-.03,.02-.09,.06-.1,0,0,0,.1,.02,.1,0-.07,.05,0,.06,0-.01-.22,.06-.03,.12-.04,0-.01,.08,.02,0,.06,.03,.03,.09,.02,.07-.03,.06,0-.02,.07,.08,0,0,.03-.07,.13-.01,.13,0-.03,.09-.09,.09-.06,0,.03-.03,.04-.05,.07,.05,0,.04-.06,.08-.07,.02,0,.14,.07,.15,.09-.03,0-.07,.03-.09,.05,.02,0,.08,.05,.08,.06,.01,.01,.04-.09,.07-.08,.07,.01,.07,.08,.08,.13-.07,0-.06,.04-.14,.04,0,.07,.21,.06,.25,.13-.07,0-.1,0-.17-.01,.01,.07,.07,.06,.09,.11-.04,0-.05,.06-.13,.06,0,.03,.07,.06,.09,.06,.03,0,.06,0,.08,.01,.01,.01,0,.06,.03,.06,.01-.05,.03-.02,.06-.02,0,.02-.02,.04-.03,.06,.02,0,.06-.04,.07,0,0,0,.05,.05,.05,.05,0-.02,0-.03,.02-.03,.02,.01,0,.09,0,.11,.03,0,.04-.03,.05-.05,.01,0,.03,.01,.04,.02,.01,0,0-.07,.02-.07,.02,0,.03,.07,.05,.07-.01-.05,0-.09,.05-.11,0,.04,.03,.1,.02,.14,.05,0,.04-.04,.03-.07,.07,0,.11,.07,.12,.12-.04,0-.03,0-.02,.04,.07-.02,.12,.04,.18,.03-.02-.08-.01-.06,.04-.09,.01,.04-.04,.13,.04,.13-.02-.03-.02-.06,0-.08,.02,0,.03,.02,.03,.03,.05,0,.01-.05,.07-.02-.02-.03-.03-.06-.03-.09,.01,.03,.23,.14,.17,.18-.02,0-.04,0-.06-.01,0,.02,.05,.08,.07,.1Zm-2.3-.3c0-.05,.14-.15,.14-.05,.06-.02,.03,.09,.02,.1-.03,.16-.18,.08-.17-.05Zm4.41,1.13s-.07,.05-.09,.05c-.02,0-.03-.04,0-.05,0-.01-.07-.03-.09-.04,.03,0,.03-.02,.02-.04-.03-.05-.04,0-.09-.02,0,0-.09-.1-.11-.11,.02,0,.04-.02,.09-.02-.02-.05-.09,0-.1-.02,0-.02,.1-.06,.09-.06,.06-.03-.05-.08,.04-.07-.08-.14-.12,0-.2,.06-.05-.08,0-.08-.07-.13-.01-.02-.16-.05-.06-.09-.02-.04-.05-.03-.08-.06-.03-.03,.02-.07,.03-.09,0-.01-.07,.05-.07,.05-.03,0-.05,0-.08,.01,0-.01,0-.09,0-.09-.01-.01-.1,0-.15-.04,.02,0,.1-.05,.05-.06,0,0-.03,.02-.04-.01-.02-.05,.05-.04,.02-.08-.04-.05-.09-.07-.13-.11-.02-.02-.04-.03,0-.06,.05-.03-.01-.06,.05-.09,.08-.04,.21,.03,.3,.02-.01-.03-.04-.1-.04-.13-.08,0-.04,.06-.01,.1-.08,.02-.11,0-.13-.06,0-.03-.21,.13-.22,.14-.03-.05-.02-.09,.01-.14,.04-.07,.09,0,.15-.02-.05-.01-.09-.03-.13-.04-.02-.04,.03-.03,.05-.03,.09,.03,.15-.02,.24,0-.08-.1-.14-.02-.27-.01-.11,0-.04-.04-.01-.03,0,0,.03-.07,.04-.07,.03,.06,.11-.01,.14-.02-.04-.07-.09-.11-.13-.18,.04,0,.05,.02,.08,.04,.07-.03-.02-.07-.03-.09-.02-.04-.02-.05-.07-.02-.02-.03-.1-.12-.04-.13-.1-.09-.06-.03-.18-.07-.09,.06-.2-.07-.31-.07,.05,.08,.43,.18,.32,.29-.07,.07-.2,.15-.3,.04,.04,0,.08,0,.12-.01-.04-.07-.06-.05-.04-.03-.06,0-.21,.02-.19-.07,0-.03,0-.09-.02-.12-.05-.08,.05-.07,.11-.08-.02-.03-.3-.13-.11-.14,.18,0,.31,.09,.49,.1-.02-.04-.09-.03-.11-.06,0-.02,.02-.02,.04-.02-.02-.03-.17-.07-.04-.08-.03-.02-.06-.04-.09-.04,.23-.03-.09-.06-.09-.05,0-.01,.05-.04,.05-.05,0-.02-.1,.03-.09,.02-.05,.02-.05-.03-.1-.04-.04,0-.07-.02-.11-.02-.04,0-.08-.04-.11-.04,.03,.07,.03,.17-.08,.12-.03-.01-.07-.11-.06-.12,0,0-.04,0-.03-.05,0-.04-.05-.09-.05-.08,.02-.02,.05-.03,.08-.02-.01-.01-.06-.09-.04-.1-.02-.04-.09-.06-.13-.09-.07-.06-.14-.2-.24-.14-.02-.04,.05-.05,0-.1,.02,0-.06-.05-.08-.05-.02,0-.2-.13-.21-.14-.04-.04-.08-.06-.13-.06-.06,0-.12-.06-.17-.08-.04-.02-.11-.03-.16-.04,0,.1-.07-.03-.1,0-.02,.02-.05,.08-.11,.04,0,.02,0,.03,0,.05-.05,0-.05-.07-.09-.06-.09,.02-.05,.05-.12,0,.01,.05,0,.12-.07,.11-.07-.02-.08,0-.13-.06-.04-.05,.01-.02,0-.06-.03,0-.06-.01-.09-.03-.02,0-.06-.06-.07-.06,0-.08,.1,.01,.13-.02,.05-.07,.23-.12,.3-.08-.02-.05-.02-.11-.11-.06-.11,.06-.08-.02-.16-.04,0,.18-.3-.02-.23-.11,.03-.05,.19-.08,.24-.07-.01-.06,.16-.05,.18-.03-.02-.05,.07-.07,.04-.14-.04-.09-.01-.09-.11-.09-.05,0-.17,.01-.11-.09,.01-.02,.14-.06,.12-.1,.04,0,.06,0,.09,.03,0,0,0,0,.02,0-.04-.05-.07-.07-.08-.14,.01,.02,.11,.1,.13,.09-.04-.06-.13-.09-.05-.13,.05-.03,.08-.03,.12,0-.11-.1,.18,.1,.18,.1-.02-.02-.04-.04-.05-.07,0,0,.08,.03,.05,0,.04,0,.1,.04,.14,.05-.08-.06-.16-.13-.25-.19,.1,0,.18,.05,.26,.1,.03,.02,.22,.13,.19,.05,.04,0,.05,.02,.1,.03-.14-.08-.32-.1-.46-.19,.11,0,0,0,.03-.01,.05,0,.09,.03,.13,.04-.04-.02-.09-.04-.13-.06,.09-.01,.17,.07,.25,.06-.12-.06-.25-.05-.35-.14,.02,0,.02,0,0-.02,.04,0,.07,.02,.11,.03,.17,.06-.05-.03,.05,0-.02,0-.04-.02-.05-.02,.03,.01,.08,.03,.09,.03-.07-.03-.13-.05-.2-.09,.01,0,.02,0,.03,0-.02,0-.05-.02-.07-.03,.02,0,.15,0,.1-.02,.02,0,.12,.04,.09,0,0,0,.11,0,.08,0,.07-.01,.13,.07,.2,.05-.02,0-.05-.02-.07-.03,.01,0,.15,.03,.2,.04,0,0,0,0-.01,0,.03,0,.1,.03,.02,0,.12,.03,.24,.05,.36,.08-.07,.02-.17,.04-.25,.05,.04,.01,.06,.05,.09,.06,0,0,0,0-.01,.02,.02,.01,.04,.02,.07,.03-.02-.02-.04-.05-.06-.07,.01,0,.03,0,.05,0-.03,0,.03-.02,.04-.02,.07,0,.12,.05,.18,.04-.03-.01,.04-.01,.04-.02-.04-.01-.08-.03-.12-.05,.11,0,.21,.06,.31,.1-.05,.02,.05,.04,.07,.04-.02,0,0-.03,.01-.03-.06-.03-.11-.06-.18-.08,.03,0,.06,.02,.09,.03,0,0,0,0,0,0-.03,0-.04-.02,.07,0-.05-.01-.09-.04-.13-.05,.11-.03,.23-.02,.34,.02-.07,0,.03,.03,.03,.03,.02,.02,.09,.04,.11,.05-.02,0-.02,0-.03,0,0,0,0,0-.05,.02,.04,.05,.15,.03,.09,0,.09,0,.17,.05,.25,.08-.06,.02-.13,0-.19,0,.04,.02,.17,.09,.22,.08-.02-.02-.07-.03-.08-.06,.05,0,.33,.05,.28,.11,.15,.06,.3,.12,.45,.2-.05-.01-.1-.02-.14-.02,.02,.01,.15,.06,.11,.04,.05,0,.36,.05,.18,.04,.03,.01,.24,.1,.18,.03,.1,.03,.2,.07,.3,.11-.07,.02-.15-.01-.22,0,.06,.03,.12,.06,.17,.09-.01,0-.02,0-.04,0,.03,.02,.18,.08,.06-.01,.17,.05,.34,.13,.5,.21-.06,.01-.12-.03-.18,0,.05,.01,.11,.02,.16,.04,.01,0,.14,.08,.05,.06,.03,.02,.07,.02,.05-.02,.07,.03,.1,.07,.18,.05-.02,0,0,0,0-.02,.04,0,.14,.01,.11,.07-.1-.03-.2-.03-.3-.04,.07,.04,.22,.18,.31,.16-.03-.01-.04-.03-.04-.06,.05,.03,.13,.04,.19,.07,0,0-.02,.02-.03,.03,.02,.01,.04,.03,.05,.04-.02,0-.04,.02-.02,.04-.06,0-.11-.03-.17-.02-.07,.02-.11-.07-.18-.06,.09,.06,.09,.12,.02,.17,.03,0,.07,.01,.02,.04,.04,.03,.21,.12,.26,.1-.02-.02-.03-.02,.01-.03-.01-.01-.02-.02-.02-.04,.03,0,.07,.02,.1,.03,.01,0,.02,.06,.03,.06,.03,0,.04-.02,.08-.02,.07,0,.14,.02,.21,.05,.04,.02,.19,.11,.22,.1-.1-.07,.06,0,.06,0,.04,.03,.09,.04,.13,.07,.05,.03,.16,.1,.19,.14-.05,0-.11-.06-.12,.01-.26-.08-.54-.25-.81-.23,.04,.03-.13,0-.13,0,.04,.03,.08,.04,.12,.07-.08,.02,.01,.03,.04,.03-.04-.03,.03,0,0-.02,.13-.03,.22-.04,.35,.04,0,0-.1,0-.05,.05-.06,.01-.12,0-.18,0,.02,.02,.04,.04,.05,.06,.06,0,.07-.03,.14-.05,.08-.03,.21,.07,.13,.07-.03-.02-.17,0-.18,.05-.03-.02-.06-.04-.09-.06,.01,.03,.03,.05,.08,.07,.02,0,.12-.02,.14-.03,.06-.04,.13,.13,.2,.03,.04-.06,.12-.03,.22-.03,.04,0,.14-.04,.14,.02,0,.06,.09,.11,.04,.13,.02,.02,.11,.08,.02,.06,.04,.09-.09-.04-.04,.1-.02-.02-.04-.01-.05,0-.01,.05,.12,.09-.03,.08,.13,.1-.05,.12-.05,.2,0,0-.09,0-.12,0,.09,.09-.08,.04-.09,.04,.02,.01,.04,.03,.04,.06-.03,.01-.03,0-.01,.04-.04,0-.06,.01-.12,0-.05-.01-.18-.1-.22-.1,.07,.07,.14,.09,.21,.15,.04,.03,.09,.07,.05,.12-.04,.05,0,.06,.01,.11,0,.02-.05,.15-.08,.16,.02,.03,.02,.05,.04,.08,0,0-.02,.08-.02,.05,0,.02,.05,.08,.06,.1-.04,0-.09-.04-.14-.04,.02,.05,.03,.09,.03,.14-.08,.01-.13-.16-.18-.03-.01,.04-.16,.04-.21,.07,.08,.09,.02,.09-.05,.12,.06,.06,.17,.09,.2,.17,.04,.09-.08,.06-.12,.07,.04,.06,.15,0,.17,.07,.01,.05,.06,.11,.06,.16-.04,0-.08-.01-.11-.02,.03,.02,.06,.04,.08,.06,.03,.04,.03,.08,.07,.12-.05,0-.07-.03-.12-.02,.02,.07,.02,.05,.07,.1,.02,.05-.03,.07-.01,.11,.02,.04,.17,.16,.05,.18,.02,.04,.06,.02,.06,.08,0,.05,0,.14,.03,.17,0,0-.04,.05-.06,0-.02,.05,.18,.07,.1,.11,.03,.03,.08,.04,.11,.07-.16,.02,.02,0-.05,.07-.06,.06-.04-.02-.1-.02-.07,0-.06-.12-.11-.11,.02,.03,.03,.1,0,.11,0-.01-.08-.12-.08-.12,.02,.03-.02,.08-.04,.1-.01-.03,.05-.18-.02-.17,.04,.08-.08,.01-.09,.01,.02,.02,.02,.04,.01,.06-.05,.04-.07-.05-.09-.06,.01,0-.09,.05-.11,.01,.08,0-.02-.13-.05-.16-.02,.04-.04,.09-.02,.14-.05,0-.06,.03-.12,.01-.01,.06-.05,0-.01,.07-.04,0-.11-.04-.05-.05-.03-.06-.06,.04-.1-.05-.02-.05-.08-.03-.08-.05-.01-.05,.12-.04,0-.07,.03,.06-.26,.06-.32,.09,.04-.02,.24-.06,.27-.05,0,0-.02-.17-.09-.09,0-.04,0-.07,0-.11-.02,.02-.03,.03-.04,.05-.06-.12-.07-.08-.17-.02-.02-.04-.03-.09-.05-.13-.09,.07-.12,0-.12-.09Zm-1.06-1.49s-.05,0,0,0h0Zm-2.86-2.01s.03,0,.03,.01c-.02,0-.01,0-.03-.01Zm.51-.96c.05,0,.18,.07,.22,.1-.06,0-.12-.03-.17-.06-.02-.01-.03-.02-.05-.04Zm3.3,.66s-.02,0-.03-.01c0,0,.04,.01,.03,.01Zm-.09,8.25s-.04-.04,.02-.07c.02,0,.03,0,.03,.03,.02-.01,.02-.03,.02-.05-.03,0-.26,.01-.15-.05,.02-.01,.09,0,.11,0,0-.02-.02-.04-.04-.06,.05,0,0-.06,.06-.05,.03,0,.07,.02,.1,.04,0-.05,.08-.1-.01-.11-.05,0-.07,0-.1-.05,.11,0,.03-.16,.02-.21-.02-.06,0-.13-.01-.21,.09-.02,.09-.07,.08-.14,0-.07,.2-.08,.25-.09,.01,.05-.02,.1-.07,.1,.01,.04,.02,.03,.06,.03,0,.08-.02,.12-.09,.11,.01,.05,.02,.09,.04,.14-.02,.01-.04,.03-.05,.06,0,.01-.01,.06,0,.07,.02,.02,.05,.14,.05,.14,.03-.05,.05-.06,.04-.12,.09,.02-.04-.06,.06-.02-.03-.1,.08,0,.14,.02-.02,.04-.06,.06-.08,.1,.06,0,.04-.02,.1-.03,0,.02-.02,.07,.02,.06,0-.02,.02-.03,.04-.03,.04-.02,.06,0,.07,.05,.03-.04,.03-.03,0-.08,.08,0,.08,0,.13-.06,.01,.02,.02,.04,0,.06,.05,0,.1,.01,.1-.04,0-.05,.07,0,.07,0,.05,.03,.06,.16-.02,.17,.04,.02,.03,.03,.08,.03,0,.08,.03,.05,.07,.01,.03,.02-.01,.09-.01,.11,.04-.02,.05,.04,.06-.02,.06-.01,.04-.02,.1-.01,0-.07,.02-.03,.07-.07,.02,.08-.07,.11-.06,.16,0,.04,.09,.03,.09,.06,0,.03-.06,.04-.08,.04,.03,.1,.09,.01,.14,.07-.02-.07-.03-.19,.06-.22,0,.01-.08,.29,.03,.25,.03,0,.06-.13,.07-.09,.01,.07-.03,.09,0,.17-.04,0,0,.07-.02,.09-.03,.02-.09,.03-.12,.04-.02-.1,.03-.13-.09-.14,0,.04-.03,.09-.02,.12-.11,.01-.01-.16,0-.16,0-.04-.1-.13-.14-.13,0,.1-.15,.11-.09,.19-.05,0-.08,.1-.15,.12-.01-.1,.12-.19,.12-.29-.08,0-.07,.1-.17,.12,0-.04,.05-.1-.03-.1-.06,0-.05,.03-.08,.04-.07,.03-.19,.05-.23,0-.02,.01-.02,.03-.02,.05-.03,0-.06,0-.07,.03-.04,0-.02-.04-.09-.03,0-.02-.1,0-.14,0-.01,0-.1-.02-.09,.02-.09,0-.05,0-.11,.05-.08,.06-.13-.02-.17-.09,.02,0,.11-.1,.12-.12Zm.82,12.29s.02,.05,.02,.07c-.05,0-.08,.03-.14,.03,0-.06-.02-.12-.06-.17,.06,0,.1-.03,.18-.03,0,.04-.03,.06-.02,.11Zm-.35-1.78c-.07-.14,.25-.08,0,0h0Zm-.63-9.67c.05,.05,.05-.02,.06,.05-.09,0-.04,.08-.1,.1-.01,0-.11,.05-.12,.02,0,0,.07-.12,0-.12,.02-.1,.13-.06,.14-.15,.05,.03,.11,.06,.02,.1Zm-.42,.02c.04-.05,0-.11,.07-.16,0,.02,0,.02,.02,.02-.03-.05,.03-.11,.04-.19,.09,.06,.16,0,.25-.04,0,.01-.03,.04-.04,.09-.04,0-.07,0-.11,0,0,.04,0,.05-.05,.05,0,.05-.01,.09-.03,.14,.16-.01-.14,.25,.02,.23-.07,.11-.24-.08-.19-.15Zm-.19,8.89s.14,.02,.05,.09c-.04,.03-.06,.06-.11,.08-.04,.01-.19,.03-.22,0-.21-.18,.2-.15,.28-.16Zm-2.01-.28s.17,.04,.22,0c.02-.02,.14-.09,.14-.03,.08-.02,.11-.04,.17,.01,.04,.03,.09,0,.13,.02,.12,.06,.2,.16,.35,.14,.11-.02,.21,.04,.26,.16,0,.03-.14,.04-.16,.04,0,0,0-.01-.01-.02-.06,0-.18,.02-.27,.02,.01,.21-.33,.04-.42,.02,0,.02,.05,.09,.05,.11-.03,0-.07,.07-.11,.08,.02,.05-.04,0-.05,0-.05-.07-.03-.1-.12-.09-.17,0-.33,.01-.5,.01-.12,0-.29,.06-.31-.11,.08-.02,.11-.07,.19-.02,.05,.03,.17,.03,.24,.02,.11-.01,.27,.12,.26-.07-.06,0-.13-.09-.13-.14,.02-.16-.06-.1-.15-.18,.06,0,.18-.03,.23,.02Zm-.69-6.73c.05-.05,.14-.07,.18-.1,.02-.01,.11,0,.13,0,.05,.02,.11,0,.18,0,0,0-.1,.1-.11,.11-.04,.02-.1,0-.14,0-.03,0-.11,0-.11,.05-.05,0-.1,0-.14,0-.01-.03,0-.04,.02-.05Zm-1.09,5.25s.08,.09,.02,.09c-.07,0-.13,0-.2-.03,.04-.08,.09-.2,.17-.06Zm-1.35,.99s-.15,.07-.15,.02c.06-.02,.09-.06,.09-.12-.05,0-.07-.02-.03-.07,.03-.03,.11,0,.14,0,0,.06,0,.14-.06,.16Zm.85-.09c-.08,0-.08-.02-.14-.03-.02-.06-.03-.09-.09-.09-.07,0-.19-.05-.25-.08-.02-.01-.1,0-.1-.03,0-.03,0-.06-.03-.06-.05,0-.26-.06-.28,0,0,.03-.22,.16-.27,.17-.04,0,0,.06-.05,.07-.03,0-.06,.01-.1,.02-.1,.02-.13-.04-.01-.05-.04-.16,.12-.22,.23-.27,.05-.03,.09-.06,.15-.06,.04,0,.15,0,.18-.03,.05-.03,.18-.01,.2,.05,.02,.07,.09-.03,.12-.03,.02,0,.14,0,.14,.03,.11-.02,.14,0,.24,.03,.05,.01,.1,.02,.14,.05,.04,.02,.02,.07,.05,.1,.05,.04,.09,.04,.16,.05,.09,.02,.19,.06,.29,.07,.06,0-.04,.05,.06,.04,.04,0,.09-.01,.12,.02,.05,.07,.06,.11,.15,.09,.07,.15,.25,.13,.38,.12,0,.05,0,.09-.02,.14,.14,0,.37-.01,.43,.14-.05,0-.14,.05-.17,.08-.04,.04-.15,.02-.2,.01-.19-.01-.34,.04-.54,.07-.31,.04,.14-.2-.02-.23-.19-.04-.37-.11-.37-.33-.14,.01-.27,.06-.37-.05Zm.93,1.2c-.06,.03-.05,.08-.14,.04-.08-.04-.17,0-.23-.09-.02-.03-.14-.06-.16-.05,.03-.09,.32-.2,.33-.07,.06,0,.14-.03,.2,0,.06,.02,.09,.06,.15,.07,.06,.16-.05,.06-.16,.11Zm1.48,17.6s.03-.02,.05-.04c-.05,0-.06-.01-.03-.06-.06,.02-.05-.06-.03-.09,0-.01,.1,0,.04-.05,.08,0,.12-.03,.16,.07,0,.01,.02,.12,.03,.12,0,0-.03,.09-.03,.1-.02,.04-.07,0-.12,.02,0-.03-.06-.04-.06-.08Zm.08,.34c.05-.02,.24-.04,.25,.05,0,0,0,.05-.02,.06,0,0-.09-.01-.09-.01,0,.01,.17,.05,.17,.06-.06,.11-.29-.12-.31-.16Zm.51,.26s-.13,.06-.11-.01c-.04,0-.06-.01-.1,0,.05-.12,.12-.03,.22-.02,0,.02-.02,.03-.04,.02,0,0,.02,.01,.03,.02Zm.29,.15c.08,0,.27-.11,.28,0-.07,0-.23,.08-.28,0Zm.57-.08s-.07-.01-.1,0c-.04,.02-.07,.06-.12,.08,.02-.11-.28-.03-.35-.03,0-.01,.02-.02,.04-.02-.04,0-.28-.02-.28,0-.01,0-.02,0-.03,0-.01-.02,.16-.03,.16-.07-.05,0-.14,.06-.16-.03,.06-.01,.09,0,.15,.02,0-.14,.07,.03,.08,.04,0-.01,.17-.02,.19-.02-.05,0-.16-.02-.16-.08,.02,0,.11,0,.11-.04-.05,0-.08,0-.13,0,0-.02,.02-.07-.02-.06,0-.08,.33-.05,.39-.02,0,.02-.02,.03-.04,.04,.05,0,.11,.1,.17,.11,.1,.02,.19,.05,.3,.05,0,.04-.15,.04-.19,.05Zm.93-.45s.11-.03,.12-.07c-.07,0,0-.05,.05-.04,.04,0,.11-.02,.15,0-.02,0-.04,.01-.05,.03-.03,0-.27,.13-.27,.08Zm.37-.05c0,.09-.05,.01-.11,.06-.04,.03-.02,.02-.08,.01,.05-.06,.12-.07,.17-.12,.03-.03,.08-.03,.12-.03-.06,.07,.07,.01,.08,0,0,.01,0,.02-.01,.03,.02,0,.03,0,.05,0-.02,.03-.19,.05-.22,.05Zm7.96-10.82c-.02,.1-.02,.2-.09,.28-.03,.03-.06,.14-.1,.15-.01,.11-.09,.09-.16,.14,.03,0,.06,0,.09-.01-.05,.15-.28,.24-.37,.34-.1,.11-.22,.25-.26,.4-.02,.06-.1,.18-.16,.22-.03,.03-.16-.02-.16,.02-.02,.16-.16,.28-.23,.42,.1-.01,.03,.26,.03,.3-.01,.18-.02,.33-.14,.48-.04,.05-.05,.15-.06,.21,.1-.01-.09,.16-.1,.17-.07,.07-.04,.18-.09,.27-.04,.08-.14,.16-.21,.22-.13,.13-.36,.33-.37,.53,.07-.01-.03,.12-.03,.12-.03,.04-.08,.03-.11,.07-.03,.03-.03,.08-.07,.11-.03,.02-.06,.03-.09,.04-.09,.02-.05-.07-.12-.04-.04,.02,.02,.07-.04,.08-.04,.01-.09,.01-.12,.01-.1-.01-.35,.09-.3,.22-.1,.02-.22,.1-.31,.08-.01,.02-.03,.03-.06,.03-.08,.02-.06,0-.1,.08-.15,.09-.31,.17-.47,.24-.09,.04-.24,.19-.22,.29,0,0,0,.1-.01,.11-.03,.07,0,.06-.03,.13,.09,0-.01,.28-.04,.33-.09,.14-.29,.2-.38,.35-.01,.02-.11,.15-.19,.26,.02-.04,.03-.08,.04-.12-.02,0-.02,0-.01-.01-.09,.07-.13,0-.2,.12-.04,.07-.14,.11-.2,.17,0,0-.07,.1-.09,.1-.03,.03-.06,.05-.09,.07,0,.03,0,.07,0,.1-.03,.12-.2,.15-.25,.26-.04,.07-.1,.13-.18,.16-.08,.03-.17,.03-.25,.04-.07,.01-.15,.06-.22,.06-.11,0-.22-.05-.32-.09-.16-.06-.08-.18-.06-.3-.06,0-.06,.14-.08,.18-.02,.04-.06,.02-.06,.08,0,.03,.02,.04,.03,.07,0,.06,.05,.09,.1,.12,.02,.02,.05,.03,.08,.06,.07,.08,.02,.05,0,.11-.04,.12,.14,.06,.15,.14,0,.05-.07,.12-.1,.15-.14,.17-.27,.25-.46,.32-.19,.06-.38,.09-.58,.13-.03,0-.07,0-.09,.01-.06,.04-.03-.04-.09-.02-.09,.03,.03,.13-.02,.19-.03,.03-.01,.14-.03,.18-.04,.11-.23,.16-.33,.14-.06-.02-.1-.07-.17-.06-.06,0-.1,.1-.14,.15,.03,0,.06,0,.1,0-.03,.12,.15,.2,.16,.1,.04,0,.07,.01,.11,.02-.01,.08-.07,.1-.14,.11,.01-.08-.18-.07-.19-.02,.05,0,.08,0,.12,.03-.07,.01-.2,.08-.2,.17,0,.12-.02,.11-.12,.19,.04,0,.05,.03,.02,.05-.07,0-.12,0-.18,.04-.08,.05-.19,.09-.24,.17-.09,.16,.45,.1,.25,.26,.02,0,.06,.04,.07,.05-.09,.04-.2,.08-.28,.14-.08,.06-.06,.1-.08,.15-.02,.04-.12,.09-.16,.05-.07-.07-.06,.02-.01,.06-.07,0-.18,.14-.13,.19,.03,.04,.06,0,.09,.06-.07,0-.14,0-.19,.06-.06,0-.15-.01-.2,.03,0,0-.03,.11-.04,.13-.03,.05-.14,0-.14-.04-.06,0-.03,.05-.1,0-.07-.04-.09-.02-.12-.09-.02-.06,0-.06,.05-.06,0,.05,.11-.04,.13-.05,0-.02-.12-.04-.12,.03-.07,0-.14,.01-.22-.02,.07,0,.07-.03,.13-.03,0-.07-.11-.08,0-.11,0-.02-.15-.07-.17-.07,.03-.09,.08-.11,.12-.19-.03,0-.05,.01-.05,.04-.03,0-.07-.25-.06-.26,.03,0,.06-.01,.09-.02-.09,0,.03-.1-.08-.13-.06-.01-.17,.09-.14-.04-.01,0-.07,.06-.08,.05-.02-.02,.03-.08,0-.13,.1-.03,.15,.02,.21-.02,0,.02-.01,.03-.03,.05,.04,0,.11-.07,.12,0,.08,0,.05-.12,.08-.18-.07,0-.06-.14,0-.16,0-.02-.02-.03-.04-.04,.1,0,.13-.11,.09-.19-.02-.01-.02-.03,0-.05,.05,0,.06-.04,.03-.08,0-.11-.01-.11,.05-.19-.1-.04-.06-.02-.15,.02-.07,.04-.09-.07-.1-.1-.01-.04-.01-.1,.02-.14,.02,0,.03-.03,.02-.05,0-.06,.04-.03,.06-.07,.03-.05,0-.17-.03-.22-.03-.05,0-.11-.05-.17-.07-.09,0-.1,.08-.12-.05-.12,.08-.17,.12-.29,.03-.09-.05-.14,.01-.19,.03-.02,.08-.12,.09-.14,.02-.03-.04-.09,.01-.12,.07-.04,.04-.11,.06-.17,.02-.04,.08-.05,.08-.09,0-.07,0-.15,0-.22,.01-.1-.13-.17-.03-.26,.12-.12-.05-.3-.02-.41,0,0,.01,.02,.02,0,.03-.14,.11-.32,.11-.49,0-.06,0-.11,0-.19,0-.05,.06-.09,.05-.15-.02-.07-.06-.15-.02-.25,.02-.05,.05-.12,.06-.17,0-.04-.05-.06-.05-.11,0-.05,.06-.02,.06-.11,0-.06,0-.12,0-.18,0-.06,.01-.17,.09-.17-.05-.19,0-.39-.02-.58-.01-.07-.04-.15-.08-.2-.03-.04-.15-.09-.16-.14-.02-.12-.15-.11-.21-.15-.08-.06-.25-.11-.35-.11-.1,0-.23-.08-.34-.1,0-.04-.25-.17-.29-.18-.09-.02-.16-.12-.2-.17-.03-.03-.06-.06-.08-.1-.03-.05-.08-.04-.1-.11,.09,0,0-.2-.02-.26-.05,0-.11-.11-.12-.15-.01-.06-.12-.03-.12-.1,0-.11-.07-.16-.15-.22,.05,0-.03-.17-.06-.19,0,0-.05-.14-.05-.15-.02-.06-.1-.11,.02-.12-.12,0-.09-.15-.17-.18-.04-.01-.17-.11-.17-.15,0-.04-.29-.22-.34-.25-.08-.05-.1-.13-.19-.18-.07-.04-.14-.11-.23-.14-.15-.05,0-.11-.08-.22-.02-.04-.05-.08-.03-.12-.09-.04-.1-.07-.06-.17,.07-.16,.21-.26,.36-.35-.08-.06-.01-.05-.03-.09,.03,0,.06,0,.09,0,0-.02,.01-.09-.03-.09,.01,.19-.29,.04-.35,0,.04-.03,.14-.04,.1-.11-.02,0-.03-.02-.05-.02-.03-.03-.04-.07-.05-.1,.03,0,.04-.06,.09-.06-.02-.05-.06-.09-.08-.15,.04,0,.07-.03,.09-.05,0-.05,.04-.06,.09-.05-.04-.1-.08-.06-.05-.18-.01-.06,0-.08,.05-.07,.04,0,.09-.05,.09-.09,0-.06-.13-.22,0-.23-.01-.03,.17-.11,.21-.17,.06-.09,0-.01,0-.07,0-.06,.12-.03,.17-.03,.02-.06-.06-.03-.07-.07,0-.03,0-.08,.01-.11,0-.06,.12-.11,.15-.13,.03-.02,.07-.02,.11-.03,.03,0,.02-.05,.04-.07,.03-.03,.11-.12,.11-.19-.08,0-.12-.05-.14-.12,.1-.06,.1-.17,.07-.27,.06,0,.03-.11,.02-.13-.02-.08,.06-.06,.04-.15-.02-.13,.03-.28-.05-.38-.02-.03-.09,.01-.13-.01-.04-.03-.08-.05-.12-.09-.09-.08-.06-.23,.06-.24,0-.05-.04-.08-.08-.06-.1,.03-.08,.02-.13-.04-.03-.03-.06,0-.07-.05-.01-.06,0-.13,0-.18,0-.01,0-.12,.02-.12,.07-.02,.13,.02,.15,.08,.02,.08,.07,.11,.14,.13,.08,.02,.02,.07,.08,.11,.1,.05,.18,.13,.26,.2,.13,.11,.08-.06,.13-.13,.02-.03,0-.05,0-.09,.01-.05,.07-.16,.12-.18,.05-.02,.07,.02,.09-.03,.03-.06-.03-.08,.05-.13,.1-.06-.04-.2,.06-.29,.02-.02,.1-.03,.09-.07,.05,0,.1,0,.15,.03,0-.04,.03-.07,.05-.09,.09-.09,.23-.07,.33-.14,.02-.02,.09-.04,.08-.06,.06,0,.09-.04,.13-.05,.07,0,.13-.08,.13-.14,0-.05,.16-.1,.16-.07,.33-.02-.1,.29-.13,.36,.14,0,.1,.05,.18,.14,.04,.05-.09,.14-.11,.19-.08,.17,.12,.2,.13,.36,.04,0,.23-.11,.23-.14-.02-.08-.02-.23-.1-.27-.06-.03-.11-.19-.06-.24,.03-.04,.16-.05,.21-.07,.04-.01,.24-.04,.25-.07,.04-.08-.25-.04-.18-.18,.06-.11,.22,.11,.31,.12,.13,.02,.27,.04,.36,.16,.04,.06-.03,.06-.04,.09-.02,.05,.17,.09,.2,.09,.16,0,.3-.09,.45-.1,.04,0,.01,.07,.02,.09,.02,.03,.15,0,.14,.04,.08-.01,.17-.02,.25-.03,.07,0,.07-.03,.12-.06,.11-.05,.14-.04,.27-.06,.02-.03-.06-.05-.07-.05,.12,0,.25-.04,.37-.05,.18-.01-.06,.14-.06,.15,.05,.05,.08,.08,.1,.15,.05-.02,.09-.05,.14-.07,0,.07,.12,.05,.17,.05,.24,0,.05,.13,.08,.2,0,.07-.02,.14-.1,.14-.18,0-.22,.03-.31,.16,.1,0,.23-.12,.33-.13,.09,0,.17-.06,.26-.06,.06,0,.24,.02,.26,.05,0,.01,.1,.07,.12,.07,.08,.02,.09,.08,.15,.11,.08,.05,.12,0,.09,.13-.02,.08-.13,.24-.11,.32,.03-.01,.05-.03,.07-.06,0,.02,.02,.02,.03,.08,.03,0,.03-.14,.05-.16,.04-.08,.14-.06,.2-.04,.06,.02,.12,.05,.18,.07,.07,.03,.08,.14,.1,.2,.03,0,.03-.09,.04-.11,.03-.05,.15,0,.18,0,.06-.01,.12,0,.19-.01,.02,0,.05,0,.07-.02,.04-.05,.08,0,.07-.06,.1,.02,.23,.01,.21,.14,.04,0,.02-.04,.02-.06,.07,0,.07,.05,.16,.02,.06-.02,.11,.04,.17,.05,.08,.02,.17,.02,.17,.11,.04,0,.04,.09,.11,.09-.01,.06,.06,.07,.09,.08,.06,.02,.06,.06,.1,.11,.04,.06,.08,0,.08,.09,0,.03,.03,.06,.04,.09,0,.03,.09,.15,.1,.15,0,.05-.01,.09-.02,.14,.03,0,.05,.02,.05,.05,.03,.07,.03,.15,.02,.22,.05,0,.11-.06,.17-.04,.14,.07-.11,.18-.13,.2,0,0,.06,.04,.07,.06,.01,.04-.06,.11-.08,.15,.05,0,.11-.09,.15-.12,.05,.02,.06,.03,.04,.08-.03,.08-.01,.08-.1,.05,0,.02,.07,.17,.08,.16-.09,.12-.23,.02-.19-.11-.06,0-.09,.09-.11,.13-.02,.02-.04,.03-.06,.04,0,0-.06,.08-.06,.08,0,.06-.12,.29-.18,.31-.09,.03-.18,.11-.27,.11-.06,0-.12,.03-.17,.06-.07,.05-.05,.07-.11,.13,.09-.03,.07-.12,.17-.13,0-.06,.18-.02,.18-.07,0-.03,.23-.12,.26-.09,.12,.09,.03,.22,0,.32,.1-.01,.12-.24,.09-.31,.06,0,.16-.17,.2-.08,.03,.06,.06,.22,.17,.23,.06,0,.33-.15,.33-.04,.05,0,.07-.06,.1-.1,.01-.02,.02-.04,.04-.05,.03-.04,.09,0,.11-.03,.01-.02-.04-.07-.04-.08,0-.02,.07-.06,.08-.07,.07-.05,.09-.09,.18-.11,.18-.03,.29,.13,.43,.07,0,.15,.21-.01,.12,.21,.06,0,.25-.2,.19,.03,.09,.02,.11,.06,.06,.14,.14-.02,.02,.17,.13,.14,.07-.02,.1-.09,.13-.15,.03-.06,.08,0,.1-.02,.1-.1,.17,.09,.24,.08,.02,0,.03-.02,.03-.04,.03,0,.07,0,.1-.01,0,.07,.13,.03,.16,.03,.03,0,.08,0,.12,0,.06,0,.13-.02,.2-.03,.05,.01,.06,.07,.1,.05,.03,0,.07,.02,.09,.03,.17,.11,.44,.17,.49,.41,.05,0,.2-.14,.19,0,.11-.02,.11-.06,.23,0,0,.05,.03,.06,.03,.12,.03,0,.08,.14,.11,.16,.06,.05,0,.17-.01,.23,.07-.01,.05,.14,.04,.18Zm-10.51,9.42c-.03-.05-.03-.11,.04-.11,.04,0,.1-.04,.1,.02,0,.06-.03,.05-.06,.11,.01,0,.08-.01,.08,.02-.09,0-.03,.03-.01,.07-.05,0-.02,.03-.06,.05-.04,.01-.05,.02-.11,.02,0-.06,.05-.11,.02-.17Zm9.8-30.67c.09,.1,.2,.15,.28,.25-.08,.03-.22-.18-.28-.2,.1,.03-.03-.04,0-.05Zm1.36,1.58c-.12,.04,.1,.12-.07,.13,.04,.05,0,.09,.03,.15-.04-.01-.07-.02-.1-.06-.01,.03-.03,.07-.04,.1-.06-.07,0-.12-.09-.04-.05-.06-.08-.1-.12-.16,.03,0,.05,0,.08,0-.02-.03-.07-.02-.06-.07,.02-.07-.03-.03-.06-.07,.02,0-.07-.28-.11-.26,.11,.13-.03,.03,.01,.08-.04,.01-.02-.05-.06,0-.01-.02-.03-.02-.05-.02-.08,.01-.04-.06-.04-.07-.01-.02-.03-.03-.04-.05,.03,0-.01-.01,.05-.03-.05-.06-.11-.09-.18-.17,.03,0,.06,.02,.08,.04,0-.09,.03-.05,.09-.03-.05-.06-.04-.1-.06-.16,0,0-.16-.03-.07-.06-.12-.14,.13,0,0-.14,.09,0,.09,.08,.13,.13,.02-.04,.02-.07,0-.11,.08,0,.11,.05,.14,.11,.04-.02,.15,.08,.18,.11-.02,.02-.05,.04-.07,.06,.04,.03,.04,.08,.08,.13,.04,.05,.06,.08,.09,.11,.05,.03,.26,.21,.18,.24,.03,.02,.05,.04,.08,.06-.02,0-.04-.01-.06-.02,.01,.02,.02,.04,.04,.06Zm.96,.11s-.06,0-.09,0c.03,.03,0,.07,.03,.1-.14,.01-.16-.02-.12,.14-.02,0-.18-.06-.11,.06-.04-.02,.03,.1,.01,.13-.04-.05-.09,0-.13-.06,.02-.03,.05-.07,.02-.11-.06-.06-.04-.21-.1-.27,.06-.02,.12-.03,.19-.05-.04-.05-.06-.1-.1-.15-.06,.05-.04,.06,0,.11-.04,.01-.08-.04-.11-.05,.02,.04,.02,.08-.02,.1-.02-.03-.03-.08-.08-.06,.02,.02,.02,.05,0,.07-.02,0-.14-.09-.11-.16,.03-.08-.06-.18-.11-.24-.01,.02-.03,.04-.05,.06-.03-.03-.01-.19-.06-.18-.03,0-.12-.04-.1-.08,.02-.03,.09,.05,.11,.05,.02,0,.06-.03,.08-.03,0-.03-.04-.02,0-.04-.02-.02-.18-.26-.22-.25,.06,.07-.26-.06-.14-.11-.05-.05-.1,.04-.16,.03,.01,.02,.03,.05,.05,.07-.03-.01-.09-.02-.1-.03-.02,0-.11-.17-.11-.16-.09-.03-.09-.16-.19-.17,.02,.07,0,0-.03,0,.02,.03,.04,.06,.05,.09-.09,.04-.11-.22-.2-.21,.01,.01,0,.03,0,.04-.01-.02-.21-.26-.23-.25-.04-.03-.2-.15-.1-.16-.07-.09-.15-.18-.24-.26,.04-.01,.07,.06,.1,.05-.02-.02-.03-.04-.05-.05,.07,0-.02-.03,0-.06,.1,.03,.16,.03,.21,.15,.03,.09,.07,.15,.14,.21,.02-.06,.02-.11,.08-.09-.03-.03,.03,0,0-.03,.13,.03,.19,.09,.27,.21,.02,.04,.03,.08,.05,.12,.03,.05,.07,.05,.11,.08,0,0,.04,.13,.07,.1,.08-.07,.42,.24,.48,.27,.13,.06,.32,.11,.42,.22-.04,0-.07-.04-.11-.03,.1,.1,.24,.19,.36,.28,.01-.03-.07-.08-.03-.1,.04-.02,.1,.01,.14,.04,.06,.04,.09,.11,.14,.16,.04,.06,.1,.11,.01,.12,.01,.03,.05,.06,0,.08,.05,.05,.05,.08,.12,.06,.03-.02,.07,.03,.07,.06,0,.02,0,.13,0,.13-.08-.05-.18,.02-.14,.04Z"/><path class="cls-1" d="M81.28,50.56c-.09,0-.18,.03-.26,.06,0,.04,.22-.05,.26-.06Z"/><path class="cls-1" d="M86.99,31.75s.03,.09,.04,.04c0-.03,0-.06-.04-.04Z"/></g><path class="cls-1" d="M55.77,44.24h-.84c0-10.78,8.74-19.55,19.48-19.55v.84c-10.28,0-18.64,8.39-18.64,18.7Z"/></g><g><path class="cls-1" d="M154.98,32.9c0,2.38-.44,4.63-1.33,6.75s-2.12,3.93-3.69,5.43c-1.98,1.86-4.31,3.28-6.99,4.23-2.68,.96-6.07,1.43-10.16,1.43h-6.49v20.43h-7.65V16.37h14.45c3.4,0,6.3,.27,8.69,.81,2.4,.54,4.51,1.41,6.34,2.61,2.14,1.4,3.81,3.17,5.02,5.32,1.21,2.15,1.82,4.74,1.82,7.78Zm-7.96,.18c0-1.89-.34-3.53-1.02-4.93-.68-1.4-1.72-2.54-3.11-3.42-1.21-.76-2.62-1.3-4.23-1.62-1.61-.32-3.61-.48-6.01-.48h-6.34v21.9h5.22c3.09,0,5.59-.24,7.5-.72,1.91-.48,3.49-1.33,4.75-2.56,1.13-1.1,1.96-2.31,2.47-3.61s.77-2.82,.77-4.56Z"/><path class="cls-1" d="M150.52,71.17l19.4-54.8h9.43l19.4,54.8h-8.08l-5.22-15.31h-21.99l-5.22,15.31h-7.73Zm32.81-21.53l-8.89-25.84-8.85,25.84h17.74Z"/><path class="cls-1" d="M247.19,43.83c0,5.01-1.06,9.52-3.19,13.54-2.13,4.02-4.98,7.16-8.56,9.42-2.91,1.74-5.87,2.91-8.87,3.5s-6.83,.88-11.5,.88h-13.26V16.37h13.1c5.41,0,9.65,.39,12.73,1.16,3.08,.77,5.7,1.83,7.86,3.18,3.71,2.33,6.58,5.43,8.62,9.29,2.04,3.86,3.05,8.47,3.05,13.82Zm-7.96-.11c0-4.22-.73-7.82-2.2-10.8-1.47-2.98-3.65-5.3-6.53-6.97-2.04-1.18-4.21-2.02-6.53-2.54-2.32-.52-5.2-.77-8.66-.77h-5.83v42.29h5.83c3.4,0,6.38-.26,8.93-.77,2.55-.52,4.88-1.47,6.99-2.87,2.65-1.72,4.65-4.01,5.99-6.86s2.01-6.42,2.01-10.69Z"/><path class="cls-1" d="M287.55,22.85h-26.78v15.46h25.66v6.48h-25.66v26.39h-7.65V16.37h34.43v6.48Z"/></g><path class="cls-1" d="M22.85,37.86l.14,.07c.96-.65,2.19-1.26,3.7-1.82,1.51-.56,3.2-.84,5.07-.84,2.3,0,4.51,.43,6.62,1.29,2.11,.86,3.96,2.08,5.54,3.66,1.58,1.58,2.84,3.47,3.78,5.67,.93,2.2,1.4,4.62,1.4,7.25,0,2.39-.43,4.69-1.29,6.89-.86,2.2-2.07,4.14-3.63,5.81-1.56,1.67-3.42,3-5.57,3.98-2.16,.98-4.51,1.47-7.05,1.47-3.07,0-5.71-.55-7.91-1.65-2.21-1.1-4.03-2.52-5.47-4.24-1.44-1.73-2.49-3.61-3.16-5.65-.67-2.04-1.01-3.99-1.01-5.86,0-3.07,.48-5.66,1.44-7.77,.96-2.11,1.99-3.96,3.09-5.54l16.11-23.45h2.45l-14.24,20.71Zm-6.69,15.93c0,2.07,.35,4.04,1.04,5.91,.69,1.87,1.7,3.53,3.02,4.97,1.32,1.44,2.92,2.59,4.82,3.46,1.89,.87,4.04,1.3,6.44,1.3s4.4-.43,6.29-1.3c1.89-.87,3.52-2.03,4.89-3.5,1.37-1.47,2.42-3.17,3.16-5.12,.74-1.95,1.11-4,1.11-6.16,0-2.74-.47-5.13-1.4-7.17-.94-2.04-2.13-3.72-3.6-5.05-1.46-1.32-3.08-2.32-4.86-2.99-1.77-.67-3.52-1.01-5.25-1.01-1.54,0-3.21,.3-5.03,.9-1.82,.6-3.52,1.56-5.11,2.88-1.58,1.32-2.9,3.04-3.96,5.15-1.05,2.12-1.58,4.69-1.58,7.71Z"/><path class="cls-1" d="M74.5,69.43c-3.55,0-6.87-.65-9.96-1.95-3.09-1.3-5.79-3.09-8.09-5.37-2.3-2.28-4.11-4.99-5.43-8.11-1.32-3.13-1.98-6.54-1.98-10.24s.66-7.12,1.98-10.24c1.32-3.13,3.13-5.83,5.43-8.11s5-4.08,8.09-5.37c3.09-1.3,6.41-1.95,9.96-1.95v-1.87c-3.84,0-7.42,.68-10.75,2.05-3.33,1.37-6.26,3.27-8.78,5.72-2.52,2.45-4.5,5.36-5.93,8.74-1.44,3.38-2.16,7.06-2.16,11.04s.72,7.66,2.16,11.04c1.44,3.38,3.42,6.29,5.93,8.74,2.52,2.45,5.44,4.35,8.78,5.72,3.33,1.37,6.92,2.05,10.75,2.05v-1.87Z"/><g><path class="cls-1" d="M82.31,15.73l1.39,.44,.82,4.07-1.18-.37-.14-.72-2.16-.68-.5,.52-1.19-.38,2.97-2.88Zm-.64,2.12l1.36,.43-.28-1.52-1.08,1.09Z"/><path class="cls-1" d="M90.88,19.69l1.33,1.1-.07,3.37h0s1.68-2.03,1.68-2.03l.86,.71-2.32,2.81-1.33-1.1,.07-3.37h0s-1.68,2.03-1.68,2.03l-.86-.71,2.32-2.81Zm1.12,.54c.3-.29,.84-.48,1.2-.18,.12,.1,.23,.28,.32,.44,.09,.17,.17,.32,.25,.39,.12,.1,.3,.07,.4-.03l.37,.3c-.34,.31-.76,.47-1.16,.15-.3-.25-.41-.65-.58-.79-.13-.11-.31-.08-.43,.03l-.37-.3Z"/><path class="cls-1" d="M97.59,28.31c.94-.51,1.44-.1,1.92,.78l.85,1.57c.48,.88,.54,1.53-.39,2.04l-.96,.52c-.94,.51-1.44,.1-1.92-.78l-.85-1.58c-.48-.88-.54-1.53,.39-2.04l.96-.52Zm-.1,1.36c-.46,.25-.59,.45-.34,.91l.68,1.26c.25,.47,.48,.47,.95,.21l.34-.19c.4-.22,.59-.44,.31-.96l-.62-1.15c-.28-.52-.58-.48-.97-.27l-.35,.19Z"/><path class="cls-1" d="M100.53,38.3l.13,1.11c-.38,.05-.4,.21-.36,.53l.17,1.36c.03,.24,.08,.47,.36,.44,.31-.04,.32-.17,.14-1.6-.2-1.67-.03-1.88,.86-1.99,.66-.08,1.17-.08,1.34,1.32l.19,1.55c.15,1.28-.26,1.45-.9,1.53h-.11s-.14-1.1-.14-1.1c.27-.03,.37-.08,.31-.58l-.15-1.23c-.03-.25-.14-.41-.33-.39-.31,.04-.31,.17-.16,1.36,.21,1.72,.16,2.14-.9,2.26-.98,.12-1.17-.19-1.35-1.67l-.16-1.34c-.12-1.01,.02-1.44,.8-1.53l.25-.03Z"/></g><g><path class="cls-1" d="M20.07,80.73h-3.62v2.19h3.47v.92h-3.47v3.74h-1.03v-7.77h4.65v.92Z"/><path class="cls-1" d="M24.27,87.75c-.46,0-.85-.06-1.2-.18-.34-.12-.63-.3-.87-.54-.27-.27-.46-.6-.57-.97-.11-.38-.17-.84-.17-1.4v-4.85h1.03v4.85c0,.36,.02,.66,.07,.91,.05,.25,.13,.47,.27,.66,.14,.21,.33,.37,.57,.47s.53,.16,.87,.16c.32,0,.61-.05,.86-.16s.44-.27,.58-.47c.13-.2,.22-.42,.26-.66,.05-.24,.07-.53,.07-.88v-4.88h1.03v4.85c0,.54-.05,1-.16,1.39s-.3,.71-.58,.98c-.25,.24-.53,.42-.86,.54-.33,.12-.73,.18-1.21,.18Z"/><path class="cls-1" d="M34.68,87.58h-1.16l-3.44-6.7v6.7h-.97v-7.77h1.47l3.13,6.15v-6.15h.97v7.77Z"/><path class="cls-1" d="M42.94,83.71c0,.71-.14,1.35-.43,1.92s-.67,1.02-1.16,1.34c-.39,.25-.79,.41-1.2,.5s-.92,.13-1.55,.13h-1.79v-7.77h1.77c.73,0,1.3,.05,1.72,.16s.77,.26,1.06,.45c.5,.33,.89,.77,1.16,1.32,.28,.55,.41,1.2,.41,1.96Zm-1.08-.02c0-.6-.1-1.11-.3-1.53-.2-.42-.49-.75-.88-.99-.28-.17-.57-.29-.88-.36-.31-.07-.7-.11-1.17-.11h-.79v6h.79c.46,0,.86-.04,1.21-.11,.34-.07,.66-.21,.95-.41,.36-.24,.63-.57,.81-.97,.18-.41,.27-.91,.27-1.52Z"/><path class="cls-1" d="M43.78,87.58l2.62-7.77h1.27l2.62,7.77h-1.09l-.71-2.17h-2.97l-.71,2.17h-1.04Zm4.43-3.05l-1.2-3.66-1.2,3.66h2.4Z"/><path class="cls-1" d="M54.62,87.73c-.51,0-.98-.09-1.4-.26-.43-.17-.79-.42-1.1-.76-.31-.34-.55-.76-.72-1.26-.17-.5-.26-1.08-.26-1.74s.08-1.22,.25-1.7c.16-.48,.41-.9,.72-1.26,.31-.35,.68-.61,1.1-.8,.42-.18,.9-.27,1.42-.27,.26,0,.51,.02,.73,.06,.23,.04,.44,.09,.63,.15,.17,.05,.34,.12,.51,.2,.18,.08,.35,.16,.52,.26v1.25h-.08c-.09-.08-.21-.19-.35-.3-.14-.12-.32-.24-.52-.35-.2-.11-.41-.2-.65-.27-.23-.07-.5-.1-.81-.1-.33,0-.64,.07-.94,.2-.3,.14-.56,.34-.78,.6-.22,.26-.39,.6-.51,1-.12,.4-.18,.85-.18,1.35,0,.53,.06,.99,.19,1.37,.13,.38,.3,.71,.53,.97,.22,.26,.47,.45,.76,.58,.29,.13,.6,.2,.93,.2,.3,0,.58-.04,.83-.11,.25-.07,.48-.16,.68-.28,.19-.11,.36-.22,.5-.33s.25-.21,.33-.29h.08v1.23c-.17,.08-.33,.16-.48,.23s-.33,.14-.55,.21c-.23,.07-.44,.13-.63,.17s-.44,.06-.75,.06Z"/><path class="cls-1" d="M61.28,87.58h-3.02v-.79h.99v-6.19h-.99v-.79h3.02v.79h-.99v6.19h.99v.79Z"/><path class="cls-1" d="M68.6,80.7c.3,.34,.52,.76,.69,1.27s.25,1.08,.25,1.73-.08,1.2-.24,1.71c-.16,.51-.39,.93-.69,1.28-.32,.36-.69,.63-1.11,.8-.42,.17-.89,.26-1.4,.26s-1-.09-1.42-.27c-.42-.18-.78-.44-1.09-.79-.3-.34-.53-.77-.69-1.27-.16-.5-.24-1.08-.24-1.71s.08-1.23,.24-1.72c.16-.49,.39-.92,.69-1.27,.3-.34,.66-.61,1.08-.79,.42-.18,.9-.27,1.42-.27s1.01,.09,1.43,.28c.43,.18,.78,.44,1.08,.78Zm-.14,3c0-.52-.06-.97-.17-1.37-.11-.4-.27-.73-.47-.99-.21-.27-.45-.47-.74-.6-.29-.13-.62-.2-.98-.2s-.7,.07-.98,.2c-.28,.13-.53,.33-.74,.61-.21,.26-.36,.6-.47,1s-.16,.85-.16,1.36c0,1.02,.21,1.8,.64,2.34,.43,.54,1,.81,1.72,.81s1.29-.27,1.72-.81c.43-.54,.64-1.32,.64-2.34Zm-.91-6.81l-1.43,1.95h-.78l.93-1.95h1.27Z"/><path class="cls-1" d="M76.79,87.58h-1.16l-3.44-6.7v6.7h-.97v-7.77h1.47l3.13,6.15v-6.15h.97v7.77Z"/><path class="cls-1" d="M87.72,82.16c0,.34-.06,.66-.18,.96-.12,.3-.29,.56-.5,.77-.27,.26-.58,.47-.95,.6-.36,.14-.82,.2-1.37,.2h-.88v2.9h-1.03v-7.77h1.95c.46,0,.85,.04,1.17,.11,.32,.08,.61,.2,.86,.37,.29,.2,.52,.45,.68,.75,.16,.3,.24,.67,.24,1.1Zm-1.08,.03c0-.27-.05-.5-.14-.7-.09-.2-.23-.36-.42-.49-.16-.11-.35-.18-.57-.23-.22-.05-.49-.07-.81-.07h-.86v3.11h.71c.42,0,.76-.03,1.01-.1,.26-.07,.47-.19,.64-.36,.15-.16,.26-.33,.33-.51,.07-.19,.1-.4,.1-.65Z"/><path class="cls-1" d="M88.43,87.58l2.62-7.77h1.27l2.62,7.77h-1.09l-.71-2.17h-2.97l-.71,2.17h-1.04Zm4.43-3.05l-1.2-3.66-1.2,3.66h2.4Z"/><path class="cls-1" d="M101.79,87.58h-1.16l-3.44-6.7v6.7h-.97v-7.77h1.47l3.13,6.15v-6.15h.97v7.77Z"/><path class="cls-1" d="M103.09,87.58l2.62-7.77h1.27l2.62,7.77h-1.09l-.71-2.17h-2.97l-.71,2.17h-1.04Zm4.43-3.05l-1.2-3.66-1.2,3.66h2.4Z"/><path class="cls-1" d="M117.56,87.58h-1.03v-6.7l-2.03,4.56h-.63l-2.01-4.56v6.7h-.97v-7.77h1.41l1.94,4.33,1.87-4.33h1.44v7.77Z"/><path class="cls-1" d="M119.69,87.58v-7.77h4.86v.92h-3.83v2.13h3.57v.92h-3.57v2.89h3.83v.92h-4.86Z"/><path class="cls-1" d="M132.26,87.58h-1.34l-2.46-3.09h-1.18v3.09h-1.03v-7.77h2c.45,0,.82,.02,1.12,.07,.3,.05,.59,.16,.86,.34,.27,.17,.49,.4,.64,.67s.24,.62,.24,1.02c0,.57-.14,1.05-.43,1.43-.29,.38-.68,.67-1.18,.85l2.77,3.38Zm-2.23-5.59c0-.23-.04-.43-.12-.6-.08-.18-.2-.32-.37-.43-.15-.1-.32-.17-.51-.21s-.44-.06-.73-.06h-1.02v2.93h.91c.3,0,.56-.03,.8-.08,.24-.05,.44-.16,.61-.32,.15-.15,.26-.32,.33-.52,.07-.2,.11-.44,.11-.71Z"/><path class="cls-1" d="M136.15,87.58h-3.02v-.79h.99v-6.19h-.99v-.79h3.02v.79h-.99v6.19h.99v.79Z"/><path class="cls-1" d="M141.02,87.73c-.51,0-.98-.09-1.4-.26-.43-.17-.79-.42-1.1-.76-.31-.34-.55-.76-.72-1.26-.17-.5-.26-1.08-.26-1.74s.08-1.22,.25-1.7c.16-.48,.41-.9,.72-1.26,.31-.35,.68-.61,1.1-.8,.42-.18,.9-.27,1.42-.27,.26,0,.51,.02,.73,.06,.23,.04,.44,.09,.63,.15,.17,.05,.34,.12,.51,.2,.18,.08,.35,.16,.52,.26v1.25h-.08c-.09-.08-.21-.19-.35-.3-.14-.12-.32-.24-.52-.35-.2-.11-.41-.2-.65-.27-.23-.07-.5-.1-.81-.1-.33,0-.64,.07-.94,.2-.3,.14-.56,.34-.78,.6-.22,.26-.39,.6-.51,1-.12,.4-.18,.85-.18,1.35,0,.53,.06,.99,.19,1.37,.13,.38,.3,.71,.53,.97,.22,.26,.47,.45,.76,.58,.29,.13,.6,.2,.93,.2,.3,0,.58-.04,.83-.11,.25-.07,.48-.16,.68-.28,.19-.11,.36-.22,.5-.33s.25-.21,.33-.29h.08v1.23c-.17,.08-.33,.16-.48,.23s-.33,.14-.55,.21c-.23,.07-.44,.13-.63,.17s-.44,.06-.75,.06Z"/><path class="cls-1" d="M144.12,87.58l2.62-7.77h1.27l2.62,7.77h-1.09l-.71-2.17h-2.97l-.71,2.17h-1.04Zm4.43-3.05l-1.2-3.66-1.2,3.66h2.4Z"/><path class="cls-1" d="M157.48,87.58h-1.16l-3.43-6.7v6.7h-.97v-7.77h1.47l3.13,6.15v-6.15h.97v7.77Z"/><path class="cls-1" d="M158.78,87.58l2.62-7.77h1.27l2.62,7.77h-1.09l-.71-2.17h-2.97l-.71,2.17h-1.04Zm4.43-3.05l-1.2-3.66-1.2,3.66h2.4Z"/><path class="cls-1" d="M175.39,82.16c0,.34-.06,.66-.18,.96-.12,.3-.29,.56-.5,.77-.27,.26-.58,.47-.95,.6-.36,.14-.82,.2-1.37,.2h-.88v2.9h-1.03v-7.77h1.95c.46,0,.85,.04,1.17,.11,.32,.08,.61,.2,.86,.37,.29,.2,.52,.45,.68,.75,.16,.3,.24,.67,.24,1.1Zm-1.08,.03c0-.27-.05-.5-.14-.7-.09-.2-.23-.36-.42-.49-.16-.11-.35-.18-.57-.23-.22-.05-.49-.07-.81-.07h-.86v3.11h.71c.42,0,.76-.03,1.01-.1,.26-.07,.47-.19,.64-.36,.15-.16,.26-.33,.33-.51,.07-.19,.1-.4,.1-.65Z"/><path class="cls-1" d="M176.09,87.58l2.62-7.77h1.27l2.62,7.77h-1.09l-.71-2.17h-2.97l-.71,2.17h-1.04Zm4.43-3.05l-1.2-3.66-1.2,3.66h2.4Z"/><path class="cls-1" d="M189.92,87.58h-1.34l-2.46-3.09h-1.18v3.09h-1.03v-7.77h2c.45,0,.82,.02,1.12,.07,.3,.05,.59,.16,.86,.34,.27,.17,.49,.4,.64,.67s.24,.62,.24,1.02c0,.57-.14,1.05-.43,1.43-.29,.38-.68,.67-1.18,.85l2.77,3.38Zm-2.23-5.59c0-.23-.04-.43-.12-.6-.08-.18-.2-.32-.37-.43-.15-.1-.32-.17-.51-.21s-.44-.06-.73-.06h-1.02v2.93h.91c.3,0,.56-.03,.8-.08,.24-.05,.44-.16,.61-.32,.15-.15,.26-.32,.33-.52,.07-.2,.11-.44,.11-.71Z"/><path class="cls-1" d="M190.25,87.58l2.62-7.77h1.27l2.62,7.77h-1.09l-.71-2.17h-2.97l-.71,2.17h-1.04Zm4.43-3.05l-1.2-3.66-1.2,3.66h2.4Z"/><path class="cls-1" d="M201.95,87.58v-7.77h4.86v.92h-3.83v2.13h3.57v.92h-3.57v2.89h3.83v.92h-4.86Z"/><path class="cls-1" d="M213.01,87.58h-4.5v-7.77h1.03v6.85h3.47v.92Z"/><path class="cls-1" d="M224.41,83.71c0,.71-.14,1.35-.43,1.92s-.67,1.02-1.16,1.34c-.39,.25-.79,.41-1.2,.5s-.92,.13-1.55,.13h-1.79v-7.77h1.77c.73,0,1.3,.05,1.72,.16s.77,.26,1.06,.45c.5,.33,.89,.77,1.16,1.32,.28,.55,.41,1.2,.41,1.96Zm-1.08-.02c0-.6-.1-1.11-.3-1.53-.2-.42-.49-.75-.88-.99-.28-.17-.57-.29-.88-.36-.31-.07-.7-.11-1.17-.11h-.79v6h.79c.46,0,.86-.04,1.21-.11,.34-.07,.66-.21,.95-.41,.36-.24,.63-.57,.81-.97,.18-.41,.27-.91,.27-1.52Z"/><path class="cls-1" d="M226.09,87.58v-7.77h4.86v.92h-3.83v2.13h3.57v.92h-3.57v2.89h3.83v.92h-4.86Z"/><path class="cls-1" d="M234.81,87.73c-.56,0-1.04-.06-1.44-.17-.39-.12-.77-.26-1.11-.43v-1.29h.07c.34,.32,.73,.57,1.16,.74,.43,.18,.85,.26,1.25,.26,.57,0,1-.12,1.29-.36s.44-.55,.44-.94c0-.31-.08-.56-.23-.76-.15-.19-.4-.34-.73-.43-.24-.07-.46-.13-.66-.17-.2-.05-.45-.11-.75-.18-.27-.07-.51-.16-.72-.27s-.4-.25-.56-.42c-.16-.17-.28-.37-.37-.6-.09-.23-.13-.5-.13-.8,0-.63,.25-1.16,.74-1.58,.49-.43,1.12-.64,1.88-.64,.43,0,.85,.04,1.23,.13,.39,.09,.75,.21,1.08,.37v1.24h-.08c-.25-.23-.56-.42-.95-.59s-.79-.25-1.22-.25c-.48,0-.87,.11-1.16,.34s-.44,.52-.44,.89c0,.33,.09,.59,.26,.79,.17,.19,.43,.34,.76,.43,.22,.06,.49,.13,.8,.2,.32,.08,.58,.14,.79,.21,.54,.16,.93,.41,1.17,.74,.25,.33,.37,.74,.37,1.22,0,.3-.06,.6-.19,.9-.12,.3-.3,.55-.52,.75-.25,.23-.53,.4-.85,.52-.32,.12-.71,.18-1.18,.18Z"/><path class="cls-1" d="M238.32,87.58l2.62-7.77h1.27l2.62,7.77h-1.09l-.71-2.17h-2.97l-.71,2.17h-1.04Zm4.43-3.05l-1.2-3.66-1.2,3.66h2.4Z"/><path class="cls-1" d="M252.14,87.58h-1.34l-2.46-3.09h-1.18v3.09h-1.03v-7.77h2c.45,0,.82,.02,1.12,.07,.3,.05,.59,.16,.86,.34,.27,.17,.49,.4,.64,.67s.24,.62,.24,1.02c0,.57-.14,1.05-.43,1.43-.29,.38-.68,.67-1.18,.85l2.77,3.38Zm-2.23-5.59c0-.23-.04-.43-.12-.6-.08-.18-.2-.32-.37-.43-.15-.1-.32-.17-.51-.21s-.44-.06-.73-.06h-1.02v2.93h.91c.3,0,.56-.03,.8-.08,.24-.05,.44-.16,.61-.32,.15-.15,.26-.32,.33-.52,.07-.2,.11-.44,.11-.71Z"/><path class="cls-1" d="M259.33,87.58h-1.34l-2.46-3.09h-1.18v3.09h-1.03v-7.77h2c.45,0,.82,.02,1.12,.07,.3,.05,.59,.16,.86,.34,.27,.17,.49,.4,.64,.67s.24,.62,.24,1.02c0,.57-.14,1.05-.43,1.43-.29,.38-.68,.67-1.18,.85l2.77,3.38Zm-2.23-5.59c0-.23-.04-.43-.12-.6-.08-.18-.2-.32-.37-.43-.15-.1-.32-.17-.51-.21s-.44-.06-.73-.06h-1.02v2.93h.91c.3,0,.56-.03,.8-.08,.24-.05,.44-.16,.61-.32,.15-.15,.26-.32,.33-.52,.07-.2,.11-.44,.11-.71Z"/><path class="cls-1" d="M266,80.7c.3,.34,.52,.76,.69,1.27s.25,1.08,.25,1.73-.08,1.2-.24,1.71c-.16,.51-.39,.93-.69,1.28-.32,.36-.69,.63-1.11,.8-.42,.17-.89,.26-1.4,.26s-1-.09-1.42-.27c-.42-.18-.78-.44-1.09-.79-.3-.34-.53-.77-.69-1.27-.16-.5-.24-1.08-.24-1.71s.08-1.23,.24-1.72c.16-.49,.39-.92,.69-1.27,.3-.34,.66-.61,1.08-.79,.42-.18,.9-.27,1.42-.27s1.01,.09,1.43,.28c.43,.18,.78,.44,1.08,.78Zm-.14,3c0-.52-.06-.97-.17-1.37-.11-.4-.27-.73-.47-.99-.21-.27-.45-.47-.74-.6-.29-.13-.62-.2-.98-.2s-.7,.07-.98,.2c-.28,.13-.53,.33-.74,.61-.21,.26-.36,.6-.47,1s-.16,.85-.16,1.36c0,1.02,.21,1.8,.64,2.34,.43,.54,1,.81,1.72,.81s1.29-.27,1.72-.81c.43-.54,.64-1.32,.64-2.34Z"/><path class="cls-1" d="M273.13,87.58h-4.5v-7.77h1.03v6.85h3.47v.92Z"/><path class="cls-1" d="M279.01,87.58h-4.5v-7.77h1.03v6.85h3.47v.92Z"/><path class="cls-1" d="M285.88,80.7c.3,.34,.52,.76,.69,1.27,.16,.5,.25,1.08,.25,1.73s-.08,1.2-.24,1.71c-.16,.51-.39,.93-.69,1.28-.32,.36-.69,.63-1.11,.8-.42,.17-.89,.26-1.4,.26s-1-.09-1.42-.27c-.42-.18-.78-.44-1.09-.79-.3-.34-.53-.77-.69-1.27-.16-.5-.24-1.08-.24-1.71s.08-1.23,.24-1.72c.16-.49,.39-.92,.69-1.27,.3-.34,.66-.61,1.08-.79,.42-.18,.9-.27,1.42-.27s1.01,.09,1.43,.28c.43,.18,.78,.44,1.08,.78Zm-.14,3c0-.52-.06-.97-.17-1.37-.11-.4-.27-.73-.47-.99-.21-.27-.45-.47-.74-.6-.29-.13-.62-.2-.98-.2s-.7,.07-.98,.2c-.28,.13-.53,.33-.74,.61-.21,.26-.36,.6-.47,1s-.16,.85-.16,1.36c0,1.02,.21,1.8,.64,2.34,.43,.54,1,.81,1.72,.81s1.29-.27,1.72-.81c.43-.54,.64-1.32,.64-2.34Z"/></g></svg>