<?xml version="1.0" encoding="utf-8"?>
<!-- Generator: Adobe Illustrator 26.5.3, SVG Export Plug-In . SVG Version: 6.00 Build 0)  -->
<svg version="1.1" id="Capa_1" xmlns="http://www.w3.org/2000/svg" xmlns:xlink="http://www.w3.org/1999/xlink" x="0px" y="0px"
	 viewBox="0 0 400 200" style="enable-background:new 0 0 400 200;" xml:space="preserve">
<style type="text/css">
	.st0{fill:#6C1E95;}
</style>
<polygon class="st0" points="171,0.2 169.2,24.5 149.8,26.2 156.6,31.9 159.1,36.6 166.4,45.7 173.8,50.6 179,50.6 182.5,56.8 
	183.5,63.4 186.7,67 194.5,67.5 199.6,70.3 199.7,76.4 195,81.7 135.9,82 108.2,125.8 109.1,133.2 109.9,135.6 109.1,140.3 
	111.1,144 112.2,145.1 111.9,149.1 107.7,152.3 105.9,157.4 104.3,158.7 111.7,167.8 117.4,177.1 124.4,177.8 130.8,185.5 
	155.1,194.8 169.4,195.2 180.4,193.8 198.1,200 201.5,194.8 201.9,190.1 210.5,180.8 221.8,178.2 229.8,175.7 229.8,170.8 
	242.5,161.4 248.2,149.1 245.8,141.1 253.2,133.4 265.1,121.2 272.1,121.4 285.1,113.9 288.1,105.8 294.1,101.5 295.7,97.6 
	292,94.6 283.7,93.6 281.4,99.3 274,94.2 267.4,94.2 264.4,89 259.4,89.3 256.7,87.9 250,87.5 251.4,1.6 251.2,1.5 "/>
</svg>
