<?xml version="1.0" encoding="utf-8"?>
<svg version="1.1" id="Capa_1" xmlns="http://www.w3.org/2000/svg" xmlns:xlink="http://www.w3.org/1999/xlink" x="0px" y="0px"
	 viewBox="0 0 400 200" style="enable-background:new 0 0 400 200;" xml:space="preserve">
<style type="text/css">
	.st0{fill:#42D6BF;}
</style>
<g id="Gráficos">
	<path class="st0" d="M234.7,99.1l0.8-1.6l-0.1-1.4L234.7,99.1L234.7,99.1z M115.8,96.7l0.8,0.1l0.3-1l-0.9-0.3L115.8,96.7z
		 M236,93.7l-0.2,1.3l0.3,0.3l0.5-1.6L236,93.7L236,93.7z M236.4,91.5l-0.3,1.3l0.6-0.3l0.3-1.1L236.4,91.5L236.4,91.5z M113.4,88.7
		l0.5,0.8l0.3,1.9l1-0.7l-0.3-1.4l-1.1-1.4L113.4,88.7z M88.1,0.7L65.6,1.1l0.3,2.3l1.3,4.8l1.1,2l1,1.4l-0.8,0.5l-0.3,1.4l0.6,1.8
		l2.5,3.1l-0.1,1l-0.6,0.6l0.4,1.1l2,1.8l0.3,1.9l-0.6,0.8l-0.2,1.9l1.1,1l0.5,1.1l0.1,3.2l0.8,2.5l1.6,1.5l1.1-0.1l2.6,2.6l1.4,1.9
		l0.4,1.4l2.3,2.3l0.9,2.9l0.8,0.3l1.3,2l-1.1,1.4l-0.1,1L87,54l-0.5,1.4l-1.1-0.5l-0.9,1l0.2,0.5l1.5,0.3L86.1,58l-0.7,0.9
		l-1.3-0.8l-2.3-0.4l-1.4-0.5l-2.5,0.2l-0.5,0.6l1.9,2.5l1.7,0.8l0.1,1.9l0.9,1.7l1.6,0.5l2.2,1v0.9l1.2-0.1l1.3,0.5l-0.3,0.7
		l0.7,1.4l1.3-0.5l1.3-0.1l1.6-1.9l0.8,0.3l-0.6,1.5l0.5,3l3.2,3.1l1.4,0.6l0.9-0.3l0.9,1.4l1.1,3.6l0.3,3.8l-0.6,3.1l-1.5,2.6
		l0.3,1.4l1.9,1.4l0.8-0.2l0.5,1.3l1.9,0.4l0.8,1.9l4,4.3l1.4,0.6l0.7,1.3l1.4,1.7l2,0.2l0.8,1.3l0.2,2.5l1.1,0.8l0.1,1.4l0.8,2
		l1.1,0.3l2.9-1.3l1.7-2.5l0.1-2.4l-1.1-0.7l-0.5-1.7l-0.8-0.8l-0.5-1.7l-1.4-0.8l-0.6-1.2l-0.9-1.3l-0.8-0.5l-0.5,0.4l0.1,1.3
		l-0.8,0.3l-0.3-1.1l-1.4-1.1l-1.7-2l-0.2-1.1l0.9-2l-0.1-2l-1.4-2l0.4-1.3l-0.1-1.1l-0.8-1.1l0.1-1.4l-1.1-1.2v-1.8l-0.5-0.8
		l-0.2-2.4l0.4-1.4l-0.5-3.5l-1.1-1.9l-0.5-1.3l-0.7-0.1l-0.1,0.8l0.1,1.1l-0.7,0.6l-1.7-2.5l-0.1-1.2l0.6-1.4l-0.8-1.3l-0.8-0.1
		l-0.5-3.8l-1.5-2.5l-0.8-0.3l-1.8-1.6L98.8,55l0.2-2l-1.5-2.5l-1.2-0.3l-0.8-0.8l-0.2-2l-1.3-1.3l-1.5-0.7L92,43.8l0.3-1.3
		l-0.5-2.5l-2.5-1.8l-0.8-1.4l-1-0.1l0.1-1.9l-1.3-2.7l-1-1.1l0.8-1.5l-0.3-6.5l-0.5-4l0.8-2.1l0.8-3.2L86.6,12l-0.7-2.2l1.3,2.2
		l2.5,1.1l1.7,2.6l1.1,0.9l1.5-0.3l0.8-0.7l1.5,1.4l0.5,1.1l1.9,0.1l2,1.1v0.9l-1.3,1.4l0.1,1.6l0.9,2.3L101,29l0.8,1.4l0.3,2.2
		l-0.4,1.3l0.7,1.6l2.3,3.2l-0.1,0.9l-0.5,0.8l0.6,1.3h0.8l0.7,1l1,3.1l1.3,0.6l0.5,1.4l0.2,2.2l0.7,0.8l1.3,0.3l1,2.2l0.5,1.6
		l1.3,1l0.4,0.8l1.3,0.1l0.7,0.5l1.3-0.5l1,0.8l-0.1,2.2l-0.8,1.1l0.3,2.5l3.2,2.9l1.1-0.1l1.1,0.4l-0.4,1.7l0.8,1.5l1.6,0.4
		l1.4-0.3l1.6,2l0.3,1.4l1.3,0.7l0.6-0.6l0.5,0.6l0.3,1.2l-0.7,0.8l-0.9-1l-1.3,0.4l-1.6,1.8l-0.9,2.6l0.3,1.9l1.5,1.1l1.7,0.1
		l1.1,0.9l3.7,2.9l2.2,0.5h1.1L138,89l0.7,1.7l0.8,1.1l-0.8,1.7l-1.1,0.5l0.1,0.7l1.5,0.8l2.8,1.1l0.1,1.1l0.8,0.6l2.5,2.2l2.9,3.7
		l2,3.8l3.1,3.1l0.1,1.9l3.5,4.3l0.3,1.9l-0.7,1.8l0.7,1.3l1,2.7l2,5.2l0.1,2l-1,1.7l-2,2.1l-0.3,1.1l0.9,0.1l1.1,1l-0.8,0.9
		l-2.2-0.1l-1.1,0.7v0.8l1.3,3.3l1.3,1.3v1.4l1.8,2.3l0.7,2.3l0.8,0.8h1.4l0.5,1.1l3,0.7l2-0.4l1.1,0.2l-0.8,1.1v0.8l2.3,0.8
		l2.4,2.3l1.6,2.5l1.4,2l1.9,0.7l0.8-0.3l1.9,0.8l1.2,0.1l3.7,1.4l1.4,0.1l0.5-0.7l1.1-0.1l0.8,1.1l4.6,4.4l1.3,0.2l2.7,2.8l4.1,1.6
		l4.7,0.7l2.2,1.1l1.1,1.9l2.6,0.2l2.5,1.2l1.4-0.5l0.5,0.4l1.3,2l2.4,1.1l1.5,0.1l0.7-0.2l1.8,1.1l3.5,1.4h3.2l2.5,1.4l4.7,1.7
		l1.9-0.1l4.8-2l2-0.1l2.5-1.7l1.9-0.3l2.4-0.2l0.9,0.1V184l-1.9-0.3h-1.5l0.1-0.8l2-1.3l0.7,0.3v1l1.1-0.6h1.3v0.8l-0.9,0.1
		l-0.4,0.4l0.7,0.3l1.4-0.1l1.7,0.6l2.9,1.9l1.3,1.1v-0.5l-2.2-2.2l-3.1-1.4l-0.1-0.5l0.7-0.1l0.3,0.3l1.9,0.3l1.6,1.4l1.6,2v0.8
		l0.8,1.1l6.5,5.4l2,0.6l0.3,1.1l2.6,2l1.4,1.8l0.3-0.3l0.3-1l0.8-0.7l0.1-0.8l-0.3-0.3l-0.4-0.8l0.2-0.9l-0.2-0.5l-0.2-1.4l5.6-8.9
		l12-0.1l0.9-1.1l-0.1-1.3l-1-0.6l-1.6-0.1l-0.7-0.7l-0.2-1.4l-0.7-1.3h-1.1l-1.4-1l-1.4-1.9l-0.5-0.9l-1.4-1.1l3.9-0.3l0.3-4.9
		l16.3,0.3l0.1-1.4l1-0.7l1.4,0.1l0.1,0.7l0.4,0.3l0.3-0.5l0.7-0.2l0.1-0.4l1.2-1.6l0.3-1.4l0.4-0.8l1.1-0.4l0.7,0.1l0,0l1.6-1.4
		l2-2.4l1.1-0.3l-0.2,1.9l-0.8,0.8l0.1,0.5l2,1.3l0.8,1.8l0.4-0.4l1.8-3.1l1.4-5.9l0.9-1.5l-0.8,0.1l-0.9,0.9l-0.8-0.4V153l2-2.3
		l0.3-1.4h-1.5l-1.3-1l0.6-0.7l1.9-1.1l0.2-2.5l0.8-1.4l4.1-3.7l2-3.5l1.4-2.4l-0.1-2l-2.7-3.5l-1.8,0.1l0.4,1.1l-1.1,0.4l-4.3-1.1
		l-3.7,0.1l0.1,0.9l-2.3,1.1l-0.8-0.8l-2.3,0.3l-1.4,1.9l-8-0.1l-6.1,1.4v1.4l1.4,0.1l-3.5,3.9l-0.3,5.9l0.3,0.7l-3.4,3.7v3.2
		l-1.8,2.2l-1.4,0.3l-4.2,2.3l0.3,0.3l1.9-1.3l-0.5,1.6l-0.1,2.6l-1.9,2.2l-1.1,0.1l-0.4,1l-1.1-1.1l-2.2-0.9l0.5-1.1l1.9-0.9
		l-2.6-0.7l-0.8,1.1l-2-0.6l-2.5,0.1l-1.7,1.4l-2.2,0.1l-3.3,0.3l-0.5,0.8l-3.9,2.3h-1.1l-0.8-0.9l-3.2,0.7l-2.3,1.1l-0.7-2.4
		l-2.1-3l-2.7-1.1l-0.6-0.7l-2.5-0.1l-0.8,0.2l-1.3-1.3l-3.9-4.7l-0.5-1.5l0.1-1.4l-1.7-2.5l-0.8-2l-5.2-5.5l-0.4-1.9l-1.1-1.6
		l0.7-1.3l-0.5-1.3l-1.1-3.8l-1.4-1.3l0.3-2l2,2.7l0.3,3.3l0.6-0.5l-0.1-2.8l-2.5-3.8l0.3-2l-0.6-3.6l-0.5-1.4l1.4-2l0.5-4.4
		l-0.5-2.9l1-4.7l-0.1-1.4l0.7-1.3l-0.6-0.8v-2.3l0.9-0.9l0.6-2.6l0.4-0.8l-1.3-0.9l1.1-1.4v-2.6l1.6,0.1l-0.3,1.7l-0.3,0.9l1.1-0.1
		l0.3-1.7l1.4-2l0.5-2l0.7-0.8l0.3-2.5l0.3-0.9l-1.3,1.1l-0.5,2.7l-1.7,1.1l0.5-1.4l-0.8-0.4l-0.6-1.1l-1.7-0.4l-1.8-0.8l-3.1-1.1
		l-1.5-1.4l-1.2-0.7l-1.2,0.2l-1.1-0.4l-0.3-0.3l-0.8-0.9l0.1-2.5l-1.9-5.5l-0.2-0.6v-0.5l0.2-1.7l0.2-1.7l-1.5-1.6l-0.8-1.5
		l-0.4-1.9l-1.4-0.8l-0.4-1.2l-0.8-0.5l-1.2-3.5l-0.5-1.3l-1-0.5l-0.1-2.2L213,48l-0.5-0.8l-0.7-2l-1.4-2.3l-1.9-1.5l-0.8-1.4
		l-1.3-0.7l-1.2,0.3l-0.4-0.5l-0.7-0.3l-1.8,0.1l-1.6-0.3H199l-0.5,1.1l-0.7,0.1l-0.2-0.3l-0.7-0.2l-1.1,0.4l-1,0.9l-1.4,2.5l-0.8,1
		l0.2,0.5l-0.2,0.8l-0.9,0.3l-1.4,1.1l-0.2,0.6l-0.8,0.3l-0.8-0.1l-0.6-0.7L186,46l-1.6-0.5l-0.3-0.7l-1.9-0.9h-1.1l-0.7-0.7
		l-0.1-0.6l-0.3-0.7l-0.8-0.3l-0.6,0.1l-0.8-0.8h-0.6l0.1-0.5l-0.4-1.3l-1.3-1.5l-1.6-2V35l1.1-0.3l1-0.6l-0.1-1.4l-1.1-1l-0.3-0.7
		l-0.5-0.1l-0.7-0.8l-0.2-2l-0.8-1.4l-1.3-0.8l-1.2-0.3l0.5-0.7l0.1-0.8l-1.4-1.2l-1.4-0.5l0.3-0.9l-0.8-1.3l-1-0.1l-0.2-0.8
		l-0.8-0.9l-1.4-2.1l-1.8-1.1l-15.2-0.5l-0.2,3.5l-26.3-0.8l-32-14.7l0.3-0.8L88.1,0.7L88.1,0.7z"/>
</g>
</svg>
