<?xml version="1.0" encoding="UTF-8"?><svg id="Gráficos" xmlns="http://www.w3.org/2000/svg" viewBox="0 0 184 170"><defs><style>.cls-1,.cls-2,.cls-3{fill:#fff;}.cls-4{fill:#6c1e95;}.cls-2{opacity:.61;}.cls-3{opacity:.3;}</style></defs><g><polygon class="cls-4" points="93 42.45 110.68 22 115.78 48.55 141.32 39.68 132.45 65.22 159 70.32 138.55 88 159 105.68 132.45 110.78 141.32 136.32 115.78 127.45 110.68 154 93 133.55 75.32 154 70.22 127.45 44.68 136.32 53.55 110.78 27 105.68 47.45 88 27 70.32 53.55 65.22 44.68 39.68 70.22 48.55 75.32 22 93 42.45"/><path class="cls-1" d="M76.05,91.81c3.57,4.06,7.14,8.13,10.71,12.19,1.32,1.51,3.96,1.38,5.3,0,8.71-8.99,17.42-17.98,26.13-26.98,3.36-3.47-1.94-8.78-5.3-5.3-8.71,8.99-17.42,17.98-26.13,26.98h5.3c-3.57-4.06-7.14-8.13-10.71-12.19-3.19-3.63-8.48,1.69-5.3,5.3h0Z"/></g><g><circle class="cls-2" cx="154" cy="141" r="5"/><circle class="cls-3" cx="28.5" cy="53.5" r="17.5"/></g></svg>