<?xml version="1.0" encoding="utf-8"?>
<!-- Generator: Adobe Illustrator 26.5.3, SVG Export Plug-In . SVG Version: 6.00 Build 0)  -->
<svg version="1.1" id="Header" xmlns="http://www.w3.org/2000/svg" xmlns:xlink="http://www.w3.org/1999/xlink" x="0px" y="0px"
	 viewBox="0 0 350 150" style="enable-background:new 0 0 350 150;" xml:space="preserve">
<style type="text/css">
	.st0{fill:#FFFFFF;}
</style>
<g>
	<path class="st0" d="M260.4,68.2c-0.8-0.9-1.1-2.2-1.1-4v-17h-2.4c-2.2,0-3.9-1.5-3.9-3.7h6.7v-3.6c0-1.5,1-2.9,2.5-3.3l2.7-0.8
		v7.7h6.3v3.7h-6.4v15.9"/>
	<path class="st0" d="M264.8,48.3v14.8c0,0.8,0.4,2.4,2.1,2.4c2,0,3.9-0.8,4.9-1.2l1.2,3.1c-2.6,1.5-4.6,2.2-8.3,2.2
		c-2.1,0-3.6-0.5-4.3-1.4s-1.1-2.2-1.1-4V48.3"/>
	<path class="st0" d="M235.1,54.6c-2,0-3.4,0.4-4.2,1.2v9.1c2,0.8,3,1.2,4.4,1.7l-0.4,3.1h-11.4l-0.4-3.1c0.4-0.5,1.1-1,2.2-1.3v-11
		c-0.9-0.3-3.5-0.6-4-1.2v-3.1c1.5-0.3,5-0.6,6.2-0.6s2.1,0,2.9,0.1v2.5c0.6-0.7,1.4-1.3,2.3-1.8c1-0.5,1.8-0.7,2.6-0.7
		c0.8,0,1.3,0.1,1.6,0.2l-0.1,5.2C236.2,54.6,235.7,54.6,235.1,54.6"/>
	<path class="st0" d="M239.3,52.6c0-0.4,0-0.8,0-1.3c2.4-1.3,5.2-2,7.9-2c2.8,0,4.9,0.5,6.1,1.6c1.2,1.1,1.8,2.9,1.8,5.3v8.5
		c0.8,0.7,2.1,1,4.4,0.1l1.3,3.4c-2,1.1-4.3,1.8-6.6,1.9c-1.7,0-3.1-1.1-3.4-2.8v0c-1.1,1.7-3.2,2.5-6.2,2.5c-1.8,0-3.3-0.5-4.5-1.5
		c-1.3-1-1.9-2.4-1.9-4.2c0-1.8,0.6-3.2,1.8-4.2c1.2-1,2.9-1.5,5.3-1.5h4.3v-1.9c0-2.1-1.1-3.1-3.3-3.1c-0.7,0-1.4,0.1-2,0.2
		c-0.1,1.1-0.2,2-0.5,2.6H240C239.6,55.3,239.4,54.1,239.3,52.6 M246.5,65.8c1.4,0,2.4-0.4,3.2-1.2v-3.3h-2.8
		c-1.9,0-2.9,0.7-2.9,2.2c0,0.6,0.2,1.2,0.6,1.6C245.1,65.6,245.7,65.8,246.5,65.8"/>
	<path class="st0" d="M280,69.8c-3.1,0-5.5-0.8-7-2.5s-2.3-4.2-2.3-7.6c0-3.4,0.8-6,2.5-7.7c1.7-1.8,4.1-2.7,7.3-2.7
		c3.2,0,5.5,0.8,7,2.4c1.5,1.6,2.3,4.1,2.3,7.4c0,3.4-0.9,6-2.6,7.9C285.5,68.9,283.1,69.8,280,69.8 M276.5,59.4
		c0,4.2,1.3,6.4,3.8,6.4c1.3,0,2.3-0.5,2.9-1.4s0.9-2.5,0.9-4.7c0-4.1-1.3-6.2-3.9-6.2c-1.3,0-2.2,0.5-2.8,1.4
		C276.8,55.7,276.5,57.2,276.5,59.4"/>
	<path class="st0" d="M196.6,109.9h-14.4l-0.6-4.9c0.5-0.7,1.5-1.3,3.1-1.9V76.1c-1.5-0.6-2.6-1.3-3.1-2l0.6-4.9h12.6
		c6,0,10.8,1.8,14.4,5.3c3.5,3.5,5.3,8.7,5.3,15.6c0,6.9-1.6,11.9-4.8,15S202.1,109.9,196.6,109.9 M192.9,103.5h4.1
		c2.8,0,5-0.9,6.7-2.7c1.6-1.8,2.4-5.3,2.4-10.4c0-9.8-3.5-14.7-10.6-14.7h-2.5L192.9,103.5z"/>
	<path class="st0" d="M217.9,83.9c1.8-0.4,3.6-0.7,5.4-0.7c1.7,0,3.1,0.1,4.2,0.2v20.8c1.4,0.5,2.3,1.1,2.9,1.8l-0.5,4h-12l-0.5-4
		c0.5-0.7,1.4-1.2,2.9-1.8V89.6c-1.2-0.4-2.2-1-2.9-1.8L217.9,83.9z M223.8,80.3c-2.9,0-4.3-1.3-4.3-3.9c0-2.6,1.4-3.9,4.3-3.9
		c2.9,0,4.3,1.3,4.3,3.9C228.2,79,226.7,80.3,223.8,80.3"/>
	<path class="st0" d="M244.5,115.4c3.1,0,4.6-1.9,4.6-5.6v-2.3c-1.7,1-3.8,1.6-6.4,1.6c-3.3,0-5.8-1-7.5-2.9
		c-1.8-1.9-2.6-5.1-2.6-9.5c0-8.8,4.1-13.3,12.2-13.3c1.8,0,3.6,0.3,5.2,1.1c0.2,0.1,1-3.2,2.5-3.2h4v28.2c0,3.8-0.9,6.6-2.8,8.5
		c-1.9,1.8-4.8,2.8-8.8,2.8c-2.2,0-4.3-0.3-6.5-0.7c-2.2-0.5-3.9-1.1-5-1.8c0-0.3-0.1-0.6-0.1-0.9c0-1.9,0.5-3.8,1.4-5.5h4.6
		c0.4,0.7,0.7,1.7,0.8,2.9C241.4,115.2,242.9,115.4,244.5,115.4 M240.8,101.9c0.7,1,1.9,1.6,3.6,1.6c1.7,0,3.3-0.5,4.7-1.5V89.6
		c-1.4-0.6-3-0.9-4.5-0.9c-3.2,0-4.8,2.6-4.8,7.7C239.7,99,240.1,100.8,240.8,101.9"/>
	<path class="st0" d="M260.9,83.9c1.7-0.4,3.4-0.6,5.2-0.6c1.5,0,2.8,0,3.8,0.1V86c0.9-0.7,2-1.3,3.5-1.8c1.3-0.5,2.7-0.7,4.1-0.7
		c3.4,0,5.8,0.8,7.2,2.4c1.4,1.6,2.1,4.4,2.1,8.3v10c1,0.1,2.4,0.7,3.5,1.4l-0.5,4.3H277l-0.5-4c0.5-0.7,1.4-1.2,2.9-1.8V93.8
		c0-1.9-0.3-3.1-0.9-3.8s-1.7-1-3.3-1c-1.6,0-3.1,0.6-4.7,1.7v13.4c1.4,0.5,2.3,1.1,2.9,1.8l-0.5,4h-12l-0.5-4
		c0.5-0.7,1.4-1.2,2.9-1.8V89.6c-1.2-0.4-2.2-1-2.9-1.8L260.9,83.9z"/>
	<path class="st0" d="M303.4,110.3c-4.1,0-7.2-1.1-9.1-3.3c-2-2.2-3-5.5-3-9.9c0-4.4,1.1-7.8,3.3-10.1c2.2-2.3,5.4-3.5,9.5-3.5
		c4.1,0,7.2,1,9.2,3.1c2,2.1,3,5.3,3,9.8c0,4.4-1.1,7.9-3.4,10.3S307.5,110.3,303.4,110.3 M298.8,96.7c0,5.6,1.7,8.3,5,8.3
		c1.7,0,3-0.6,3.8-1.9c0.8-1.3,1.2-3.3,1.2-6.2c0-5.4-1.7-8.1-5.1-8.1c-1.7,0-2.9,0.6-3.7,1.8C299.2,91.8,298.8,93.8,298.8,96.7"/>
	<path class="st0" d="M176.5,55.4c-0.6,1.1-1.3,1.9-2.1,2.3c-0.8,0.5-1.8,0.7-3.1,0.7c-1.3,0-2.4-0.3-3.4-0.8
		c-0.9-0.5-1.6-1.2-2.1-2.1c-0.5-1-0.8-2.1-0.8-3.3c0-1.2,0.2-2.3,0.8-3.3c0.5-0.9,1.2-1.7,2.1-2.2c2-1.1,4.4-1.1,6.5,0
		c0.9,0.5,1.6,1.3,2.1,2.5l0.2,0.5h2.4v-6.3h-2.8v1.5c-0.2-0.2-0.5-0.4-0.8-0.6c-1.3-0.8-2.8-1.2-4.6-1.2s-3.4,0.4-4.8,1.2
		c-1.4,0.8-2.5,1.9-3.3,3.3c-1.6,3-1.6,6.5,0,9.5c0.8,1.4,1.9,2.5,3.3,3.3c1.4,0.8,3.1,1.2,5,1.2c1.9,0,3.4-0.4,4.7-1.2
		c1.3-0.8,2.3-1.9,3.1-3.5l0.4-0.7l-2.7-1.4L176.5,55.4z"/>
	<path class="st0" d="M190.1,49.1c-2.1-1.1-4.7-1.1-6.8,0c-1,0.6-1.8,1.4-2.3,2.4c-1,2.1-1,4.6,0,6.7c0.5,1,1.3,1.8,2.3,2.4
		c2.1,1.1,4.7,1.1,6.8,0c1-0.6,1.8-1.4,2.3-2.4c1.1-2.1,1.1-4.6,0-6.7C191.8,50.5,191,49.7,190.1,49.1z M186.6,58.6
		c-1.1,0-1.9-0.3-2.5-1c-0.6-0.7-1-1.6-1-2.8s0.3-2.1,1-2.8c0.6-0.7,1.5-1,2.5-1c1.1,0,1.9,0.3,2.5,1c0.6,0.7,1,1.6,1,2.8
		s-0.3,2.1-1,2.8S187.7,58.6,186.6,58.6L186.6,58.6z"/>
	<path class="st0" d="M221.9,47.1v-3.7h-6.3v-7.7l-2.7,0.8c-1.5,0.4-2.4,1.8-2.4,3.3v3.6h-6.7c0,2.2,1.8,3.7,3.9,3.7h2.4v15.4h-1.6
		c-1.1,0-1.9-0.9-1.9-1.9v-7.9c0-1.5-0.4-2.6-1.2-3.4s-1.9-1.1-3.3-1.1c-0.9,0-1.8,0.2-2.7,0.5c-0.3,0.1-0.6,0.3-0.9,0.4v-0.7h-5.2
		v2.7h2.2v7.2h-2.1v2.7h7v-2.7h-1.9v-6.3c0.9-0.7,2-1,3.1-1c0.7,0,1.2,0.1,1.4,0.4c0.3,0.3,0.4,0.7,0.4,1.4V61c0,2.4,2,4.5,4.2,4.5
		h2.4c0.1,1.1,0.5,2,1.1,2.7c0.8,0.9,2.2,1.4,4.3,1.4c2.2,0,4.3-0.5,6.3-1.5l-1.2-3.1c-0.9,0.4-1.9,0.6-2.9,0.6
		c-0.9,0-1.5-0.2-1.7-0.6c-0.2-0.4-0.4-1-0.4-1.8V47.1H221.9z"/>
	<path class="st0" d="M139.8,54.7c-0.1-1.5,0.1-2.9,1.1-4.1c0.8-1,2-1.5,3.4-1.5c0.2,0,0.4,0,0.6,0.1c1.1,0.6,2.2,1.3,2.6,2.4
		c0.4,1,0.7,1.9,1,2.9c0.6,1.9,1.1,3.7,1.7,5.6c0,0.1,0.1,0.3,0.1,0.5c0,0.5-0.4,0.8-0.9,0.6c-1.1-0.4-2.3-0.7-3.2-1.2
		c-1.9-1.1-3.8-2.3-5.6-3.4c-0.3-0.2-0.4-0.4-0.5-0.7C139.9,55.4,139.8,55,139.8,54.7"/>
	<path class="st0" d="M177,102.6c-1.3-0.6-2.6-1.1-3.8-1.8c-1.1-0.6-2-1.3-3-1.9c-1.7-1-3.1-2.1-4.5-3.4c-1.1-1.1-2.4-1.8-3.9-2.3
		c-0.3-0.1-0.6-0.1-1-0.1c-1.3,0.1-2.5,0.3-3.7,0.5l2.6,11.5c2.8-0.2,6.1-0.2,8.6-0.4c0.2,0,0.5,0,0.7-0.1c2.5-0.3,5.1-0.6,7.6-0.8
		c0.4,0,0.8-0.1,0.9-0.5C177.7,102.9,177.3,102.7,177,102.6"/>
	<path class="st0" d="M169.6,74.5c-0.3-1.3-1-2.5-2.5-3.1c-2.1-0.8-4.2-1.6-6.4-2.4c-2.2-0.8-4.4-1.7-6.5-2.9
		c-1.7-1-3.6-1.7-5.3-2.7c-2.7-1.5-5.3-3-7.8-4.6c-2.6-1.7-5.2-3.4-7.6-5.4c-7.2-5.9-16.8-18.3-19.9-23.9c-1.8-3.2-4-2.8-4-2.8
		c0.1,1.6,3.9,15.8,21.5,39v14c0.5,0.2,0.9,0.5,1.4,0.7c2.6,1.2,5.4,2,8.3,2.5c2.2,0.4,4.5,0.6,6.8,0.6c1.9,0,3.7,0,5.6,0
		c0.2,0,0.4,0,0.5-0.2c0,0.2,0,0.4,0.1,0.7c0,0.5,0.1,1,0.2,1.5c-1.6,0.1-3.2,0.2-4.7,0.2c-1.5,0-3-0.1-4.5-0.2
		c-0.8-0.1-1.7-0.2-2.5-0.2c-0.8-0.1-7.5-1.2-9.8-2.2c-0.4-0.2-0.8-0.3-1.2-0.5v19.8c0,1.3,1.1,2.4,2.4,2.4c0,0,0,0,0,0
		c3.1,0,8.2-0.1,10-0.1c-0.5-2.7-1.4-12.2-1.4-13c0-0.3,0.8-0.5,0.9-0.2c0.5,2.1,2.1,12.7,2.3,13.9c0,0.1,0,0.1,0.1,0.2
		c0.4,2.1,1.7,14.1,2.2,16.9c0.1,0.7,0.7,1,1.5,0.6c0.6-0.3,0.9-0.7,1.1-1.2c0.5-0.9,1-1.6,1.8-2.5c2.2-2.7,2.9-3.5,4.8-5.8
		c1.2-1.5,2.4-2.5,2.3-4.3c-0.1-2.1-0.8-3.9-0.8-4.1c-1.6-7-2.4-12.4-2.5-12.7c-0.2-1.1-0.5-2.2-0.7-3.3c1.2-1,3.9-2.9,4.8-3.7
		c0.9-0.8,1.7-1.7,2.7-2.4c1.8-1.3,3.5-2.7,5.1-4.3C168.8,77.6,170,76.2,169.6,74.5 M153.4,80.7c0,0.3,0,0.5,0.1,0.8
		C153.4,81.3,153.4,81,153.4,80.7L153.4,80.7l-0.1-0.6c0-0.5-0.1-1-0.2-1.4c-0.2-1.4-0.5-2.8-0.7-4.2c-0.1-0.5,0.2-1,0.7-1.1
		c0,0,0,0,0,0c0.2-0.1,0.4,0,0.7,0l0,0h0c0.1,0,0.2,0.1,0.3,0.2l4.7,2.8L153.4,80.7z"/>
	<path class="st0" d="M99.1,37.3c0.9,0.1,2.2,0.3,3.3,0.7c5.3-7.2,6.9-11.2,6.9-11.2h-1.5c-2.4,0-4.7,1.1-6.2,3.1
		c-1.1,1.4-2.3,3-3.7,4.5C98.6,35.3,99,36.5,99.1,37.3z"/>
	<path class="st0" d="M98.4,38.6l-0.6,0L97.8,38c-0.1-0.6-0.3-1.8-0.8-2.6c-4.2,4.5-6.6,8.2-16.8,12.8c-2.1,0.9-4.1,2.1-6.2,3.2
		c-0.3,0.1-2,0.8-2.3,0.9l0,0c-1.9,1-3.8,1.9-5.7,2.9c-0.2,0.1-0.4,0.2-0.5,0.3l0,0c0,0-1.1,0.9-2.4,1.7c-0.7,0.5-1.4,1-2.1,1.5
		c-3.5,2.3-6.6,5.2-9.2,8.6c-1.6,2.1-3,4.4-4.2,6.9c0.6,0.3,2,0.5,3.4,0.4l0.6,0l0.1,0.6c0.1,0.6,0.6,2.1,1.3,2.8
		c6.5-8.7,12.7-11.9,12.8-11.8c0,0-0.5,4.5-2.8,8.6c3.7,0.4,13.7,1.3,22.2-0.9v-15c8.1-7.7,12.5-14.3,16.3-19.4
		C100.5,38.8,99.5,38.7,98.4,38.6z"/>
	<circle class="st0" cx="70.1" cy="46.2" r="5.2"/>
	<circle class="st0" cx="62.4" cy="42.9" r="3.3"/>
	<path class="st0" d="M85,116.5V75.7c-11.4,2.6-22.8,0.6-22.8,0.6c-2.7,3.1-3.8,7.2-4.1,11.4c-0.5,5.6-3.4,17.7-8.6,27.4
		c-0.5,0.9-0.4,2.1,0.3,2.9l3.3,3.6h10.9c0.2,0,0.3-0.1,0.3-0.3c0-0.1-0.1-0.2-0.1-0.3l-0.4-0.2c-1.2-0.7-1.6-2.1-1.1-3.4
		c2.5-5.6,6.7-16.5,9-30.6c0.1-0.4,0.6-0.3,0.6,0.1c0,0,2.1,13.6-1,31.8c-0.2,1.3,0.7,2.6,2,2.8c0.1,0,0.3,0,0.4,0h14
		c0.2,0,0.3-0.1,0.3-0.3c0-0.1-0.1-0.2-0.2-0.3l-0.4-0.2C85.9,119.9,85,118.2,85,116.5z"/>
	<path class="st0" d="M50.5,75.8c-1,0-2.5,0-3.5-0.5c-0.4,0.9-0.8,1.8-1.1,2.8c-0.9,2.4-1.6,4.8-2,7.2c-1.2,3.5-2.1,7.1-2.7,10.7
		c-1,0-2,0.6-2.5,1.5c-1.2,2.2-2.8,4.9-4.9,5.9c0,0,0.7,0.4,2.4,1l2.9-4.2l-1.9,4.6c0.5,0.2,1,0.3,1.6,0.4l1.9-4.7l-0.7,5
		c0.6,0.1,1.1,0.2,1.9,0.3l0.5-4.7l0.4,4.9c0.8,0.1,1.5,0.2,2.5,0.2c-1-2.3-1.4-4.8-1.1-7.2c0.1-1.1-0.6-2.2-1.6-2.7
		c0.2-1.2,0.8-4,1.7-7.2c1.4-0.1,2.6-0.9,3.2-2.1c1.4-2.8,3-5.5,4.8-8.1C51.3,78,50.7,76.6,50.5,75.8z"/>
</g>
</svg>
