<?xml version="1.0" encoding="utf-8"?>
<!-- Generator: Adobe Illustrator 26.5.3, SVG Export Plug-In . SVG Version: 6.00 Build 0)  -->
<svg version="1.1" id="Header" xmlns="http://www.w3.org/2000/svg" xmlns:xlink="http://www.w3.org/1999/xlink" x="0px" y="0px"
	 viewBox="0 0 150 150" style="enable-background:new 0 0 150 150;" xml:space="preserve">
<style type="text/css">
	.st0{fill:#FFFFFF;}
</style>
<g>
	<g>
		<path class="st0" d="M75.7,80.1v5.3h4.4v2.5h-4.4v10.9c0,0.5,0.1,1,0.3,1.3c0.1,0.3,0.5,0.4,1.2,0.4c0.6,0,1.3-0.1,1.9-0.4
			l0.8,2.1c-1.4,0.8-2.8,1-4.3,1c-1.4,0-2.5-0.3-3-0.9c-0.5-0.6-0.8-1.6-0.8-2.7V87.9h-1.6c-1.6,0-2.7-1-2.7-2.5h4.5v-2.5
			c0-1,0.6-1.9,1.7-2.3L75.7,80.1L75.7,80.1z"/>
		<path class="st0" d="M106.3,102.3c-0.5-0.6-0.8-1.6-0.8-2.7V88h-1.7c-1.6,0-2.7-1-2.7-2.5h4.5v-2.5c0-1,0.6-1.9,1.7-2.3l1.8-0.5
			v5.3h4.4V88h-4.4v10.9"/>
		<path class="st0" d="M109.4,88.8v10.1c0,0.5,0.3,1.7,1.4,1.7c1.4,0,2.7-0.5,3.4-0.9l0.8,2.1c-1.8,1-3.1,1.6-5.7,1.6
			c-1.4,0-2.5-0.3-3-0.9c-0.5-0.6-0.8-1.6-0.8-2.7V88.8"/>
		<path class="st0" d="M89,93c-1.4,0-2.3,0.3-2.8,0.8v6.2c1.4,0.5,2.1,0.8,3,1.2l-0.3,2.1h-7.8l-0.3-2.1c0.3-0.4,0.8-0.6,1.6-0.9
			v-7.5c-0.6-0.3-2.5-0.4-2.7-0.8v-2.1c1-0.3,3.5-0.4,4.3-0.4s1.4,0,1.9,0v1.7c0.4-0.5,0.9-0.9,1.6-1.2c0.6-0.3,1.3-0.5,1.8-0.5
			c0.5,0,0.9,0,1,0.1l-0.1,3.5C89.9,93,89.4,93,89,93"/>
		<path class="st0" d="M92,91.7c0-0.3,0-0.5,0-0.9c1.7-0.9,3.5-1.4,5.4-1.4s3.4,0.4,4.1,1c0.8,0.6,1.3,1.9,1.3,3.6v5.8
			c0.5,0.4,1.4,0.8,3,0l0.9,2.3c-1.4,0.8-3.1,1.2-4.5,1.3c-1.2,0-2.2-0.8-2.3-1.9l0,0c-0.8,1.2-2.2,1.7-4.3,1.7
			c-1.2,0-2.2-0.4-3.1-1c-0.9-0.8-1.3-1.7-1.3-2.8s0.4-2.2,1.2-2.8c0.8-0.6,2.1-1,3.6-1h3v-1.3c0-1.4-0.8-2.1-2.3-2.1
			c-0.5,0-1,0-1.4,0.1c0,0.8-0.1,1.3-0.3,1.8h-2.7C92.1,93.5,92,92.6,92,91.7 M96.9,100.8c0.9,0,1.7-0.3,2.2-0.8v-2.2h-1.9
			c-1.3,0-1.9,0.5-1.9,1.6c0,0.4,0.1,0.8,0.4,1.2S96.4,100.8,96.9,100.8"/>
		<path class="st0" d="M119.8,103.5c-2.2,0-3.7-0.5-4.8-1.7s-1.6-2.8-1.6-5.2c0-2.3,0.5-4.1,1.7-5.3c1.2-1.2,2.8-1.8,4.9-1.8
			s3.7,0.5,4.8,1.7c1,1,1.6,2.8,1.6,5c0,2.2-0.5,4.1-1.8,5.4C123.5,102.8,121.8,103.5,119.8,103.5 M117.3,96.4
			c0,2.8,0.9,4.4,2.6,4.4c0.9,0,1.6-0.4,1.9-1c0.4-0.6,0.6-1.7,0.6-3.2c0-2.8-0.9-4.3-2.7-4.3c-0.9,0-1.6,0.3-1.9,0.9
			C117.6,93.8,117.3,94.8,117.3,96.4"/>
		<path class="st0" d="M37,125.2h-9.8l-0.4-3.4c0.4-0.4,1-0.9,2.1-1.3v-18.5c-1-0.4-1.8-0.9-2.1-1.4l0.4-3.4h8.7
			c4.1,0,7.4,1.2,9.8,3.6c2.5,2.5,3.6,5.9,3.6,10.6s-1,8.1-3.2,10.3C43.7,124.2,40.7,125.2,37,125.2 M34.4,120.8h2.8
			c1.9,0,3.5-0.6,4.5-1.8s1.7-3.6,1.7-7.1c0-6.7-2.5-10.1-7.2-10.1h-1.7L34.4,120.8L34.4,120.8z"/>
		<path class="st0" d="M51.6,107.4c1.3-0.3,2.6-0.5,3.7-0.5c1.2,0,2.1,0,2.8,0.1v14.2c0.9,0.4,1.6,0.8,1.9,1.2l-0.4,2.7h-8.1
			l-0.4-2.7c0.4-0.4,1-0.9,1.9-1.2v-9.9c-0.8-0.3-1.6-0.6-1.9-1.2C51.2,110.1,51.6,107.4,51.6,107.4z M55.6,104.9
			c-1.9,0-3-0.9-3-2.7s1-2.7,3-2.7s3,0.9,3,2.7S57.5,104.9,55.6,104.9"/>
		<path class="st0" d="M69.6,128.9c2.1,0,3.1-1.3,3.1-3.7v-1.6c-1.2,0.8-2.6,1-4.4,1c-2.2,0-4-0.6-5.2-1.9s-1.8-3.5-1.8-6.5
			c0-6.1,2.8-9,8.3-9c1.3,0,2.5,0.3,3.6,0.8c0.1,0.1,0.6-2.2,1.7-2.2h2.7v19.2c0,2.6-0.6,4.5-1.9,5.8c-1.3,1.3-3.4,1.9-5.9,1.9
			c-1.4,0-2.8-0.1-4.4-0.5s-2.7-0.8-3.5-1.3c0-0.3,0-0.4,0-0.6c0-1.3,0.3-2.6,0.9-3.7h3.1c0.3,0.5,0.4,1.2,0.5,1.9
			C67.6,128.8,68.5,128.9,69.6,128.9 M67.2,119.8c0.5,0.8,1.3,1,2.5,1s2.2-0.4,3.2-1v-8.4c-0.9-0.4-1.9-0.6-3.1-0.6
			c-2.2,0-3.4,1.7-3.4,5.3C66.4,117.7,66.7,119,67.2,119.8"/>
		<path class="st0" d="M80.9,107.4c1.3-0.3,2.5-0.4,3.5-0.4s1.9,0,2.6,0.1v1.8c0.6-0.5,1.4-0.9,2.3-1.2c0.9-0.3,1.9-0.5,2.8-0.5
			c2.3,0,4,0.5,4.9,1.7c0.9,1.2,1.4,3,1.4,5.7v6.8c0.8,0.1,1.7,0.5,2.3,1l-0.4,3h-8.7l-0.4-2.7c0.4-0.4,1-0.9,1.9-1.2v-7.1
			c0-1.3-0.3-2.2-0.6-2.6c-0.4-0.4-1.2-0.6-2.2-0.6s-2.2,0.4-3.2,1.2v9.2c0.9,0.4,1.6,0.8,1.9,1.2l-0.4,2.7h-8.1l-0.4-2.7
			c0.4-0.4,1-0.9,1.9-1.2v-9.9c-0.8-0.3-1.6-0.6-1.9-1.2L80.9,107.4L80.9,107.4z"/>
		<path class="st0" d="M109.9,125.4c-2.8,0-4.9-0.8-6.2-2.2c-1.4-1.6-2.1-3.7-2.1-6.7s0.8-5.3,2.3-7c1.6-1.6,3.6-2.5,6.5-2.5
			s4.9,0.8,6.3,2.2s2.1,3.6,2.1,6.7s-0.8,5.4-2.3,7.1C115,124.7,112.8,125.4,109.9,125.4 M106.7,116.1c0,3.7,1.2,5.7,3.5,5.7
			c1.2,0,2.1-0.4,2.6-1.3c0.5-0.9,0.9-2.3,0.9-4.3c0-3.7-1.2-5.6-3.5-5.6c-1.2,0-1.9,0.4-2.6,1.2
			C107.1,112.8,106.8,114.2,106.7,116.1"/>
		<g>
			<path class="st0" d="M49,93.7c-0.4,0.8-0.9,1.3-1.4,1.6c-0.5,0.4-1.3,0.5-2.1,0.5c-0.9,0-1.7-0.1-2.3-0.5s-1.2-0.9-1.4-1.4
				c-0.4-0.6-0.5-1.4-0.5-2.2c0-0.8,0.1-1.7,0.5-2.3c0.4-0.6,0.9-1.2,1.4-1.6c0.6-0.4,1.4-0.5,2.2-0.5s1.6,0.1,2.2,0.5
				s1,0.9,1.4,1.7l0.1,0.3h1.7v-4.4h-1.9v1c-0.1-0.1-0.4-0.3-0.5-0.4c-0.9-0.5-1.9-0.8-3.1-0.8s-2.3,0.3-3.2,0.8
				c-0.9,0.5-1.7,1.3-2.2,2.2C39.3,89,39,90.2,39,91.3c0,1.2,0.3,2.3,0.8,3.2c0.5,0.9,1.3,1.7,2.3,2.2c1,0.5,2.1,0.8,3.4,0.8
				c1.3,0,2.3-0.3,3.2-0.8s1.6-1.3,2.2-2.3l0.3-0.5L49.4,93L49,93.7L49,93.7z"/>
			<path class="st0" d="M58.3,89.3c-0.6-0.4-1.4-0.5-2.3-0.5c-0.9,0-1.7,0.3-2.3,0.5c-0.6,0.4-1.2,0.9-1.6,1.6
				c-0.4,0.6-0.5,1.4-0.5,2.3c0,0.9,0.1,1.6,0.5,2.3c0.4,0.6,0.9,1.2,1.6,1.6c0.6,0.4,1.4,0.5,2.3,0.5c0.9,0,1.7-0.3,2.3-0.5
				c0.6-0.4,1.2-0.9,1.6-1.6c0.4-0.6,0.5-1.4,0.5-2.3c0-0.9-0.1-1.6-0.5-2.3C59.4,90.2,58.9,89.7,58.3,89.3L58.3,89.3z M55.9,95.9
				c-0.8,0-1.3-0.3-1.7-0.6c-0.4-0.4-0.8-1.2-0.8-1.9c0-0.8,0.3-1.4,0.6-1.9s1-0.6,1.7-0.6s1.3,0.3,1.7,0.6c0.4,0.4,0.6,1.2,0.6,1.9
				c0,0.8-0.3,1.4-0.6,1.9C57.1,95.7,56.7,95.7,55.9,95.9L55.9,95.9z"/>
			<path class="st0" d="M70.8,98.4c-0.8,0-1.3-0.6-1.3-1.3v-5.4c0-1-0.3-1.8-0.8-2.3c-0.5-0.5-1.3-0.8-2.3-0.8
				c-0.5,0-1.2,0.1-1.8,0.4c-0.3,0.1-0.4,0.1-0.6,0.3v-0.5h-3.5v2.1H62v4.9h-1.4v1.8h4.8v-1.8h-1.3v-4.3c0.4-0.3,0.6-0.4,0.9-0.5
				c0.4-0.1,0.8-0.3,1.2-0.3c0.5,0,0.8,0.1,1,0.3s0.3,0.5,0.3,1v5.6c0,1.7,1.3,3.1,2.8,3.1h3.2v-2.1L70.8,98.4L70.8,98.4z"/>
		</g>
	</g>
	<path class="st0" d="M96.2,36.3c0-1,0-1.9,0.8-2.8c0.5-0.6,1.4-1,2.3-1c0.1,0,0.3,0,0.4,0.1c0.8,0.4,1.6,0.9,1.8,1.7
		c0.3,0.6,0.4,1.3,0.6,1.9c0.4,1.3,0.8,2.6,1.2,3.9c0,0.1,0,0.3,0,0.3c0,0.3-0.3,0.5-0.6,0.4c-0.8-0.3-1.6-0.5-2.2-0.9
		c-1.3-0.8-2.6-1.6-3.9-2.3c-0.1-0.1-0.3-0.3-0.4-0.5C96.2,36.8,96.2,36.4,96.2,36.3"/>
	<path class="st0" d="M121.7,69c-0.9-0.4-1.8-0.8-2.6-1.2c-0.8-0.4-1.4-0.9-2.1-1.3c-1.2-0.6-2.2-1.4-3.1-2.3
		c-0.8-0.6-1.6-1.3-2.6-1.6c-0.3,0-0.4-0.1-0.6,0c-0.9,0.1-1.7,0.3-2.6,0.4l1.8,7.9c1.9-0.1,4.1-0.1,5.9-0.3c0.1,0,0.3,0,0.5,0
		c1.7-0.3,3.5-0.4,5.3-0.5c0.3,0,0.5-0.1,0.6-0.3C122.1,69.3,121.8,69.1,121.7,69"/>
	<path class="st0" d="M116.5,49.9c-0.3-0.9-0.6-1.7-1.7-2.1c-1.4-0.5-2.8-1-4.4-1.6c-1.6-0.5-3-1.2-4.4-1.9
		c-1.2-0.6-2.5-1.2-3.6-1.8c-1.8-1-3.6-2.1-5.3-3.2c-1.8-1.2-3.6-2.3-5.2-3.6c-4.9-4-11.5-12.5-13.6-16.4c-1.4-2.3-3-2.1-3-2.1
		c0.1,1.2,2.7,10.7,14.7,26.6v9.6c0.3,0.1,0.6,0.3,0.9,0.5c1.8,0.9,3.6,1.3,5.7,1.7c1.6,0.3,3.1,0.4,4.7,0.4c1.3,0,2.6,0,3.9,0
		c0.1,0,0.3,0,0.4-0.1c0,0.1,0,0.3,0,0.5c0,0.4,0.1,0.6,0.1,1c-1.2,0-2.2,0.1-3.2,0.1c-1,0-2.1-0.1-3.1-0.1c-0.5,0-1.2-0.1-1.7-0.1
		c-0.5,0-5.2-0.9-6.7-1.6c-0.3-0.1-0.5-0.3-0.8-0.3v13.4c0,0.9,0.8,1.7,1.7,1.7c2.1,0,5.7-0.1,6.8-0.1c-0.3-1.8-0.9-8.4-0.9-8.9
		c0-0.3,0.5-0.3,0.6-0.1c0.4,1.4,1.4,8.7,1.6,9.6v0.1c0.3,1.4,1.2,9.7,1.6,11.6c0.1,0.5,0.5,0.6,1,0.4c0.4-0.1,0.6-0.5,0.8-0.8
		c0.4-0.6,0.6-1,1.2-1.7c1.6-1.9,1.9-2.3,3.2-4c0.8-1,1.7-1.7,1.6-3c-0.1-1.4-0.5-2.7-0.5-2.8c-1.2-4.8-1.7-8.5-1.7-8.7
		c-0.1-0.8-0.4-1.6-0.5-2.3c0.9-0.6,2.7-1.9,3.2-2.6c0.6-0.5,1.2-1.2,1.8-1.6c1.3-0.9,2.5-1.8,3.5-3C116.1,51.9,116.9,51,116.5,49.9
		 M105.5,54.1c0,0.1,0,0.4,0,0.5C105.5,54.4,105.5,54.3,105.5,54.1L105.5,54.1v-0.4c0-0.3-0.1-0.6-0.1-1c-0.1-1-0.3-1.9-0.5-2.8
		c0-0.4,0.1-0.6,0.5-0.8c0.1,0,0.3,0,0.4,0l0,0l0,0c0.1,0,0.1,0.1,0.3,0.1l3.2,1.9L105.5,54.1L105.5,54.1z"/>
	<g>
		<path class="st0" d="M35.1,50.7c-0.6,0-1.7,0-2.5-0.4c-0.3,0.6-0.5,1.3-0.8,1.9c-0.8,2.2-1.4,4.3-1.6,6.6c0,0.3,0,0.6,0,1h0.4
			c1,0,1.8-0.5,2.3-1.4c1-2.1,2.2-3.9,3.2-5.6C35.7,52.2,35.3,51.3,35.1,50.7z"/>
		<path class="st0" d="M68.3,24.4c0.6,0,1.6,0.1,2.2,0.5c3.6-4.9,4.7-7.8,4.7-7.8h-1c-1.7,0-3.2,0.8-4.3,2.1c-0.8,1-1.6,2.1-2.5,3.1
			C68.1,23,68.2,23.9,68.3,24.4L68.3,24.4z"/>
		<path class="st0" d="M68,25.3h-0.4v-0.4c0-0.4-0.3-1.3-0.5-1.8c-2.8,3.1-4.5,5.6-11.5,8.8c-1.4,0.6-2.8,1.4-4.3,2.2
			c-0.1,0.1-1.4,0.5-1.6,0.6l0,0c-1.3,0.6-2.6,1.3-3.9,1.9c-0.1,0.1-0.3,0.1-0.4,0.3l0,0c0,0-0.8,0.6-1.7,1.2
			c-0.5,0.4-0.9,0.6-1.4,1c-2.5,1.7-4.5,3.6-6.3,5.8c-1.2,1.6-2.1,3.1-2.8,4.7c0.4,0.3,1.4,0.3,2.3,0.3h0.4l0.1,0.4
			c0.1,0.4,0.4,1.4,0.9,1.9c4.4-5.9,8.7-8.1,8.8-8.1c0,0-0.4,3.1-1.9,5.8c2.6,0.3,9.3,0.9,15.1-0.6V38.9c5.6-5.3,8.5-9.8,11.2-13.3
			C69.5,25.5,68.7,25.3,68,25.3L68,25.3z"/>
	</g>
	<circle class="st0" cx="48.6" cy="30.5" r="3.5"/>
	<circle class="st0" cx="43.3" cy="28.2" r="2.3"/>
	<path class="st0" d="M58.7,78.6V50.7C50.9,52.5,43.2,51,43.2,51c-1.9,2.1-2.6,4.9-2.8,7.8c-0.3,3.9-2.3,12.1-5.9,18.7
		c-0.4,0.6-0.3,1.4,0.3,1.9l2.2,2.5h7.5c0.3,0,0.3-0.3,0.1-0.4l-0.3-0.1c-0.8-0.5-1.2-1.4-0.8-2.3c1.7-3.9,4.5-11.2,6.2-20.9
		c0-0.3,0.4-0.3,0.4,0c0,0,1.4,9.3-0.6,21.7c-0.1,1,0.6,1.9,1.7,1.9h7.4h0.4h1.8c0.3,0,0.3-0.3,0.1-0.4l-0.3-0.1
		C59.3,80.9,58.8,79.7,58.7,78.6L58.7,78.6z"/>
	<path class="st0" d="M29.6,65.1L28.7,65c0,0,0.6-4,2.1-8l1,0.4C30.2,61.2,29.6,65.1,29.6,65.1L29.6,65.1z"/>
	<path class="st0" d="M27.4,67.3l-1.3,3.1c0.4,0.1,0.6,0.3,1.2,0.3l1.3-3.2L28,70.8c0.4,0.1,0.8,0.1,1.3,0.3l0.4-3.2l0.3,3.4
		c0.5,0.1,1,0.1,1.7,0.1c-0.8-1.8-0.9-3.2-0.8-4.9c0.1-0.9-0.6-1.8-1.6-1.9c-0.9-0.3-1.8,0.3-2.3,1c-0.8,1.4-1.9,3.4-3.4,4
		c0,0,0.5,0.3,1.7,0.6L27.4,67.3L27.4,67.3z"/>
</g>
</svg>
